<svg xmlns="http://www.w3.org/2000/svg" xmlns:xlink="http://www.w3.org/1999/xlink" width="430" height="291.812" viewBox="0 0 430 291.812">
  <defs>
    <filter id="Trazado_168917" x="0" y="0" width="430" height="291.812" filterUnits="userSpaceOnUse">
      <feOffset input="SourceAlpha"/>
      <feGaussianBlur stdDeviation="5" result="blur"/>
      <feFlood flood-opacity="0.161"/>
      <feComposite operator="in" in2="blur"/>
      <feComposite in="SourceGraphic"/>
    </filter>
  </defs>
  <g id="Grupo_110604" data-name="Grupo 110604" transform="translate(-427.501 -749.708)">
    <g id="Grupo_110603" data-name="Grupo 110603" transform="translate(-157.498 -4801.293)">
      <g id="Grupo_110249" data-name="Grupo 110249" transform="translate(-193.174 5557.021)">
        <g transform="matrix(1, 0, 0, 1, 778.17, -6.02)" filter="url(#Trazado_168917)">
          <path id="Trazado_168917-2" data-name="Trazado 168917" d="M1226.115,289.578c0,6.666-4.891,12.119-10.87,12.119H836.985c-5.979,0-10.87-5.454-10.87-12.119V52.006c0-6.666,4.891-12.121,10.87-12.121h378.261c5.979,0,10.87,5.455,10.87,12.121Z" transform="translate(-811.11 -24.89)" fill="#fff"/>
        </g>
        <g id="Grupo_110221" data-name="Grupo 110221" transform="translate(874.164 65.543)">
          <rect id="Rectángulo_36497" data-name="Rectángulo 36497" width="2.415" height="148.28"/>
        </g>
        <g id="Grupo_110222" data-name="Grupo 110222" transform="translate(883.121 65.543)">
          <rect id="Rectángulo_36498" data-name="Rectángulo 36498" width="2.415" height="148.28"/>
        </g>
        <g id="Grupo_110223" data-name="Grupo 110223" transform="translate(899.084 65.543)">
          <rect id="Rectángulo_36499" data-name="Rectángulo 36499" width="2.415" height="116.72"/>
        </g>
        <g id="Grupo_110224" data-name="Grupo 110224" transform="translate(1073.774 65.543)">
          <rect id="Rectángulo_36500" data-name="Rectángulo 36500" width="2.415" height="116.72"/>
        </g>
        <g id="Grupo_110225" data-name="Grupo 110225" transform="translate(1025.945 65.543)">
          <rect id="Rectángulo_36501" data-name="Rectángulo 36501" width="2.416" height="116.72"/>
        </g>
        <g id="Grupo_110226" data-name="Grupo 110226" transform="translate(1038.95 65.543)">
          <rect id="Rectángulo_36502" data-name="Rectángulo 36502" width="2.416" height="116.72"/>
        </g>
        <g id="Grupo_110227" data-name="Grupo 110227" transform="translate(1080.357 65.543)">
          <rect id="Rectángulo_36503" data-name="Rectángulo 36503" width="2.415" height="116.72"/>
        </g>
        <g id="Grupo_110228" data-name="Grupo 110228" transform="translate(930.268 65.543)">
          <rect id="Rectángulo_36504" data-name="Rectángulo 36504" width="2.415" height="116.72"/>
        </g>
        <g id="Grupo_110229" data-name="Grupo 110229" transform="translate(1053.849 65.543)">
          <rect id="Rectángulo_36505" data-name="Rectángulo 36505" width="2.415" height="116.72"/>
        </g>
        <g id="Grupo_110230" data-name="Grupo 110230" transform="translate(1033.052 65.543)">
          <rect id="Rectángulo_36506" data-name="Rectángulo 36506" width="1.208" height="116.72"/>
        </g>
        <g id="Grupo_110231" data-name="Grupo 110231" transform="translate(976.999 65.543)">
          <rect id="Rectángulo_36507" data-name="Rectángulo 36507" width="1.208" height="116.72"/>
        </g>
        <g id="Grupo_110232" data-name="Grupo 110232" transform="translate(1060.273 65.543)">
          <rect id="Rectángulo_36508" data-name="Rectángulo 36508" width="1.208" height="116.72"/>
        </g>
        <g id="Grupo_110233" data-name="Grupo 110233" transform="translate(889.165 65.543)">
          <rect id="Rectángulo_36509" data-name="Rectángulo 36509" width="1.208" height="116.72"/>
        </g>
        <g id="Grupo_110234" data-name="Grupo 110234" transform="translate(1045.411 65.543)">
          <rect id="Rectángulo_36510" data-name="Rectángulo 36510" width="4.831" height="116.72"/>
        </g>
        <g id="Grupo_110235" data-name="Grupo 110235" transform="translate(1064.689 65.543)">
          <rect id="Rectángulo_36511" data-name="Rectángulo 36511" width="4.831" height="116.72"/>
        </g>
        <g id="Grupo_110236" data-name="Grupo 110236" transform="translate(905.628 65.543)">
          <rect id="Rectángulo_36512" data-name="Rectángulo 36512" width="7.247" height="116.72"/>
        </g>
        <g id="Grupo_110237" data-name="Grupo 110237" transform="translate(941.021 65.543)">
          <rect id="Rectángulo_36513" data-name="Rectángulo 36513" width="9.662" height="116.72"/>
        </g>
        <g id="Grupo_110238" data-name="Grupo 110238" transform="translate(1008.867 65.543)">
          <rect id="Rectángulo_36514" data-name="Rectángulo 36514" width="9.662" height="116.72"/>
        </g>
        <g id="Grupo_110239" data-name="Grupo 110239" transform="translate(956.886 65.543)">
          <rect id="Rectángulo_36515" data-name="Rectángulo 36515" width="2.415" height="116.72"/>
        </g>
        <g id="Grupo_110240" data-name="Grupo 110240" transform="translate(920.372 65.543)">
          <rect id="Rectángulo_36516" data-name="Rectángulo 36516" width="2.415" height="116.72"/>
        </g>
        <g id="Grupo_110241" data-name="Grupo 110241" transform="translate(969.891 65.543)">
          <rect id="Rectángulo_36517" data-name="Rectángulo 36517" width="2.415" height="116.72"/>
        </g>
        <g id="Grupo_110242" data-name="Grupo 110242" transform="translate(926.342 65.543)">
          <rect id="Rectángulo_36518" data-name="Rectángulo 36518" width="2.416" height="116.72"/>
        </g>
        <g id="Grupo_110243" data-name="Grupo 110243" transform="translate(982.898 65.543)">
          <rect id="Rectángulo_36519" data-name="Rectángulo 36519" width="2.416" height="116.72"/>
        </g>
        <g id="Grupo_110244" data-name="Grupo 110244" transform="translate(1090.072 65.543)">
          <rect id="Rectángulo_36520" data-name="Rectángulo 36520" width="9.662" height="116.72"/>
        </g>
        <g id="Grupo_110245" data-name="Grupo 110245" transform="translate(991.186 65.543)">
          <rect id="Rectángulo_36521" data-name="Rectángulo 36521" width="2.416" height="148.28"/>
        </g>
        <g id="Grupo_110246" data-name="Grupo 110246" transform="translate(1000.141 65.543)">
          <rect id="Rectángulo_36522" data-name="Rectángulo 36522" width="2.415" height="148.28"/>
        </g>
        <path id="Trazado_168918" data-name="Trazado 168918" d="M1038.427,208.165l1.421-1.826a7.335,7.335,0,0,0,5.515,2.572c2.606,0,4.467-1.557,4.467-3.959,0-2.573-1.759-4.3-6.9-4.3v-2.132c4.6,0,6.124-1.76,6.124-4.027,0-2.1-1.422-3.415-3.722-3.415a6.55,6.55,0,0,0-4.6,2.2l-1.488-1.76a8.885,8.885,0,0,1,6.192-2.705c3.755,0,6.463,1.995,6.463,5.479,0,2.607-1.589,4.265-3.925,5.145v.135a5.569,5.569,0,0,1,4.668,5.482c0,3.821-3.146,6.157-7.1,6.157A9.175,9.175,0,0,1,1038.427,208.165Z" transform="translate(-0.596)"/>
        <path id="Trazado_168919" data-name="Trazado 168919" d="M922.172,208.944c6.5-6.464,10.151-10.353,10.151-13.838,0-2.472-1.355-4.229-4.095-4.229a6.354,6.354,0,0,0-4.6,2.6l-1.593-1.59c1.8-1.962,3.723-3.281,6.532-3.281,3.991,0,6.461,2.536,6.461,6.36,0,4.059-3.687,8.086-8.8,13.434,1.184-.1,2.5-.2,3.621-.2h6.258v2.4H922.172Z" transform="translate(-0.313)"/>
        <path id="Trazado_168920" data-name="Trazado 168920" d="M1055.216,208.267l1.351-1.826a7.35,7.35,0,0,0,5.449,2.47,4.66,4.66,0,0,0,4.737-4.94c0-2.979-1.828-4.739-4.6-4.739a6.066,6.066,0,0,0-3.687,1.321l-1.491-.948.712-10.387h10.792v2.4h-8.357l-.573,6.4a6.635,6.635,0,0,1,3.314-.88c3.689,0,6.7,2.1,6.7,6.768a7.058,7.058,0,0,1-7.275,7.308A9.459,9.459,0,0,1,1055.216,208.267Z" transform="translate(-0.638)"/>
        <path id="Trazado_168921" data-name="Trazado 168921" d="M867.572,191.214H856.813v-2.4h13.906v1.724c-5.11,6.532-6.157,11.436-6.53,19.862h-2.876C861.686,202.277,863.309,197.135,867.572,191.214Z"/>
        <path id="Trazado_168922" data-name="Trazado 168922" d="M900.151,191.214H889.392v-2.4h13.9v1.724c-5.109,6.532-6.156,11.436-6.529,19.862h-2.876C894.265,202.277,895.888,197.135,900.151,191.214Z" transform="translate(-0.234)"/>
        <g id="Grupo_110247" data-name="Grupo 110247" transform="translate(1106.928 65.543)">
          <rect id="Rectángulo_36523" data-name="Rectángulo 36523" width="2.416" height="148.28"/>
        </g>
        <g id="Grupo_110248" data-name="Grupo 110248" transform="translate(1115.708 65.543)">
          <rect id="Rectángulo_36524" data-name="Rectángulo 36524" width="2.416" height="148.28"/>
        </g>
        <path id="Trazado_168923" data-name="Trazado 168923" d="M905.9,199.945c0-7.242,2.606-11.132,6.937-11.132,4.3,0,6.9,3.89,6.9,11.132s-2.607,11.266-6.9,11.266C908.5,211.211,905.9,207.184,905.9,199.945Zm11.131,0c0-6.33-1.691-8.9-4.194-8.9-2.538,0-4.229,2.571-4.229,8.9s1.691,9.032,4.229,9.032C915.337,208.977,917.028,206.271,917.028,199.945Z" transform="translate(-0.274)"/>
        <path id="Trazado_168924" data-name="Trazado 168924" d="M937.888,199.945c0-7.242,2.607-11.132,6.937-11.132,4.3,0,6.9,3.89,6.9,11.132s-2.607,11.266-6.9,11.266C940.495,211.211,937.888,207.184,937.888,199.945Zm11.132,0c0-6.33-1.692-8.9-4.2-8.9-2.538,0-4.229,2.571-4.229,8.9s1.691,9.032,4.229,9.032C947.328,208.977,949.02,206.271,949.02,199.945Z" transform="translate(-0.352)"/>
        <path id="Trazado_168925" data-name="Trazado 168925" d="M954.434,199.945c0-7.242,2.606-11.132,6.937-11.132,4.3,0,6.9,3.89,6.9,11.132s-2.606,11.266-6.9,11.266C957.04,211.211,954.434,207.184,954.434,199.945Zm11.131,0c0-6.33-1.691-8.9-4.194-8.9-2.538,0-4.229,2.571-4.229,8.9s1.691,9.032,4.229,9.032C963.874,208.977,965.565,206.271,965.565,199.945Z" transform="translate(-0.392)"/>
        <path id="Trazado_168926" data-name="Trazado 168926" d="M1006.05,199.945c0-7.242,2.606-11.132,6.937-11.132,4.3,0,6.9,3.89,6.9,11.132s-2.607,11.266-6.9,11.266C1008.656,211.211,1006.05,207.184,1006.05,199.945Zm11.132,0c0-6.33-1.692-8.9-4.2-8.9-2.538,0-4.229,2.571-4.229,8.9s1.691,9.032,4.229,9.032C1015.49,208.977,1017.182,206.271,1017.182,199.945Z" transform="translate(-0.517)"/>
        <path id="Trazado_168927" data-name="Trazado 168927" d="M1022.595,199.945c0-7.242,2.607-11.132,6.938-11.132,4.3,0,6.9,3.89,6.9,11.132s-2.607,11.266-6.9,11.266C1025.2,211.211,1022.595,207.184,1022.595,199.945Zm11.132,0c0-6.33-1.691-8.9-4.194-8.9-2.539,0-4.23,2.571-4.23,8.9s1.691,9.032,4.23,9.032C1032.036,208.977,1033.727,206.271,1033.727,199.945Z" transform="translate(-0.557)"/>
        <path id="Trazado_168928" data-name="Trazado 168928" d="M1072.611,200.013c0-7.242,2.607-11.131,6.937-11.131,4.3,0,6.9,3.889,6.9,11.131s-2.607,11.266-6.9,11.266C1075.218,211.279,1072.611,207.253,1072.611,200.013Zm11.132,0c0-6.329-1.692-8.9-4.2-8.9-2.538,0-4.229,2.571-4.229,8.9s1.691,9.032,4.229,9.032C1082.051,209.045,1083.743,206.34,1083.743,200.013Z" transform="translate(-0.679)"/>
        <path id="Trazado_168929" data-name="Trazado 168929" d="M980.706,204.443h-9.712v-1.826l9.238-13.8h3.111v13.4h2.944v2.232h-2.944V210.4h-2.637Zm0-2.232v-6.26c0-1.149.1-3.01.167-4.161h-.134c-.543,1.05-1.151,2-1.76,3.045l-5.041,7.376Z" transform="translate(-0.434)"/>
        <path id="Trazado_168930" data-name="Trazado 168930" d="M1089.173,205.29c0-2.81,2.031-4.737,4.06-5.82v-.137a6.119,6.119,0,0,1-3.01-4.972c0-3.317,2.639-5.548,6.123-5.548,3.756,0,6.091,2.4,6.091,5.751,0,2.267-1.658,4.2-2.977,5.21v.135c1.927,1.118,3.755,2.64,3.755,5.551,0,3.212-2.774,5.751-6.97,5.751C1092.185,211.211,1089.173,208.708,1089.173,205.29Zm11.37.068c0-2.776-2.741-3.791-5.855-5.043-1.725,1.151-3.01,2.741-3.01,4.7,0,2.4,2,4.128,4.635,4.128C1098.816,209.146,1100.543,207.59,1100.543,205.358Zm-.51-10.66a3.6,3.6,0,0,0-3.755-3.821,3.338,3.338,0,0,0-3.484,3.484c0,2.571,2.368,3.654,4.972,4.668A5.809,5.809,0,0,0,1100.033,194.7Z" transform="translate(-0.72)"/>
      </g>
      <path id="Trazado_169675" data-name="Trazado 169675" d="M38.161,14.186a5.193,5.193,0,0,1-.8,2.622A4.833,4.833,0,0,1,35.3,18.57a7,7,0,0,1-3.022.625,5.584,5.584,0,0,1-4.414-1.826,7.54,7.54,0,0,1-1.611-5.156v-.7a8.607,8.607,0,0,1,.728-3.657,5.513,5.513,0,0,1,2.095-2.422,5.844,5.844,0,0,1,3.164-.854A6.129,6.129,0,0,1,36.4,5.938,5.383,5.383,0,0,1,38.19,9.693H34.772a2.547,2.547,0,0,0-.654-1.865,2.691,2.691,0,0,0-1.875-.566,2.048,2.048,0,0,0-1.875.957,6.151,6.151,0,0,0-.625,3.057v1.006a6.806,6.806,0,0,0,.571,3.252,2.091,2.091,0,0,0,1.968.977,2.632,2.632,0,0,0,1.807-.557,2.363,2.363,0,0,0,.664-1.768Zm1.055-.566a6.236,6.236,0,0,1,.615-2.817A4.4,4.4,0,0,1,41.6,8.9,5.323,5.323,0,0,1,44.3,8.238a4.858,4.858,0,0,1,3.74,1.47,5.64,5.64,0,0,1,1.367,4v.117a5.472,5.472,0,0,1-1.372,3.921,4.871,4.871,0,0,1-3.716,1.45A4.927,4.927,0,0,1,40.7,17.843a5.29,5.29,0,0,1-1.475-3.667Zm3.291.205a3.932,3.932,0,0,0,.459,2.148,1.529,1.529,0,0,0,1.357.684q1.758,0,1.8-2.705v-.332q0-2.842-1.816-2.842-1.65,0-1.787,2.451ZM44.753,4h3.477L45.515,7.066l-2.686,0Zm5.693,9.639A6.455,6.455,0,0,1,51.53,9.684a3.568,3.568,0,0,1,3.027-1.445A3.035,3.035,0,0,1,56.94,9.352V4h3.3V19H57.282l-.166-1.133A3.116,3.116,0,0,1,54.538,19.2,3.562,3.562,0,0,1,51.55,17.75,6.659,6.659,0,0,1,50.446,13.639Zm3.291.205q0,2.813,1.641,2.813a1.62,1.62,0,0,0,1.563-.918V11.715a1.576,1.576,0,0,0-1.543-.937q-1.523,0-1.65,2.461ZM65.583,19h-3.3V8.434h3.3Zm-3.5-13.3a1.482,1.482,0,0,1,.508-1.159,2.149,2.149,0,0,1,2.637,0A1.482,1.482,0,0,1,65.739,5.7a1.482,1.482,0,0,1-.508,1.159,2.149,2.149,0,0,1-2.637,0A1.482,1.482,0,0,1,62.087,5.7Zm5.137,7.939a7.134,7.134,0,0,1,.527-2.832,4.245,4.245,0,0,1,1.514-1.9,3.99,3.99,0,0,1,2.295-.669,3.173,3.173,0,0,1,2.578,1.113l.117-.918h2.988V18.6a4.455,4.455,0,0,1-.649,2.427,4.167,4.167,0,0,1-1.88,1.582,6.91,6.91,0,0,1-2.852.552,5.961,5.961,0,0,1-2.251-.439,4.063,4.063,0,0,1-1.665-1.143l1.377-1.934a3.018,3.018,0,0,0,2.422,1.084,1.96,1.96,0,0,0,2.188-2.246V18.15A3.09,3.09,0,0,1,71.54,19.2a3.819,3.819,0,0,1-3.125-1.479,6.13,6.13,0,0,1-1.191-3.96Zm3.3.205a3.759,3.759,0,0,0,.488,2.056,1.541,1.541,0,0,0,1.367.757,1.748,1.748,0,0,0,1.553-.713V11.5a1.7,1.7,0,0,0-1.533-.723,1.551,1.551,0,0,0-1.377.786A4.287,4.287,0,0,0,70.524,13.844Zm8.174-.225a6.236,6.236,0,0,1,.615-2.817,4.4,4.4,0,0,1,1.768-1.9,5.323,5.323,0,0,1,2.705-.664,4.858,4.858,0,0,1,3.74,1.47,5.64,5.64,0,0,1,1.367,4v.117a5.472,5.472,0,0,1-1.372,3.921,4.871,4.871,0,0,1-3.716,1.45,4.927,4.927,0,0,1-3.623-1.353,5.29,5.29,0,0,1-1.475-3.667Zm3.291.205a3.932,3.932,0,0,0,.459,2.148,1.529,1.529,0,0,0,1.357.684q1.758,0,1.8-2.705v-.332q0-2.842-1.816-2.842-1.65,0-1.787,2.451Zm22.3-.859H98.9v3.4h6.367V19H95.476V4.781h9.814V7.428H98.9v3h5.391Zm10.449,3.379h-4.7L109.226,19h-3.662l5.215-14.219H114L119.255,19h-3.682ZM110.866,13.7h3.057L112.39,8.766Zm21.3,5.3h-3.408l-5.039-8.848V19H120.29V4.781h3.428l5.029,8.848V4.781h3.418Zm8.447-4.863h-5.869V11.6h5.869Zm9.8,4.863h-3.3V8.492l-3.242.947v-2.5l6.24-2.158h.3Zm7.295-8.486h1.553a1.614,1.614,0,0,0,1.846-1.807,1.562,1.562,0,0,0-.439-1.147,1.666,1.666,0,0,0-1.24-.444,1.784,1.784,0,0,0-1.138.381,1.162,1.162,0,0,0-.483.947h-3.291a3.369,3.369,0,0,1,.625-2,4.127,4.127,0,0,1,1.733-1.372,5.926,5.926,0,0,1,2.437-.493,5.823,5.823,0,0,1,3.73,1.084A3.6,3.6,0,0,1,164.4,8.639a3,3,0,0,1-.562,1.733A4,4,0,0,1,162.2,11.7a3.823,3.823,0,0,1,1.777,1.245,3.279,3.279,0,0,1,.645,2.065,3.669,3.669,0,0,1-1.465,3.047,6.08,6.08,0,0,1-3.848,1.143,6.306,6.306,0,0,1-2.593-.532,4.062,4.062,0,0,1-1.812-1.475,3.834,3.834,0,0,1-.615-2.144H157.6a1.482,1.482,0,0,0,.527,1.133,1.862,1.862,0,0,0,1.3.479,1.95,1.95,0,0,0,1.387-.483,1.616,1.616,0,0,0,.518-1.235,1.889,1.889,0,0,0-.537-1.523,2.245,2.245,0,0,0-1.484-.449h-1.6Z" transform="translate(705 5578)" fill="#12263f"/>
    </g>
  </g>
</svg>
