<svg id="alerta" xmlns="http://www.w3.org/2000/svg" width="69.667" height="83.064" viewBox="0 0 69.667 83.064">
  <path id="Trazado_169033" data-name="Trazado 169033" d="M133.475,456H109.359A5.359,5.359,0,0,0,104,461.359h34.834A5.359,5.359,0,0,0,133.475,456Zm0,0" transform="translate(-86.583 -379.634)" fill="#5e2667"/>
  <path id="Trazado_169034" data-name="Trazado 169034" d="M176,408h10.718v8.039H176Zm0,0" transform="translate(-146.525 -339.673)" fill="#91489d"/>
  <path id="Trazado_169035" data-name="Trazado 169035" d="M8,168H74.988v40.192H8Zm0,0" transform="translate(-6.66 -139.865)" fill="#64b5f6"/>
  <path id="Trazado_169036" data-name="Trazado 169036" d="M40,8H96.27V69.629H40Zm0,0" transform="translate(-33.301 -6.66)" fill="#ebf6ff"/>
  <path id="Trazado_169038" data-name="Trazado 169038" d="M94.776,128,72,160.154h45.552Zm0,0" transform="translate(-59.942 -106.564)" fill="#fff505"/>
  <path id="Trazado_169039" data-name="Trazado 169039" d="M40,8H96.27V18.718H40Zm0,0" transform="translate(-33.301 -6.66)" fill="#ba68c8"/>
  <path id="Trazado_169040" data-name="Trazado 169040" d="M68.327,202.872H1.34A1.338,1.338,0,0,1,0,201.532V161.34A1.338,1.338,0,0,1,1.34,160H6.7v2.679H2.68v37.513H66.988V162.679H62.968V160h5.359a1.338,1.338,0,0,1,1.34,1.34v40.193A1.338,1.338,0,0,1,68.327,202.872Zm0,0" transform="translate(0 -133.205)"/>
  <path id="Trazado_169041" data-name="Trazado 169041" d="M132.173,456.039H97.34A1.338,1.338,0,0,1,96,454.7a6.707,6.707,0,0,1,6.7-6.7h24.116a6.707,6.707,0,0,1,6.7,6.7A1.338,1.338,0,0,1,132.173,456.039Zm-33.265-2.68h31.7a4.027,4.027,0,0,0-3.79-2.68H102.7A4.027,4.027,0,0,0,98.908,453.359Zm0,0" transform="translate(-79.923 -372.974)"/>
  <path id="Trazado_169042" data-name="Trazado 169042" d="M232,408h2.68v8.039H232Zm0,0" transform="translate(-193.147 -339.673)"/>
  <path id="Trazado_169043" data-name="Trazado 169043" d="M168,408h2.679v8.039H168Zm0,0" transform="translate(-139.865 -339.673)"/>
  <path id="Trazado_169044" data-name="Trazado 169044" d="M89.609,64.308H33.34A1.338,1.338,0,0,1,32,62.968V1.34A1.338,1.338,0,0,1,33.34,0h56.27a1.338,1.338,0,0,1,1.34,1.34V62.968A1.338,1.338,0,0,1,89.609,64.308Zm-54.93-2.68H88.27V2.68H34.68Zm0,0" transform="translate(-26.641)"/>
  <path id="Trazado_169045" data-name="Trazado 169045" d="M64,32h2.679v2.68H64Zm0,0" transform="translate(-53.282 -26.641)"/>
  <path id="Trazado_169046" data-name="Trazado 169046" d="M96,32h2.679v2.68H96Zm0,0" transform="translate(-79.923 -26.641)"/>
  <path id="Trazado_169047" data-name="Trazado 169047" d="M128,32h2.68v2.68H128Zm0,0" transform="translate(-106.564 -26.641)"/>
  <path id="Trazado_169048" data-name="Trazado 169048" d="M40,64H96.27v2.679H40Zm0,0" transform="translate(-33.301 -53.282)"/>
  <path id="Trazado_169049" data-name="Trazado 169049" d="M110.887,155H65.336a1.34,1.34,0,0,1-1.094-2.114l22.776-32.154a1.391,1.391,0,0,1,2.188,0l22.776,32.154A1.34,1.34,0,0,1,110.887,155Zm-42.96-2.68H108.3l-20.186-28.5Zm0,0" transform="translate(-53.278 -100.072)"/>
  <path id="Trazado_169050" data-name="Trazado 169050" d="M200,280h2.679v2.679H200Zm0,0" transform="translate(-166.506 -233.109)"/>
  <path id="Trazado_169051" data-name="Trazado 169051" d="M200,184h2.679v13.4H200Zm0,0" transform="translate(-166.506 -153.186)"/>
</svg>
