<svg xmlns="http://www.w3.org/2000/svg" width="85" height="66.307" viewBox="0 0 85 66.307">
  <g id="computer" transform="translate(0 0.001)">
    <path id="Trazado_169106" data-name="Trazado 169106" d="M63.12,10.887h43.817a3.333,3.333,0,0,1,3.333,3.333V64.406H37.8V14.219a3.332,3.332,0,0,1,3.333-3.333h8.739" transform="translate(-31.522 -9.08)" fill="#999"/>
    <path id="Trazado_169107" data-name="Trazado 169107" d="M70.645,43.488h61.566v43H70.645Zm0,0" transform="translate(-58.916 -36.269)" fill="#9cdd05"/>
    <path id="Trazado_169108" data-name="Trazado 169108" d="M10.105,333.262H91.773v9.314H10.105Zm0,0" transform="translate(-8.428 -277.936)" fill="#e6e6e6"/>
    <path id="Trazado_169109" data-name="Trazado 169109" d="M120.141,132.441h15.894v11.275H120.141Zm0,0" transform="translate(-100.195 -110.455)" fill="#e8ba64"/>
    <path id="Trazado_169110" data-name="Trazado 169110" d="M151.156,160.32H156.6v6.647h-5.441Zm0,0" transform="translate(-126.062 -133.705)" fill="#fcf2b6"/>
    <path id="Trazado_169111" data-name="Trazado 169111" d="M117.071,86.605l-10.047,7.609H127.09Zm0,0" transform="translate(-89.256 -72.228)" fill="#ff6379"/>
    <path id="Trazado_169112" data-name="Trazado 169112" d="M119.137,228.129h5.558v5.558h-5.558Zm0,0" transform="translate(-99.358 -190.256)" fill="#b6baf2"/>
    <path id="Trazado_169113" data-name="Trazado 169113" d="M182.23,228.129h5.558v5.558H182.23Zm0,0" transform="translate(-151.977 -190.256)" fill="#ffed28"/>
    <path id="Trazado_169114" data-name="Trazado 169114" d="M267.039,205.723h23.329v9.362H267.039Zm0,0" transform="translate(-222.706 -171.57)" fill="#5ecef4"/>
    <path id="Trazado_169115" data-name="Trazado 169115" d="M60.539,35.12v43a1.666,1.666,0,0,0,1.666,1.666h61.567a1.666,1.666,0,0,0,1.667-1.666v-43a1.667,1.667,0,0,0-1.667-1.667H62.205A1.666,1.666,0,0,0,60.539,35.12Zm3.333,1.666h58.234V76.451H63.872Zm0,0" transform="translate(-50.489 -27.9)"/>
    <path id="Trazado_169116" data-name="Trazado 169116" d="M83.333,54.37H80.4V5.85a5,5,0,0,0-5-5H31.586a1.666,1.666,0,0,0,0,3.333H75.4A1.668,1.668,0,0,1,77.07,5.85V54.37H7.93V5.85A1.668,1.668,0,0,1,9.6,4.184h8.739a1.666,1.666,0,1,0,0-3.333H9.6a5,5,0,0,0-5,5V54.37H1.667A1.667,1.667,0,0,0,0,56.037v9.314a1.667,1.667,0,0,0,1.667,1.667H83.333A1.667,1.667,0,0,0,85,65.351V56.037A1.667,1.667,0,0,0,83.333,54.37Zm-1.666,9.314H3.333V57.7H81.667Zm0,0" transform="translate(0 -0.711)"/>
    <path id="Trazado_169117" data-name="Trazado 169117" d="M203.157,351.418h-19.42a1.666,1.666,0,1,0,0,3.333h19.42a1.666,1.666,0,0,0,0-3.333Zm0,0" transform="translate(-151.844 -293.078)"/>
    <path id="Trazado_169118" data-name="Trazado 169118" d="M141.741,3.347a1.687,1.687,0,0,0,.383-.044l.062-.015a1.666,1.666,0,0,0-.762-3.244l-.062.015a1.666,1.666,0,0,0,.379,3.289Zm0,0" transform="translate(-116.821)"/>
    <path id="Trazado_169119" data-name="Trazado 169119" d="M347.224,79.873a1.68,1.68,0,0,0,.382-.044l.062-.015a1.666,1.666,0,1,0-.761-3.244l-.062.014a1.666,1.666,0,0,0,.379,3.289Zm0,0" transform="translate(-288.191 -63.821)"/>
    <path id="Trazado_169120" data-name="Trazado 169120" d="M119.658,84.518l-10.019-7.609a1.665,1.665,0,0,0-2.014,0L97.577,84.516a1.666,1.666,0,0,0,1.006,2.994h.511V97.12a1.666,1.666,0,0,0,1.667,1.666h15.893a1.666,1.666,0,0,0,1.667-1.666V87.511h.328a1.666,1.666,0,0,0,1.008-2.993ZM108.63,80.326l5.071,3.852H103.544Zm-1.053,15.128V92.14h2.108v3.314Zm7.412,0h-1.971V90.473a1.666,1.666,0,0,0-1.666-1.666h-5.441a1.666,1.666,0,0,0-1.666,1.666v4.981h-1.816V87.511H114.99v7.943Zm0,0" transform="translate(-80.827 -63.858)"/>
    <path id="Trazado_169121" data-name="Trazado 169121" d="M258.6,79.9h8.165a1.666,1.666,0,0,0,0-3.333H258.6a1.666,1.666,0,1,0,0,3.333Zm0,0" transform="translate(-214.279 -63.859)"/>
    <path id="Trazado_169122" data-name="Trazado 169122" d="M281.929,114.711H258.6a1.666,1.666,0,1,0,0,3.333h23.328a1.666,1.666,0,1,0,0-3.333Zm0,0" transform="translate(-214.279 -95.668)"/>
    <path id="Trazado_169123" data-name="Trazado 169123" d="M281.929,152.293H258.6a1.666,1.666,0,1,0,0,3.333h23.328a1.666,1.666,0,1,0,0-3.333Zm0,0" transform="translate(-214.279 -127.01)"/>
    <path id="Trazado_169124" data-name="Trazado 169124" d="M116.259,218.094H110.7a1.666,1.666,0,0,0-1.666,1.666v5.558a1.666,1.666,0,0,0,1.666,1.667h5.558a1.667,1.667,0,0,0,1.667-1.667V219.76A1.667,1.667,0,0,0,116.259,218.094Zm-1.667,5.558h-2.224v-2.225h2.225v2.225Zm0,0" transform="translate(-90.934 -181.887)"/>
    <path id="Trazado_169125" data-name="Trazado 169125" d="M179.349,218.094h-5.558a1.666,1.666,0,0,0-1.667,1.666v5.558a1.667,1.667,0,0,0,1.667,1.667h5.558a1.667,1.667,0,0,0,1.667-1.667V219.76A1.666,1.666,0,0,0,179.349,218.094Zm-1.666,5.558h-2.226v-2.225h2.226Zm0,0" transform="translate(-143.55 -181.887)"/>
    <path id="Trazado_169126" data-name="Trazado 169126" d="M281.929,195.688H258.6a1.666,1.666,0,0,0-1.667,1.666v9.362a1.666,1.666,0,0,0,1.667,1.666h23.328a1.666,1.666,0,0,0,1.667-1.666v-9.362A1.666,1.666,0,0,0,281.929,195.688Zm-1.666,9.362h-20V199.02h20Zm0,0" transform="translate(-214.279 -163.201)"/>
  </g>
</svg>
