<svg xmlns="http://www.w3.org/2000/svg" width="190" height="250" viewBox="0 0 190 250">
  <g id="Grupo_110352" data-name="Grupo 110352" transform="translate(-285 -6524)">
    <rect id="Rectángulo_36671" data-name="Rectángulo 36671" width="147" height="250" transform="translate(307 6524)" fill="#cde6fa"/>
    <g id="Grupo_110351" data-name="Grupo 110351" transform="translate(285 6524)">
      <g id="codigo-de-barras" transform="translate(56.678 90.487)">
        <g id="Grupo_110349" data-name="Grupo 110349" transform="translate(1.288 1.184)">
          <path id="Trazado_169004" data-name="Trazado 169004" d="M16.066,33.133H88.2V101.4a2.576,2.576,0,0,1-2.576,2.576H18.642a2.576,2.576,0,0,1-2.576-2.576V33.133Z" transform="translate(-14.778 -29.164)" fill="#c99b50"/>
          <path id="Trazado_169006" data-name="Trazado 169006" d="M8.822,7.533H80.958a1.288,1.288,0,0,1,1.288,1.288V16.55a1.288,1.288,0,0,1-1.288,1.288H8.822A1.288,1.288,0,0,1,7.534,16.55V8.821A1.288,1.288,0,0,1,8.822,7.533Z" transform="translate(-7.534 -7.429)" fill="#c99b50"/>
          <rect id="Rectángulo_36672" data-name="Rectángulo 36672" width="18" height="11" transform="translate(28.035 0.329)" fill="#64b5f6"/>
          <path id="Trazado_169008" data-name="Trazado 169008" d="M219.258,75.8v7.729l-3.864-2.576-3.864,2.576-3.864-2.576L203.8,83.529V75.8Z" transform="translate(-174.173 -65.39)" fill="#64b5f6"/>
          <path id="Trazado_169009" data-name="Trazado 169009" d="M309.844,331.8l15.042,15.042a2.576,2.576,0,1,1-3.643,3.643L306.2,335.443Z" transform="translate(-261.115 -282.746)" fill="#5c22c3"/>
          <path id="Trazado_169019" data-name="Trazado 169019" d="M16.746,0A16.746,16.746,0,1,1,0,16.746,16.746,16.746,0,0,1,16.746,0Z" transform="translate(20.61 24.579)" fill="#cde6fa"/>
        </g>
        <g id="Grupo_110350" data-name="Grupo 110350">
          <path id="Trazado_169010" data-name="Trazado 169010" d="M141.829,167.4A18.03,18.03,0,0,0,164.3,195.339l12.144,12.143a3.864,3.864,0,1,0,5.464-5.465l-12.143-12.144A18.029,18.029,0,0,0,141.829,167.4Zm38.255,36.434a1.3,1.3,0,0,1,0,1.821,1.326,1.326,0,0,1-1.821,0l-11.887-11.887c.324-.281.65-.557.957-.865s.584-.634.865-.957Zm-14.573-12.752a15.45,15.45,0,1,1,0-21.861A15.45,15.45,0,0,1,165.511,191.087Z" transform="translate(-115.937 -137.648)"/>
          <path id="Trazado_169011" data-name="Trazado 169011" d="M180.488,238.154a1.288,1.288,0,0,0-1.288,1.288v10.305a1.288,1.288,0,0,0,2.576,0V239.442A1.288,1.288,0,0,0,180.488,238.154Z" transform="translate(-152.149 -202.204)"/>
          <path id="Trazado_169012" data-name="Trazado 169012" d="M214.622,238.154a1.288,1.288,0,0,0-1.288,1.288v10.305a1.288,1.288,0,0,0,2.576,0V239.442A1.288,1.288,0,0,0,214.622,238.154Z" transform="translate(-181.131 -202.204)"/>
          <path id="Trazado_169013" data-name="Trazado 169013" d="M247.467,239.443v10.305a1.288,1.288,0,0,0,2.576,0V239.443a1.288,1.288,0,1,0-2.576,0Z" transform="translate(-210.111 -202.205)"/>
          <path id="Trazado_169014" data-name="Trazado 169014" d="M282.888,251.036a1.288,1.288,0,0,0,1.288-1.288V239.443a1.288,1.288,0,1,0-2.576,0v10.305A1.288,1.288,0,0,0,282.888,251.036Z" transform="translate(-239.091 -202.205)"/>
          <path id="Trazado_169015" data-name="Trazado 169015" d="M317.022,251.036a1.288,1.288,0,0,0,1.288-1.288V239.443a1.288,1.288,0,0,0-2.576,0v10.305A1.288,1.288,0,0,0,317.022,251.036Z" transform="translate(-268.073 -202.205)"/>
          <path id="Trazado_169016" data-name="Trazado 169016" d="M74.712,0H2.576A2.579,2.579,0,0,0,0,2.576v7.729a2.568,2.568,0,0,0,1.288,2.218v60.9a3.869,3.869,0,0,0,3.864,3.864H72.136A3.869,3.869,0,0,0,76,73.424v-60.9a2.568,2.568,0,0,0,1.288-2.218V2.576A2.579,2.579,0,0,0,74.712,0Zm0,10.305H48.949V2.576H74.712Zm-29.629,6.61-1.862-1.241a1.29,1.29,0,0,0-1.429,0l-3.15,2.1-3.15-2.1a1.29,1.29,0,0,0-1.429,0L32.2,16.915V12.881H45.085v4.034ZM46.373,2.576v7.729H30.915V2.576Zm-43.8,0H28.339v7.729H2.576ZM73.424,73.424a1.29,1.29,0,0,1-1.288,1.288H5.152a1.29,1.29,0,0,1-1.288-1.288V12.881H29.627v6.441c0,.041.019.075.023.115a1.365,1.365,0,0,0,.149.492c.019.035.022.074.044.108s.061.054.087.087a1.257,1.257,0,0,0,.185.184,1.185,1.185,0,0,0,.423.226,1.259,1.259,0,0,0,.254.051,1.2,1.2,0,0,0,.122.025c.041,0,.076-.02.116-.024a1.371,1.371,0,0,0,.49-.149c.035-.019.074-.022.108-.044l3.15-2.1,3.15,2.1a1.29,1.29,0,0,0,1.429,0l3.15-2.1,3.15,2.1.269.126a1.279,1.279,0,0,0,.445.09h0a1.288,1.288,0,0,0,.446-.09c.029-.011.057-.019.085-.032a1.27,1.27,0,0,0,.356-.24c.02-.02.036-.042.055-.063a1.263,1.263,0,0,0,.128-.148c.022-.034.025-.073.044-.108a1.365,1.365,0,0,0,.149-.492c0-.04.023-.074.023-.115V12.881H73.424Z"/>
          <path id="Trazado_169017" data-name="Trazado 169017" d="M48.776,392.963c-.012-.012-.028-.015-.04-.027a1.271,1.271,0,0,0-.378-.253h0c-.011,0-.023,0-.034-.008a1.279,1.279,0,0,0-.408-.08,1.215,1.215,0,0,0-.127.007,1.316,1.316,0,0,0-.831.362l-3.864,3.864a1.288,1.288,0,0,0,1.821,1.821l1.666-1.666v7.2a1.288,1.288,0,1,0,2.576,0v-7.2l1.666,1.666a1.288,1.288,0,1,0,1.821-1.822Z" transform="translate(-36.272 -333.331)"/>
          <path id="Trazado_169018" data-name="Trazado 169018" d="M125.559,392.962c-.012-.012-.028-.015-.04-.026a1.27,1.27,0,0,0-.378-.253h0c-.011,0-.023,0-.034-.008a1.275,1.275,0,0,0-.408-.08,1.244,1.244,0,0,0-.126.006,1.271,1.271,0,0,0-.325.063,1.21,1.21,0,0,0-.122.044,1.277,1.277,0,0,0-.384.255l-3.864,3.864a1.288,1.288,0,0,0,1.822,1.821l1.666-1.665v7.2a1.288,1.288,0,0,0,2.576,0v-7.2l1.666,1.666a1.288,1.288,0,1,0,1.821-1.822Z" transform="translate(-101.462 -333.331)"/>
        </g>
      </g>
      <rect id="Rectángulo_36673" data-name="Rectángulo 36673" width="42" height="42" fill="#ba68c8"/>
      <rect id="Rectángulo_36674" data-name="Rectángulo 36674" width="42" height="42" transform="translate(148 208)" fill="#64b5f6"/>
    </g>
  </g>
</svg>
