<svg xmlns="http://www.w3.org/2000/svg" width="83.545" height="90" viewBox="0 0 83.545 90">
  <g id="almacen" transform="translate(-18.361 0)">
    <path id="Trazado_168763" data-name="Trazado 168763" d="M108.945,23.208,77.582,47.87v47.9h62.725V47.87Z" transform="translate(-48.811 -19.129)" fill="#408ecc"/>
    <g id="Grupo_110181" data-name="Grupo 110181" transform="translate(23.721 1.321)">
      <path id="Trazado_168765" data-name="Trazado 168765" d="M118.918,39.5a2.745,2.745,0,0,1-1.7-.59L85.265,13.785,53.315,38.908a2.758,2.758,0,0,1-3.409-4.336L83.561,8.108a2.757,2.757,0,0,1,3.409,0l33.655,26.464a2.758,2.758,0,0,1-1.706,4.926Z" transform="translate(-48.853 -7.518)" fill="#5c22c3"/>
    </g>
    <path id="Trazado_168767" data-name="Trazado 168767" d="M25.861,436.018h80.908v12.037H25.861Z" transform="translate(-6.182 -359.374)" fill="#64b5f6"/>
    <path id="Trazado_168768" data-name="Trazado 168768" d="M468.833,436.018h3.041v12.037h-3.041Z" transform="translate(-371.287 -359.374)" fill="#64b5f6"/>
    <path id="Trazado_168769" data-name="Trazado 168769" d="M169.126,245.9h-47.1V207.159a1.8,1.8,0,0,1,1.8-1.8h43.492a1.8,1.8,0,0,1,1.8,1.8Z" transform="translate(-85.443 -169.257)" fill="#2c0b67"/>
    <path id="Trazado_168771" data-name="Trazado 168771" d="M438.769,260.907h-4.356V223.56h1.452a2.9,2.9,0,0,1,2.9,2.9v34.443Z" transform="translate(-342.917 -184.262)" fill="#dddaec"/>
    <g id="Grupo_110183" data-name="Grupo 110183" transform="translate(24.415 39.298)">
      <path id="Trazado_168772" data-name="Trazado 168772" d="M52.8,260.907h4.356V223.56H55.706a2.9,2.9,0,0,0-2.9,2.9v34.443Z" transform="translate(-52.802 -223.56)" fill="#dddaec"/>
    </g>
    <g id="Grupo_110184" data-name="Grupo 110184" transform="translate(72.332 65.292)">
      <path id="Trazado_168773" data-name="Trazado 168773" d="M325.391,371.44h11.352v11.352H325.391Z" transform="translate(-325.391 -371.44)" fill="#daa857"/>
      <path id="Trazado_168774" data-name="Trazado 168774" d="M374.784,371.44h2.669v11.352h-2.669Z" transform="translate(-366.102 -371.44)" fill="#daa857"/>
    </g>
    <g id="Grupo_110185" data-name="Grupo 110185" transform="translate(60.98 65.292)">
      <path id="Trazado_168775" data-name="Trazado 168775" d="M260.813,371.44h11.352v11.352H260.813Z" transform="translate(-260.813 -371.44)" fill="#daa857"/>
      <path id="Trazado_168776" data-name="Trazado 168776" d="M310.206,371.44h2.669v11.352h-2.669Z" transform="translate(-301.524 -371.44)" fill="#daa857"/>
    </g>
    <g id="Grupo_110186" data-name="Grupo 110186" transform="translate(66.656 53.941)">
      <path id="Trazado_168777" data-name="Trazado 168777" d="M293.1,306.862h11.352v11.352H293.1Z" transform="translate(-293.102 -306.862)" fill="#daa857"/>
      <path id="Trazado_168778" data-name="Trazado 168778" d="M342.495,306.862h2.669v11.352h-2.669Z" transform="translate(-333.813 -306.862)" fill="#daa857"/>
    </g>
    <g id="Grupo_110187" data-name="Grupo 110187" transform="translate(55.304 53.941)">
      <path id="Trazado_168779" data-name="Trazado 168779" d="M228.524,306.862h11.352v11.352H228.524Z" transform="translate(-228.524 -306.862)" fill="#daa857"/>
      <path id="Trazado_168780" data-name="Trazado 168780" d="M277.917,306.862h2.669v11.352h-2.669Z" transform="translate(-269.235 -306.862)" fill="#daa857"/>
    </g>
    <g id="Grupo_110188" data-name="Grupo 110188" transform="translate(49.628 65.292)">
      <path id="Trazado_168781" data-name="Trazado 168781" d="M196.235,371.44h11.352v11.352H196.235Z" transform="translate(-196.235 -371.44)" fill="#daa857"/>
      <path id="Trazado_168782" data-name="Trazado 168782" d="M245.628,371.44H248.3v11.352h-2.669Z" transform="translate(-236.946 -371.44)" fill="#daa857"/>
    </g>
    <g id="Grupo_110191" data-name="Grupo 110191" transform="translate(55.061 17.599)">
      <g id="Grupo_110190" data-name="Grupo 110190">
        <g id="Grupo_110189" data-name="Grupo 110189">
          <path id="Trazado_168783" data-name="Trazado 168783" d="M227.971,112.588l-.831-.854L232.2,106.8l-5.064-4.929.831-.854a2.984,2.984,0,0,1,4.22-.057l4.438,4.32a2.139,2.139,0,0,1,.527.793,2.092,2.092,0,0,1-.5,2.223l-4.463,4.344A2.984,2.984,0,0,1,227.971,112.588Z" transform="translate(-227.14 -100.118)" fill="#fff505"/>
        </g>
      </g>
    </g>
    <g id="Grupo_110192" data-name="Grupo 110192" transform="translate(18.361 0)">
      <path id="Trazado_168784" data-name="Trazado 168784" d="M220.013,106.475l.831.854a4.3,4.3,0,0,0,6.084.082l4.463-4.344a3.409,3.409,0,0,0-.025-4.906l-4.438-4.32a4.3,4.3,0,0,0-6.084.082l-.831.854a1.318,1.318,0,0,0,.025,1.864l4.094,3.985-4.094,3.985A1.318,1.318,0,0,0,220.013,106.475Zm6.929-4.9a1.318,1.318,0,0,0,0-1.889l-4.116-4.007a1.668,1.668,0,0,1,2.264.055l4.439,4.32a.77.77,0,0,1,.025,1.127l-4.463,4.344a1.668,1.668,0,0,1-2.264.056Z" transform="translate(-184.258 -76.341)"/>
      <path id="Trazado_168785" data-name="Trazado 168785" d="M100.588,75.326H97.17V54.381a1.318,1.318,0,1,0-2.637,0V75.326H92.814V40.616h.134A1.588,1.588,0,0,1,94.534,42.2V49.11a1.318,1.318,0,0,0,2.637,0V42.2a4.227,4.227,0,0,0-4.222-4.222h-.134V34.5a4.075,4.075,0,0,0,3.493-7.161L62.653.875a4.064,4.064,0,0,0-5.039,0L44,11.579a1.318,1.318,0,1,0,1.63,2.073l13.613-10.7a1.435,1.435,0,0,1,1.779,0L94.678,29.412a1.44,1.44,0,0,1-1.78,2.263L60.948,6.551a1.318,1.318,0,0,0-1.63,0L27.369,31.675a1.439,1.439,0,1,1-1.779-2.263L41.458,16.933a1.318,1.318,0,0,0-1.63-2.073L23.96,27.339A4.077,4.077,0,0,0,27.453,34.5v3.477h-.133A4.227,4.227,0,0,0,23.1,42.2V75.326H19.679a1.318,1.318,0,0,0-1.318,1.318V88.681A1.318,1.318,0,0,0,19.679,90H37.357a1.318,1.318,0,1,0,0-2.637H21v-9.4H99.269v9.4H42.629a1.318,1.318,0,0,0,0,2.637h57.959a1.318,1.318,0,0,0,1.318-1.318V76.644a1.318,1.318,0,0,0-1.318-1.318ZM25.734,42.2a1.587,1.587,0,0,1,1.586-1.586h.133v34.71H25.734V42.2Zm4.356-9.312L60.133,9.265,90.178,32.89V75.326H85V37.9a3.126,3.126,0,0,0-3.122-3.122H38.387A3.126,3.126,0,0,0,35.265,37.9V75.326H30.089ZM37.9,37.9a.486.486,0,0,1,.486-.485H58.815v1.627H57.678a1.318,1.318,0,1,0,0,2.637h4.911a1.318,1.318,0,0,0,0-2.637H61.452V37.416H81.88a.486.486,0,0,1,.485.485V63.974H79.326V53.941a1.318,1.318,0,0,0-1.318-1.318H55.3a1.318,1.318,0,0,0-1.318,1.318V63.974H49.628a1.318,1.318,0,0,0-1.318,1.318V75.326H37.9ZM67.974,63.974V55.259h3.039v.78a1.318,1.318,0,1,0,2.637,0v-.78h3.039v8.715Zm-11.352,0V55.259h3.039v.78a1.318,1.318,0,0,0,2.637,0v-.78h3.039v8.715Zm-5.676,2.637h3.039v.78a1.318,1.318,0,1,0,2.637,0v-.78h3.039v8.715H50.947Zm11.352,0h3.039v.78a1.318,1.318,0,0,0,2.637,0v-.78h3.039v8.715H62.3ZM73.65,75.326V66.611h3.039v.78a1.318,1.318,0,0,0,2.637,0v-.78h3.039v8.715Z" transform="translate(-18.361 0)"/>
      <path id="Trazado_168786" data-name="Trazado 168786" d="M180.45,465.6a1.318,1.318,0,0,0,0-2.637H142.841a1.318,1.318,0,0,0,0,2.637Z" transform="translate(-119.873 -381.579)"/>
    </g>
  </g>
</svg>
