<svg xmlns="http://www.w3.org/2000/svg" width="90" height="72.863" viewBox="0 0 90 72.863">
  <g id="madera" transform="translate(0 -48.746)">
    <g id="Grupo_110523" data-name="Grupo 110523" transform="translate(1.761 50.585)">
      <path id="Trazado_169351" data-name="Trazado 169351" d="M70.74,281.313v16.522a56.281,56.281,0,0,1-60.721,0V275.477s1.849,12.871,29.912,12.871c20.665,0,30.809-7.035,30.809-7.035" transform="translate(-10.019 -237.461)" fill="#d2a182"/>
      <path id="Trazado_169352" data-name="Trazado 169352" d="M36.053,212.9l-.277-9.822c-14.583.94-25.756,6.279-25.756,12.726,0,7.108,13.593,12.871,30.36,12.871,11.645,0,21.76-2.78,26.853-6.858-19.666.925-31.179-8.917-31.179-8.917Z" transform="translate(-10.02 -177.792)" fill="#ffe7b1"/>
      <path id="Trazado_169353" data-name="Trazado 169353" d="M217.265,131.979v22.358a56.819,56.819,0,0,1-25.757,8.7c-1.132.092-2.29.154-3.477.177H188a55.737,55.737,0,0,1-14.033-1.513,57.081,57.081,0,0,1-17.423-7.367V131.979s2.042,12.873,30.361,12.873C215.181,144.852,217.265,131.979,217.265,131.979Z" transform="translate(-130.788 -119.188)" fill="#d2a182"/>
      <path id="Trazado_169354" data-name="Trazado 169354" d="M194.852,59.574c12.923,1.39,22.413,6.484,22.413,12.427,0,7.11-13.593,12.873-30.361,12.873S156.544,79.111,156.544,72c0-5.937,9.479-10.935,22.369-12.422A89.64,89.64,0,0,1,194.852,59.574Z" transform="translate(-130.788 -59.21)" fill="#ffe7b1"/>
    </g>
    <g id="Grupo_110524" data-name="Grupo 110524" transform="translate(0 48.746)">
      <path id="Trazado_169355" data-name="Trazado 169355" d="M82.719,56.017a46.552,46.552,0,0,0-16.692-4.744,1.761,1.761,0,0,0-.4,3.5c11.888,1.364,20.852,5.954,20.852,10.677,0,2.648-2.85,5.374-7.819,7.481-5.522,2.341-12.9,3.631-20.781,3.631S42.62,75.273,37.1,72.931c-4.969-2.107-7.819-4.834-7.819-7.481,0-2.168,1.93-4.418,5.434-6.335,3.831-2.1,9.291-3.636,15.375-4.338a1.761,1.761,0,1,0-.4-3.5,46.473,46.473,0,0,0-16.661,4.747c-4.754,2.6-7.267,5.859-7.267,9.425V76.318A50.822,50.822,0,0,0,8.4,80.665C2.982,83.313,0,86.868,0,90.675v22.358a1.761,1.761,0,0,0,.814,1.485,61.431,61.431,0,0,0,31.9,9.162c.377,0-.382.008,0,0a60.549,60.549,0,0,0,30.715-9.162,1.761,1.761,0,0,0,.813-1.484V98.107a58.542,58.542,0,0,0,24.944-8.815A1.761,1.761,0,0,0,90,87.808V65.45c0-3.569-2.518-6.831-7.281-9.433ZM36.618,94.4c-1.461.083-2.965.126-4.5.126a63.318,63.318,0,0,1-14.062-1.417c-3.989-.951-5.375-2.034-5.624-2.43.21-.325,1.258-1.2,4.164-2.047a48.252,48.252,0,0,1,9.158-1.545v.725a1.761,1.761,0,0,0,.813,1.484A58.388,58.388,0,0,0,36.618,94.4ZM9.945,83.829a46.936,46.936,0,0,1,15.812-3.975v3.7c-5.5.445-16.869,1.988-16.869,7.125,0,5.818,14.6,7.37,23.234,7.37A71.106,71.106,0,0,0,44.9,96.973a57.729,57.729,0,0,0,7.858,1.256c-5.352,2.246-12.723,3.555-20.64,3.555-7.878,0-15.258-1.289-20.78-3.63-4.969-2.107-7.819-4.833-7.819-7.479C3.523,88.286,5.8,85.855,9.945,83.829Zm45.411,31.123v-6.286a1.761,1.761,0,1,0-3.523,0v7.8a54.252,54.252,0,0,1-17.95,3.667v-9.114a1.761,1.761,0,0,0-3.523,0v9.112a54.781,54.781,0,0,1-17.95-3.7v-7.766a1.761,1.761,0,1,0-3.523,0v6.263a54.8,54.8,0,0,1-5.365-2.874V97.511A23.376,23.376,0,0,0,9.966,101.4a46.368,46.368,0,0,0,9.223,2.722v7.5a1.761,1.761,0,0,0,3.523,0v-6.929a71.139,71.139,0,0,0,9.409.613,70.686,70.686,0,0,0,9.3-.606v6.922a1.761,1.761,0,1,0,3.523,0V104.13c6.045-1.161,11.209-3.132,14.648-5.7q.561-.017,1.129-.044v13.667a55.211,55.211,0,0,1-5.365,2.9ZM81.112,89.726V83.443a1.761,1.761,0,0,0-3.523,0v7.792a54.471,54.471,0,0,1-15.25,3.52c-.909.074-1.813.125-2.7.153V85.793a1.761,1.761,0,1,0-3.523,0v9.113a54.163,54.163,0,0,1-10.768-1.445,55.452,55.452,0,0,1-7.182-2.24V83.443a1.761,1.761,0,0,0-3.523,0v6.272a54.288,54.288,0,0,1-5.365-2.882V72.288a23.377,23.377,0,0,0,6.444,3.887A46.342,46.342,0,0,0,44.945,78.9v7.5a1.761,1.761,0,1,0,3.523,0V79.472a71.109,71.109,0,0,0,9.409.613,71.208,71.208,0,0,0,9.3-.6V86.4a1.761,1.761,0,0,0,3.523,0V78.919a46.478,46.478,0,0,0,9.333-2.744,23.376,23.376,0,0,0,6.444-3.887V86.833A55.022,55.022,0,0,1,81.112,89.726Z" transform="translate(0 -50.819)"/>
      <path id="Trazado_169356" data-name="Trazado 169356" d="M197.085,97.415c0,5.819,14.6,7.371,23.234,7.371s23.234-1.553,23.234-7.371-14.6-7.371-23.234-7.371S197.085,91.6,197.085,97.415Zm42.922,0c-.248.4-1.632,1.479-5.624,2.431a70.468,70.468,0,0,1-28.128,0c-3.992-.952-5.376-2.036-5.624-2.431.248-.4,1.632-1.479,5.624-2.431a70.468,70.468,0,0,1,28.128,0C238.375,95.936,239.759,97.02,240.007,97.415Z" transform="translate(-162.441 -82.785)"/>
      <circle id="Elipse_5819" data-name="Elipse 5819" cx="1.758" cy="1.758" r="1.758" transform="translate(56.12 0)"/>
    </g>
  </g>
</svg>
