<svg xmlns="http://www.w3.org/2000/svg" width="90" height="85.987" viewBox="0 0 90 85.987">
  <g id="Filledoutline" transform="translate(-10.343 -32)">
    <path id="Trazado_169640" data-name="Trazado 169640" d="M224,64h47.441V86.238H224Z" transform="translate(-174.063 -26.07)" fill="#daa857"/>
    <path id="Trazado_169642" data-name="Trazado 169642" d="M216,40h50.406v5.93H216Z" transform="translate(-167.545 -6.517)" fill="#daa857"/>
    <path id="Trazado_169643" data-name="Trazado 169643" d="M304,40h17.79V56.308H304Z" transform="translate(-239.238 -6.517)" fill="#91489d"/>
    <path id="Trazado_169645" data-name="Trazado 169645" d="M224,208h47.441v22.238H224Z" transform="translate(-174.063 -143.384)" fill="#daa857"/>
    <path id="Trazado_169647" data-name="Trazado 169647" d="M216,184h50.406v5.93H216Z" transform="translate(-167.545 -123.832)" fill="#daa857"/>
    <path id="Trazado_169648" data-name="Trazado 169648" d="M304,184h17.79v16.308H304Z" transform="translate(-239.238 -123.832)" fill="#fff505"/>
    <path id="Trazado_169650" data-name="Trazado 169650" d="M224,352h47.441v22.238H224Z" transform="translate(-174.063 -260.699)" fill="#daa857"/>
    <path id="Trazado_169652" data-name="Trazado 169652" d="M216,328h50.406v5.93H216Z" transform="translate(-167.545 -241.146)" fill="#daa857"/>
    <path id="Trazado_169653" data-name="Trazado 169653" d="M304,328h17.79v16.308H304Z" transform="translate(-239.238 -241.146)" fill="#64b5f6"/>
    <path id="Trazado_169655" data-name="Trazado 169655" d="M88,184h41.511v56.336H88Z" transform="translate(-63.266 -123.832)" fill="#f6f6f6"/>
    <path id="Trazado_169656" data-name="Trazado 169656" d="M16,324.755l2.965-2.965V308.448A4.448,4.448,0,0,1,23.413,304h5.93v5.93l3.706-3.706a3.145,3.145,0,1,1,4.448,4.448l-6.671,6.671a8.386,8.386,0,0,1,0,11.86l-7.413,7.413Z" transform="translate(-4.609 -221.594)" fill="#f7c9a8"/>
    <path id="Trazado_169657" data-name="Trazado 169657" d="M66.245,176H24.734a1.483,1.483,0,0,0-1.483,1.483v20.755H18.8a5.937,5.937,0,0,0-5.93,5.93V216.9l-2.531,2.531,2.1,2.1,2.965-2.965a1.483,1.483,0,0,0,.434-1.048V204.168A2.969,2.969,0,0,1,18.8,201.2h4.448v3.833l-2.531,2.531,2.1,2.1,6.671-6.671a1.662,1.662,0,0,1,2.351,2.351l-6.671,6.671a1.483,1.483,0,0,0,0,2.1,6.9,6.9,0,0,1,0,9.764l-7.413,7.413,2.1,2.1,3.4-3.4v3.833a1.483,1.483,0,0,0,1.483,1.483H66.245a1.483,1.483,0,0,0,1.483-1.483V177.483A1.483,1.483,0,0,0,66.245,176Zm-1.483,56.336H26.217V227.02l1.048-1.048a9.874,9.874,0,0,0,.971-12.831l5.7-5.7a4.627,4.627,0,1,0-6.544-6.544l-1.175,1.175V178.965H64.762Z" transform="translate(0 -117.314)"/>
    <path id="Trazado_169658" data-name="Trazado 169658" d="M261.371,39.413v-5.93A1.483,1.483,0,0,0,259.888,32H209.483A1.483,1.483,0,0,0,208,33.483v5.93a1.483,1.483,0,0,0,1.483,1.483v8.9h2.965V40.9h11.86v8.9a1.483,1.483,0,0,0,1.483,1.483h17.79a1.483,1.483,0,0,0,1.483-1.483V40.9h11.86v17.79h-25.2v2.965H242.1v2.965H231.72v2.965H242.1v7.413H231.72v2.965h11.86a1.483,1.483,0,0,0,1.483-1.483v-8.9h11.86v17.79h-25.2v2.965H242.1V91.3H231.72v2.965H242.1v7.413H231.72v2.965h11.86a1.483,1.483,0,0,0,1.483-1.483v-8.9h11.86v17.79h-25.2v2.965h26.685a1.483,1.483,0,0,0,1.483-1.483V94.266a1.483,1.483,0,0,0,1.483-1.483v-5.93a1.483,1.483,0,0,0-1.483-1.483V67.581a1.483,1.483,0,0,0,1.483-1.483v-5.93a1.483,1.483,0,0,0-1.483-1.483V40.9A1.483,1.483,0,0,0,261.371,39.413ZM245.063,88.336h13.343V91.3H245.063Zm0-26.686h13.343v2.965H245.063ZM242.1,34.965V37.93H227.273V34.965ZM210.965,37.93V34.965h13.343V37.93ZM242.1,48.308H227.273V40.9H242.1Zm2.965-13.343h13.343V37.93H245.063Z" transform="translate(-161.028)"/>
    <path id="Trazado_169659" data-name="Trazado 169659" d="M440,432h2.965v2.965H440Z" transform="translate(-350.035 -325.874)"/>
    <path id="Trazado_169660" data-name="Trazado 169660" d="M440,288h2.965v2.965H440Z" transform="translate(-350.035 -208.559)"/>
    <path id="Trazado_169661" data-name="Trazado 169661" d="M440,144h2.965v2.965H440Z" transform="translate(-350.035 -91.245)"/>
    <path id="Trazado_169665" data-name="Trazado 169665" d="M160,336h2.965v2.965H160Z" transform="translate(-121.923 -250.631)"/>
    <path id="Trazado_169673" data-name="Trazado 169673" d="M160,336h2.965v2.965H160Z" transform="translate(-121.923 -265.455)"/>
    <path id="Trazado_169666" data-name="Trazado 169666" d="M192,336h16.308v2.965H192Z" transform="translate(-147.993 -250.631)"/>
    <path id="Trazado_169672" data-name="Trazado 169672" d="M192,336h16.308v2.965H192Z" transform="translate(-147.993 -265.455)"/>
    <path id="Trazado_169667" data-name="Trazado 169667" d="M136,368h26.686v2.965H136Z" transform="translate(-102.371 -276.701)"/>
    <path id="Trazado_169674" data-name="Trazado 169674" d="M136,368h26.686v2.965H136Z" transform="translate(-102.371 -291.525)"/>
    <path id="Trazado_169668" data-name="Trazado 169668" d="M136,400h26.686v2.965H136Z" transform="translate(-102.371 -302.771)"/>
    <path id="Trazado_169669" data-name="Trazado 169669" d="M136,432h22.238v2.965H136Z" transform="translate(-102.371 -328.84)"/>
    <path id="Trazado_169670" data-name="Trazado 169670" d="M112,144h26.686v2.965H112Z" transform="translate(-82.818 -91.245)"/>
    <path id="Trazado_169671" data-name="Trazado 169671" d="M272,144h2.965v2.965H272Z" transform="translate(-213.168 -91.245)"/>
  </g>
</svg>
