<svg id="supply-chain" xmlns="http://www.w3.org/2000/svg" width="100" height="111.919" viewBox="0 0 100 111.919">
  <g id="Grupo_110453" data-name="Grupo 110453" transform="translate(8.197 11.561)">
    <path id="Trazado_169184" data-name="Trazado 169184" d="M417.236,181h6.558v32.789h-6.558Z" transform="translate(-340.188 -152.998)" fill="#64b5f6"/>
    <path id="Trazado_169185" data-name="Trazado 169185" d="M0,0H6.558V32.789H0Z" transform="matrix(0.5, -0.866, 0.866, 0.5, 45.228, 5.68)" fill="#64b5f6"/>
    <path id="Trazado_169186" data-name="Trazado 169186" d="M0,0H6.558V32.789H0Z" transform="matrix(-0.5, -0.866, 0.866, -0.5, 9.983, 22.073)" fill="#64b5f6"/>
    <path id="Trazado_169187" data-name="Trazado 169187" d="M0,0H6.558V32.789H0Z" transform="translate(6.558 60.793) rotate(180)" fill="#64b5f6"/>
    <path id="Trazado_169188" data-name="Trazado 169188" d="M0,0H6.558V32.789H0Z" transform="matrix(-0.5, 0.866, -0.866, -0.5, 38.38, 83.118)" fill="#64b5f6"/>
    <path id="Trazado_169189" data-name="Trazado 169189" d="M0,0H6.558V32.789H0Z" transform="matrix(0.5, 0.866, -0.866, 0.5, 73.625, 66.723)" fill="#64b5f6"/>
  </g>
  <path id="Trazado_169190" data-name="Trazado 169190" d="M256,7.5V27.173A9.837,9.837,0,0,0,256,7.5Z" transform="translate(-206 -5.861)" fill="#ba68c8"/>
  <path id="Trazado_169191" data-name="Trazado 169191" d="M224.116,17.337c0-5.433-1.468-9.837-3.279-9.837a9.837,9.837,0,1,0,0,19.673C222.648,27.173,224.116,22.769,224.116,17.337Z" transform="translate(-170.837 -5.861)" fill="#ba68c8"/>
  <path id="Trazado_169192" data-name="Trazado 169192" d="M79.764,109.25v19.673a9.837,9.837,0,1,0,0-19.673Z" transform="translate(-68.288 -85.369)" fill="#ba68c8"/>
  <path id="Trazado_169193" data-name="Trazado 169193" d="M47.88,119.087c0-5.433-1.468-9.837-3.279-9.837a9.837,9.837,0,1,0,0,19.673C46.411,128.923,47.88,124.519,47.88,119.087Z" transform="translate(-33.125 -85.369)" fill="#ba68c8"/>
  <path id="Trazado_169194" data-name="Trazado 169194" d="M432.236,109.25v19.673a9.837,9.837,0,0,0,0-19.673Z" transform="translate(-343.712 -85.369)" fill="#ba68c8"/>
  <path id="Trazado_169195" data-name="Trazado 169195" d="M400.352,119.087c0-5.433-1.468-9.837-3.279-9.837a9.837,9.837,0,1,0,0,19.673C398.884,128.923,400.352,124.519,400.352,119.087Z" transform="translate(-308.549 -85.369)" fill="#ba68c8"/>
  <path id="Trazado_169196" data-name="Trazado 169196" d="M432.236,312.75v19.673a9.837,9.837,0,0,0,0-19.673Z" transform="translate(-343.712 -244.385)" fill="#ba68c8"/>
  <path id="Trazado_169197" data-name="Trazado 169197" d="M400.352,322.587c0-5.433-1.468-9.837-3.279-9.837a9.837,9.837,0,1,0,0,19.673C398.884,332.423,400.352,328.019,400.352,322.587Z" transform="translate(-308.549 -244.385)" fill="#ba68c8"/>
  <path id="Trazado_169198" data-name="Trazado 169198" d="M79.764,312.75v19.673a9.837,9.837,0,0,0,0-19.673Z" transform="translate(-68.288 -244.385)" fill="#ba68c8"/>
  <path id="Trazado_169199" data-name="Trazado 169199" d="M47.88,322.587c0-5.433-1.468-9.837-3.279-9.837a9.837,9.837,0,0,0,0,19.673C46.411,332.423,47.88,328.019,47.88,322.587Z" transform="translate(-33.125 -244.385)" fill="#ba68c8"/>
  <path id="Trazado_169200" data-name="Trazado 169200" d="M256,414.5v19.673a9.837,9.837,0,1,0,0-19.673Z" transform="translate(-206 -323.893)" fill="#ba68c8"/>
  <path id="Trazado_169201" data-name="Trazado 169201" d="M224.116,424.337c0-5.433-1.468-9.837-3.279-9.837a9.837,9.837,0,1,0,0,19.673C222.648,434.173,224.116,429.769,224.116,424.337Z" transform="translate(-170.837 -323.893)" fill="#ba68c8"/>
  <path id="Trazado_169202" data-name="Trazado 169202" d="M186.816,191.75l-17.767,42.134-24.325-14.045V191.75Z" transform="translate(-119.048 -149.835)" fill="#c99b50"/>
  <path id="Trazado_169203" data-name="Trazado 169203" d="M280.329,191.75v28.089l-6.558,3.786L256,191.75Z" transform="translate(-206.003 -149.835)" fill="#c99b50"/>
  <path id="Trazado_169204" data-name="Trazado 169204" d="M273.771,195.536v12.945l-3.279,3.786,3.279,3.786v7.572L256,233.884V191.75Z" transform="translate(-206.003 -149.835)" fill="#c99b50"/>
  <path id="Trazado_169205" data-name="Trazado 169205" d="M297.214,268.289,286,274.761v7.572l11.21-6.472Z" transform="translate(-229.445 -209.643)" fill="#ba68c8"/>
  <path id="Trazado_169206" data-name="Trazado 169206" d="M224.689,148.568H203.643l-3.279-14.047,12.162-7.021,24.325,14.045Z" transform="translate(-162.526 -99.629)" fill="#c99b50"/>
  <path id="Trazado_169207" data-name="Trazado 169207" d="M181.212,173.667l-12.162,7.021-24.325-14.045,12.162-7.023Z" transform="translate(-119.048 -124.728)" fill="#c99b50"/>
  <path id="Trazado_169208" data-name="Trazado 169208" d="M138.036,165.193l24.326,14.045a1.639,1.639,0,0,0,1.639,0l24.326-14.045a1.64,1.64,0,0,0,.82-1.42V135.684a1.64,1.64,0,0,0-.82-1.42L164,120.22a1.639,1.639,0,0,0-1.639,0l-24.326,14.045a1.64,1.64,0,0,0-.82,1.42v28.089A1.64,1.64,0,0,0,138.036,165.193Zm2.459-26.669,21.047,12.152v24.3l-21.047-12.152Zm22.686,9.312-21.047-12.152,8.884-5.129,21.047,12.152Zm1.639,27.143v-24.3l21.047-12.152v24.3Zm-1.639-51.446,21.047,12.152-8.884,5.129L154.3,128.662Z" transform="translate(-113.181 -93.769)"/>
  <path id="Trazado_169209" data-name="Trazado 169209" d="M292.169,261.008a1.639,1.639,0,0,0-1.639,0l-11.21,6.472a1.64,1.64,0,0,0-.82,1.42v7.572a1.639,1.639,0,0,0,2.459,1.42l11.21-6.472a1.64,1.64,0,0,0,.82-1.42v-7.572A1.64,1.64,0,0,0,292.169,261.008Zm-2.459,8.046-7.931,4.579v-3.786l7.931-4.579Z" transform="translate(-223.582 -203.782)"/>
  <path id="Trazado_169210" data-name="Trazado 169210" d="M120.706,67.835V44.084a11.473,11.473,0,1,0-11.433-19.807L88.7,12.4c.024-.3.04-.612.04-.923a11.476,11.476,0,1,0-22.952,0c0,.311.016.618.04.923L45.255,24.277A11.472,11.472,0,1,0,33.822,44.084V67.835A11.473,11.473,0,1,0,45.255,87.642L65.828,99.52c-.024.3-.04.612-.04.923a11.476,11.476,0,1,0,22.952,0c0-.311-.016-.618-.04-.923l20.574-11.878a11.472,11.472,0,1,0,11.433-19.807Zm-3.279-.991a11.361,11.361,0,0,0-3.279,0V45.075a11.361,11.361,0,0,0,3.279,0Zm6.558-33.126a8.2,8.2,0,1,1-8.2-8.2A8.206,8.206,0,0,1,123.985,33.718Zm-17.207-7.1a11.479,11.479,0,0,0-1.644,2.837L86.274,18.571a11.479,11.479,0,0,0,1.644-2.837ZM77.264,3.279a8.2,8.2,0,1,1-8.2,8.2A8.206,8.206,0,0,1,77.264,3.279ZM68.255,18.572,49.394,29.461a11.474,11.474,0,0,0-1.644-2.838L66.61,15.734a11.476,11.476,0,0,0,1.644,2.838ZM30.543,33.718a8.2,8.2,0,1,1,8.2,8.2A8.206,8.206,0,0,1,30.543,33.718ZM37.1,45.075a11.36,11.36,0,0,0,3.279,0v7.606a1.639,1.639,0,1,0,3.279,0v-8.6a11.49,11.49,0,0,0,6.558-10.367c0-.311-.016-.617-.04-.922L70.751,20.917a11.442,11.442,0,0,0,13.028,0l20.574,11.878c-.024.3-.04.612-.04.923a11.49,11.49,0,0,0,6.558,10.367V67.835A11.489,11.489,0,0,0,104.312,78.2c0,.311.016.618.04.923L83.778,91a11.443,11.443,0,0,0-13.029,0L50.176,79.125c.024-.3.04-.612.04-.923a11.49,11.49,0,0,0-6.558-10.367v-8.6a1.639,1.639,0,1,0-3.279,0v7.606a11.361,11.361,0,0,0-3.279,0ZM30.543,78.2a8.2,8.2,0,1,1,8.2,8.2A8.206,8.206,0,0,1,30.543,78.2ZM47.75,85.3a11.479,11.479,0,0,0,1.644-2.837l18.86,10.889a11.48,11.48,0,0,0-1.644,2.837Zm29.514,23.344a8.2,8.2,0,1,1,8.2-8.2A8.206,8.206,0,0,1,77.264,108.641Zm9.01-15.292,18.86-10.889a11.475,11.475,0,0,0,1.644,2.837L87.918,96.185A11.479,11.479,0,0,0,86.274,93.348Zm29.514-6.95a8.2,8.2,0,1,1,8.2-8.2A8.206,8.206,0,0,1,115.788,86.4Z" transform="translate(-27.264 0)"/>
  <path id="Trazado_169211" data-name="Trazado 169211" d="M138.036,165.193l24.326,14.045a1.639,1.639,0,0,0,1.639,0l24.326-14.045a1.64,1.64,0,0,0,.82-1.42V135.684a1.64,1.64,0,0,0-.82-1.42L164,120.22a1.639,1.639,0,0,0-1.639,0l-24.326,14.045a1.64,1.64,0,0,0-.82,1.42v28.089A1.64,1.64,0,0,0,138.036,165.193Zm2.459-26.669,21.047,12.152v24.3l-21.047-12.152Zm22.686,9.312-21.047-12.152,8.884-5.129,21.047,12.152Zm1.639,27.143v-24.3l21.047-12.152v24.3Zm-1.639-51.446,21.047,12.152-8.884,5.129L154.3,128.662Z" transform="translate(-113.181 -93.769)"/>
  <path id="Trazado_169212" data-name="Trazado 169212" d="M292.169,261.008a1.639,1.639,0,0,0-1.639,0l-11.21,6.472a1.64,1.64,0,0,0-.82,1.42v7.572a1.639,1.639,0,0,0,2.459,1.42l11.21-6.472a1.64,1.64,0,0,0,.82-1.42v-7.572A1.64,1.64,0,0,0,292.169,261.008Zm-2.459,8.046-7.931,4.579v-3.786l7.931-4.579Z" transform="translate(-223.582 -203.782)"/>
  <path id="Trazado_169213" data-name="Trazado 169213" d="M120.706,67.835V44.084a11.473,11.473,0,1,0-11.433-19.807L88.7,12.4c.024-.3.04-.612.04-.923a11.476,11.476,0,1,0-22.952,0c0,.311.016.618.04.923L45.255,24.277A11.472,11.472,0,1,0,33.822,44.084V67.835A11.473,11.473,0,1,0,45.255,87.642L65.828,99.52c-.024.3-.04.612-.04.923a11.476,11.476,0,1,0,22.952,0c0-.311-.016-.618-.04-.923l20.574-11.878a11.472,11.472,0,1,0,11.433-19.807Zm-3.279-.991a11.361,11.361,0,0,0-3.279,0V45.075a11.361,11.361,0,0,0,3.279,0Zm6.558-33.126a8.2,8.2,0,1,1-8.2-8.2A8.206,8.206,0,0,1,123.985,33.718Zm-17.207-7.1a11.479,11.479,0,0,0-1.644,2.837L86.274,18.571a11.479,11.479,0,0,0,1.644-2.837ZM77.264,3.279a8.2,8.2,0,1,1-8.2,8.2A8.206,8.206,0,0,1,77.264,3.279ZM68.255,18.572,49.394,29.461a11.474,11.474,0,0,0-1.644-2.838L66.61,15.734a11.476,11.476,0,0,0,1.644,2.838ZM30.543,33.718a8.2,8.2,0,1,1,8.2,8.2A8.206,8.206,0,0,1,30.543,33.718ZM37.1,45.075a11.36,11.36,0,0,0,3.279,0v7.606a1.639,1.639,0,1,0,3.279,0v-8.6a11.49,11.49,0,0,0,6.558-10.367c0-.311-.016-.617-.04-.922L70.751,20.917a11.442,11.442,0,0,0,13.028,0l20.574,11.878c-.024.3-.04.612-.04.923a11.49,11.49,0,0,0,6.558,10.367V67.835A11.489,11.489,0,0,0,104.312,78.2c0,.311.016.618.04.923L83.778,91a11.443,11.443,0,0,0-13.029,0L50.176,79.125c.024-.3.04-.612.04-.923a11.49,11.49,0,0,0-6.558-10.367v-8.6a1.639,1.639,0,1,0-3.279,0v7.606a11.361,11.361,0,0,0-3.279,0ZM30.543,78.2a8.2,8.2,0,1,1,8.2,8.2A8.206,8.206,0,0,1,30.543,78.2ZM47.75,85.3a11.479,11.479,0,0,0,1.644-2.837l18.86,10.889a11.48,11.48,0,0,0-1.644,2.837Zm29.514,23.344a8.2,8.2,0,1,1,8.2-8.2A8.206,8.206,0,0,1,77.264,108.641Zm9.01-15.292,18.86-10.889a11.475,11.475,0,0,0,1.644,2.837L87.918,96.185A11.479,11.479,0,0,0,86.274,93.348Zm29.514-6.95a8.2,8.2,0,1,1,8.2-8.2A8.206,8.206,0,0,1,115.788,86.4Z" transform="translate(-27.264 0)"/>
</svg>
