<svg xmlns="http://www.w3.org/2000/svg" width="90" height="90" viewBox="0 0 90 90">
  <g id="inventario-3" transform="translate(-1 -1)">
    <g id="Grupo_110438" data-name="Grupo 110438" transform="translate(2.452 2.452)">
      <g id="Grupo_110419" data-name="Grupo 110419" transform="translate(58.065 58.065)">
        <path id="Trazado_169137" data-name="Trazado 169137" d="M69.581,42H42V69.581a1.456,1.456,0,0,0,1.452,1.452H69.581a1.456,1.456,0,0,0,1.452-1.452V43.452A1.456,1.456,0,0,0,69.581,42Z" transform="translate(-42 -42)" fill="#d3a06c"/>
      </g>
      <g id="Grupo_110420" data-name="Grupo 110420" transform="translate(55.161 0)">
        <path id="Trazado_169138" data-name="Trazado 169138" d="M67.581,2H41.452A1.456,1.456,0,0,0,40,3.452V31.032H67.581a1.456,1.456,0,0,0,1.452-1.452V3.452A1.456,1.456,0,0,0,67.581,2Z" transform="translate(-40 -2)" fill="#d3a06c"/>
      </g>
      <g id="Grupo_110421" data-name="Grupo 110421" transform="translate(49.34 29.032)">
        <path id="Trazado_169139" data-name="Trazado 169139" d="M37.456,22A1.456,1.456,0,0,0,36,23.452V38.185l-.015.015a12.916,12.916,0,0,1,2.918,8.2v4.631H65.037V22Z" transform="translate(-35.99 -22)" fill="#d3a06c"/>
      </g>
      <g id="Grupo_110422" data-name="Grupo 110422" transform="translate(63.871 0)">
        <path id="Trazado_169140" data-name="Trazado 169140" d="M46,2H57.613v8.71H46Z" transform="translate(-46 -2)" fill="#91489d"/>
      </g>
      <g id="Grupo_110423" data-name="Grupo 110423" transform="translate(58.065 29.032)">
        <path id="Trazado_169141" data-name="Trazado 169141" d="M42,22H53.613v8.71H42Z" transform="translate(-42 -22)" fill="#408ecc"/>
      </g>
      <g id="Grupo_110424" data-name="Grupo 110424" transform="translate(66.774 58.065)">
        <path id="Trazado_169142" data-name="Trazado 169142" d="M48,42H59.613v8.71H48Z" transform="translate(-48 -42)" fill="#fff505"/>
      </g>
      <g id="Grupo_110425" data-name="Grupo 110425" transform="translate(8.71)">
        <path id="Trazado_169143" data-name="Trazado 169143" d="M31.226,13.613H19.613a5.8,5.8,0,0,0-5.806,5.806H12.355a4.366,4.366,0,0,0-2.99,1.19l-.726-2.177A12.489,12.489,0,0,1,20.484,2h9.871A12.489,12.489,0,0,1,42.2,18.432l-.726,2.177a4.366,4.366,0,0,0-2.99-1.19H37.032V17.968H32.677a4.957,4.957,0,0,1-1.452-3.5Z" transform="translate(-8 -2)" fill="#12263f"/>
      </g>
      <g id="Grupo_110426" data-name="Grupo 110426" transform="translate(14.516 55.161)">
        <path id="Trazado_169144" data-name="Trazado 169144" d="M35.226,63.226v8.71H12v-8.71h2.9a2.912,2.912,0,0,0,2.9-2.9h4.355a4.355,4.355,0,0,0,0-8.71H12V41.452A1.456,1.456,0,0,1,13.452,40h4.355v4.355a1.456,1.456,0,0,0,1.452,1.452h8.71a1.456,1.456,0,0,0,1.452-1.452V40h4.355a1.456,1.456,0,0,1,1.452,1.452V63.226Z" transform="translate(-12 -40)" fill="#ebf6ff"/>
      </g>
      <g id="Grupo_110427" data-name="Grupo 110427" transform="translate(37.742 78.387)">
        <path id="Trazado_169145" data-name="Trazado 169145" d="M28,56h5.806v8.71H28Z" transform="translate(-28 -56)" fill="#ba68c8"/>
      </g>
      <g id="Grupo_110428" data-name="Grupo 110428" transform="translate(8.71 78.387)">
        <path id="Trazado_169146" data-name="Trazado 169146" d="M8,56h5.806v8.71H8Z" transform="translate(-8 -56)" fill="#ba68c8"/>
      </g>
      <g id="Grupo_110429" data-name="Grupo 110429" transform="translate(0 39.789)">
        <path id="Trazado_169147" data-name="Trazado 169147" d="M2,59.3V43.055A13.056,13.056,0,0,1,13.221,30.121l4.95-.711,2.7,8.115,7.258-2.9,7.258,2.9,2.7-8.115,4.95.711A13.119,13.119,0,0,1,54.258,43.055V59.3a8.717,8.717,0,0,1-8.71,8.71H39.742V46.234a1.456,1.456,0,0,0-1.452-1.452H17.968a1.456,1.456,0,0,0-1.452,1.452V56.4h5.806v8.71a2.912,2.912,0,0,1-2.9,2.9H10.71A8.717,8.717,0,0,1,2,59.3Z" transform="translate(-2 -29.41)" fill="#ba68c8"/>
      </g>
      <g id="Grupo_110430" data-name="Grupo 110430" transform="translate(26.129 39.194)">
        <path id="Trazado_169148" data-name="Trazado 169148" d="M29.958,29.6l-2.7,8.115L20,34.806,25.806,29Z" transform="translate(-20 -29)" fill="#5c22c3"/>
      </g>
      <g id="Grupo_110431" data-name="Grupo 110431" transform="translate(16.171 39.194)">
        <path id="Trazado_169149" data-name="Trazado 169149" d="M23.1,34.806l-7.258,2.9L13.14,29.6l4.152-.6Z" transform="translate(-13.14 -29)" fill="#5c22c3"/>
      </g>
      <g id="Grupo_110432" data-name="Grupo 110432" transform="translate(20.323 55.161)">
        <path id="Trazado_169150" data-name="Trazado 169150" d="M27.613,40v4.355a1.456,1.456,0,0,1-1.452,1.452h-8.71A1.456,1.456,0,0,1,16,44.355V40Z" transform="translate(-16 -40)" fill="#fff505"/>
      </g>
      <g id="Grupo_110433" data-name="Grupo 110433" transform="translate(20.323 66.774)">
        <path id="Trazado_169151" data-name="Trazado 169151" d="M20.355,48a4.355,4.355,0,0,1,0,8.71H16V48Z" transform="translate(-16 -48)" fill="#f0d0b4"/>
      </g>
      <g id="Grupo_110434" data-name="Grupo 110434" transform="translate(20.323 33.939)">
        <path id="Trazado_169152" data-name="Trazado 169152" d="M26.292,25.38l1.321,5.255-5.806,5.806L16,30.635l1.321-5.255a11.627,11.627,0,0,0,8.971,0Z" transform="translate(-16 -25.38)" fill="#f0d0b4"/>
      </g>
      <g id="Grupo_110435" data-name="Grupo 110435" transform="translate(37.379 17.419)">
        <path id="Trazado_169153" data-name="Trazado 169153" d="M32.555,15.19a4.356,4.356,0,0,1-2.99,7.519H27.75a11.959,11.959,0,0,0,.363-2.9V14h1.452a4.366,4.366,0,0,1,2.99,1.19Z" transform="translate(-27.75 -14)" fill="#f0d0b4"/>
      </g>
      <g id="Grupo_110436" data-name="Grupo 110436" transform="translate(8.71 17.419)">
        <path id="Trazado_169154" data-name="Trazado 169154" d="M14.169,22.71H12.355a4.355,4.355,0,0,1,0-8.71h1.452v5.806A11.959,11.959,0,0,0,14.169,22.71Z" transform="translate(-8 -14)" fill="#f0d0b4"/>
      </g>
      <g id="Grupo_110437" data-name="Grupo 110437" transform="translate(14.516 11.613)">
        <path id="Trazado_169155" data-name="Trazado 169155" d="M30.871,14.355h4.355v7.258a11.96,11.96,0,0,1-.363,2.9,11.622,11.622,0,0,1-15.735,7.81,11.46,11.46,0,0,1-3.731-2.5,11.79,11.79,0,0,1-3.034-5.313,11.959,11.959,0,0,1-.363-2.9V15.806A5.8,5.8,0,0,1,17.806,10H29.419v.856a4.957,4.957,0,0,0,1.452,3.5Z" transform="translate(-12 -10)" fill="#f0d0b4"/>
      </g>
    </g>
    <g id="Grupo_110439" data-name="Grupo 110439" transform="translate(1 1)">
      <circle id="Elipse_5814" data-name="Elipse 5814" cx="1.5" cy="1.5" r="1.5" transform="translate(20 20)"/>
      <circle id="Elipse_5815" data-name="Elipse 5815" cx="1.5" cy="1.5" r="1.5" transform="translate(32 20)"/>
      <path id="Trazado_169156" data-name="Trazado 169156" d="M27.259,21.157l.152-.306-2.6-1.3-.152.308a3.246,3.246,0,0,1-5.806,0l-.152-.306-2.6,1.3.152.306a6.15,6.15,0,0,0,11,0Z" transform="translate(5.822 7.378)"/>
      <path id="Trazado_169157" data-name="Trazado 169157" d="M22.93,13.78A3.483,3.483,0,0,1,21.9,11.3V9H19v2.3a6.364,6.364,0,0,0,1.877,4.53Z" transform="translate(7.129 2.613)"/>
      <path id="Trazado_169158" data-name="Trazado 169158" d="M26.93,13.78A3.483,3.483,0,0,1,25.9,11.3V9H23v2.3a6.364,6.364,0,0,0,1.877,4.53Z" transform="translate(8.935 2.613)"/>
      <path id="Trazado_169159" data-name="Trazado 169159" d="M88.1,59.065H82.29V32.935h2.9a2.906,2.906,0,0,0,2.9-2.9V3.9a2.906,2.906,0,0,0-2.9-2.9H59.065a2.906,2.906,0,0,0-2.9,2.9V30.032h-2.9a2.906,2.906,0,0,0-2.9,2.9V44.3a14.375,14.375,0,0,0-6.657-2.8l-8.139-1.163-.791-3.166a13.126,13.126,0,0,0,6.117-7.148h.761a5.812,5.812,0,0,0,5.806-5.806,5.751,5.751,0,0,0-1.182-3.474l.467-1.4A13.943,13.943,0,0,0,33.51,1H23.65A13.944,13.944,0,0,0,10.424,19.35l.467,1.4A5.743,5.743,0,0,0,9.71,24.226a5.812,5.812,0,0,0,5.806,5.806h.762A13.12,13.12,0,0,0,22.4,37.18L21.6,40.346l-8.139,1.163A14.586,14.586,0,0,0,1,55.88V72.129A10.169,10.169,0,0,0,9.71,82.174V91H47.452V82.174a10.169,10.169,0,0,0,8.71-10.045V61.968h2.9V88.1a2.906,2.906,0,0,0,2.9,2.9H88.1A2.906,2.906,0,0,0,91,88.1V61.968A2.906,2.906,0,0,0,88.1,59.065ZM67.774,3.9h2.9V9.71h-2.9Zm5.806,0h2.9V9.71h-2.9Zm-14.516,0h5.806v8.71H79.387V3.9h5.806V30.032H59.065Zm2.9,29.032h2.9v5.806h-2.9Zm5.806,0h2.9v5.806h-2.9Zm-31.157,10.5-1.668,5.005-3.784-1.514L34.9,43.185Zm5.028-16.3H41.56a12.97,12.97,0,0,0,.086-1.452V21.323a2.9,2.9,0,0,1,0,5.806Zm-26.129,0a2.9,2.9,0,0,1,0-5.806v4.355a12.97,12.97,0,0,0,.086,1.452Zm2.9-1.452V19.871a4.36,4.36,0,0,1,4.355-4.355h1.452v-2.9H22.774a7.272,7.272,0,0,0-7.111,5.806h-.147a5.786,5.786,0,0,0-2.195.437l-.141-.424A11.036,11.036,0,0,1,23.651,3.9h9.861A11.034,11.034,0,0,1,43.981,18.431l-.142.425a5.773,5.773,0,0,0-2.193-.437V16.968h-2.9v8.71a10.161,10.161,0,0,1-20.323,0ZM28.581,38.742a13.011,13.011,0,0,0,3.465-.48L32.78,41.2l-4.2,4.2-4.2-4.2.735-2.938a13.011,13.011,0,0,0,3.465.48Zm-6.32,4.442L26,46.92l-3.784,1.514-1.668-5.005ZM12.613,82.29h2.9V88.1h-2.9ZM27.129,70.677a2.9,2.9,0,0,1,0,5.806h-2.9V70.677Zm-3.17,8.71h3.17a5.806,5.806,0,0,0,0-11.613h-8.71v-8.71h2.9v2.9a2.906,2.906,0,0,0,2.9,2.9h8.71a2.906,2.906,0,0,0,2.9-2.9v-2.9h2.9V88.1H18.419V82.29h1.452A4.349,4.349,0,0,0,23.959,79.387Zm.267-20.323h8.71v2.9h-8.71ZM41.645,88.1V82.29h2.9V88.1ZM53.258,72.129A7.266,7.266,0,0,1,46,79.387H41.645v-8.71h8.71v-2.9h-2.9V56.161h-2.9V67.774h-2.9v-8.71a2.906,2.906,0,0,0-2.9-2.9H18.419a2.906,2.906,0,0,0-2.9,2.9v8.71h-2.9V56.161H9.71V67.774h-2.9v2.9H21.323v7.258a1.452,1.452,0,0,1-1.452,1.452h-8.71A7.266,7.266,0,0,1,3.9,72.129V55.88a11.668,11.668,0,0,1,9.971-11.5l3.75-.536,2.807,8.427,8.149-3.26,8.148,3.259,2.807-8.427,3.75.536a11.67,11.67,0,0,1,9.973,11.5Zm2.9-13.065V55.88a14.449,14.449,0,0,0-2.9-8.66V32.935h5.806v8.71H73.581v-8.71h5.806V59.065Zm14.516,2.9h2.9v5.806h-2.9Zm5.806,0h2.9v5.806h-2.9ZM88.1,88.1H61.968V61.968h5.806v8.71H82.29v-8.71H88.1Z" transform="translate(-1 -1)"/>
    </g>
  </g>
</svg>
