<svg xmlns="http://www.w3.org/2000/svg" width="76.602" height="80" viewBox="0 0 76.602 80">
  <g id="barril-de-petroleo" transform="translate(-10.875)">
    <g id="Grupo_110528" data-name="Grupo 110528" transform="translate(12.048 1.17)">
      <path id="Trazado_169357" data-name="Trazado 169357" d="M47.4,36.521H112.59v68.586H47.4Z" transform="translate(-42.869 -31.985)" fill="gray"/>
      <path id="Trazado_169360" data-name="Trazado 169360" d="M88.1,446.44H22.914a4.535,4.535,0,0,0,0,9.071H88.1a4.535,4.535,0,0,0,0-9.071Z" transform="translate(-18.379 -377.853)" fill="#fff972"/>
      <path id="Trazado_169361" data-name="Trazado 169361" d="M40.127,454.177a4.514,4.514,0,0,0,3.206,1.329H22.914a4.535,4.535,0,0,1,0-9.071H43.333a4.535,4.535,0,0,0-3.206,7.742Z" transform="translate(-18.379 -377.848)" fill="#fff972"/>
      <path id="Trazado_169362" data-name="Trazado 169362" d="M88.1,7.5H22.914a4.535,4.535,0,1,0,0,9.071H88.1a4.535,4.535,0,0,0,0-9.071Z" transform="translate(-18.379 -7.495)" fill="#fff972"/>
      <path id="Trazado_169363" data-name="Trazado 169363" d="M40.127,15.232a4.514,4.514,0,0,0,3.206,1.329H22.914a4.535,4.535,0,0,1,0-9.071H43.333a4.535,4.535,0,0,0-3.206,7.742Z" transform="translate(-18.379 -7.49)" fill="#fff972"/>
      <g id="Grupo_110525" data-name="Grupo 110525" transform="translate(2.971 22.855)">
        <path id="Trazado_169364" data-name="Trazado 169364" d="M102.479,153.76H40.622a3.229,3.229,0,0,0,0,6.458h61.857a3.229,3.229,0,0,0,0-6.458Z" transform="translate(-37.393 -153.76)" fill="#fff972"/>
        <path id="Trazado_169365" data-name="Trazado 169365" d="M102.479,316.9H40.622a3.229,3.229,0,1,0,0,6.458h61.857a3.229,3.229,0,1,0,0-6.458Z" transform="translate(-37.393 -291.408)" fill="#fff972"/>
      </g>
      <g id="Grupo_110526" data-name="Grupo 110526" transform="translate(2.971 22.856)">
        <path id="Trazado_169366" data-name="Trazado 169366" d="M53.845,159.278a3.218,3.218,0,0,0,2.282.946h-15.5a3.229,3.229,0,1,1,0-6.457h15.5a3.229,3.229,0,0,0-2.282,5.512Z" transform="translate(-37.393 -153.766)" fill="#fff972"/>
        <path id="Trazado_169367" data-name="Trazado 169367" d="M53.845,322.417a3.218,3.218,0,0,0,2.282.946h-15.5a3.229,3.229,0,1,1,0-6.457h15.5a3.229,3.229,0,0,0-2.282,5.512Z" transform="translate(-37.393 -291.414)" fill="#fff972"/>
      </g>
      <circle id="Elipse_5820" data-name="Elipse 5820" cx="19.096" cy="19.096" r="19.096" transform="translate(18.033 19.734)" fill="#e9e9e9"/>
      <g id="Grupo_110527" data-name="Grupo 110527" transform="translate(26.57 26.085)">
        <path id="Trazado_169368" data-name="Trazado 169368" d="M206.451,181.895l-7.466-7.466-7.466,7.466a10.558,10.558,0,1,0,14.931,0Z" transform="translate(-188.426 -174.429)" fill="#2c0b67"/>
      </g>
    </g>
    <g id="Grupo_110529" data-name="Grupo 110529" transform="translate(10.875 0)">
      <path id="Trazado_169370" data-name="Trazado 169370" d="M82.941,68.707v-12.6a4.4,4.4,0,0,0,.275-6.472c-.088-.088-.181-.172-.275-.252V30.615a4.4,4.4,0,0,0,.275-6.472c-.088-.088-.181-.172-.275-.252v-12.6A5.707,5.707,0,0,0,81.769,0H80.442a1.172,1.172,0,0,0,0,2.344h1.327a3.363,3.363,0,0,1,.008,6.726h-65.2a3.363,3.363,0,0,1,.008-6.726H75.755a1.172,1.172,0,1,0,0-2.344H16.583a5.707,5.707,0,0,0-1.172,11.293v12.6a4.4,4.4,0,0,0-.276,6.473c.089.089.181.172.276.252V49.384a4.4,4.4,0,0,0-.276,6.473c.089.089.181.172.276.252v12.6A5.707,5.707,0,0,0,16.583,80H81.769a5.707,5.707,0,0,0,1.172-11.293ZM66.388,50.689H80.105a2.057,2.057,0,0,1,0,4.114H63a20.412,20.412,0,0,0,3.384-4.114ZM80.6,48.373a4.47,4.47,0,0,0-.492-.028H67.645a20.258,20.258,0,0,0,0-16.69h12.46a4.413,4.413,0,0,0,.492-.028ZM81.56,25.8a2.037,2.037,0,0,1,.6,1.453,2.059,2.059,0,0,1-2.056,2.058H66.389A20.419,20.419,0,0,0,63.005,25.2h17.1a2.043,2.043,0,0,1,1.455.6ZM17.755,11.414H80.6V22.882a4.47,4.47,0,0,0-.492-.028H59.971a20.226,20.226,0,0,0-21.591,0H18.248a4.427,4.427,0,0,0-.493.028V11.414Zm14.209,17.9H18.248a2.057,2.057,0,1,1,0-4.114h17.1a20.415,20.415,0,0,0-3.384,4.114ZM17.755,31.627a4.487,4.487,0,0,0,.493.028H30.707A20.149,20.149,0,0,0,28.908,40c0,.493.017.98.052,1.449a1.172,1.172,0,0,0,2.338-.17c-.03-.413-.045-.843-.045-1.279a17.9,17.9,0,1,1,.861,5.5,1.172,1.172,0,1,0-2.231.719,20.428,20.428,0,0,0,.818,2.122H18.248a4.427,4.427,0,0,0-.493.028V31.627ZM16.792,54.2a2.057,2.057,0,0,1,1.455-3.511h13.7a20.138,20.138,0,0,0,3.38,4.114H18.248A2.044,2.044,0,0,1,16.792,54.2Zm1.455,2.946h20.12a20.251,20.251,0,0,0,21.6,0H80.105a4.412,4.412,0,0,0,.492-.028V68.586H17.755V57.118a4.449,4.449,0,0,0,.493.028Zm63.521,20.51H16.583a3.363,3.363,0,0,1-.008-6.726h65.2a3.363,3.363,0,0,1-.008,6.726Z" transform="translate(-10.875 0)"/>
      <path id="Trazado_169371" data-name="Trazado 169371" d="M192.686,194.762a11.73,11.73,0,0,0,8.294-20.024l-7.466-7.466a1.172,1.172,0,0,0-1.657,0l-7.466,7.466a11.73,11.73,0,0,0,8.294,20.025Zm-6.637-18.367,6.637-6.637,6.637,6.637a9.386,9.386,0,1,1-13.274,0Z" transform="translate(-154.385 -140.845)"/>
    </g>
  </g>
</svg>
