<svg xmlns="http://www.w3.org/2000/svg" width="90" height="87.14" viewBox="0 0 90 87.14">
  <g id="calculadora" transform="translate(0.008 -1.009)">
    <g id="Grupo_110539" data-name="Grupo 110539" transform="translate(57.659 50.189)">
      <path id="Trazado_169511" data-name="Trazado 169511" d="M57.822,35.99A2.812,2.812,0,1,1,55.01,38.8,2.818,2.818,0,0,1,57.822,35.99Z" transform="translate(-35.327 -35.99)" fill="#ccd1d9"/>
      <path id="Trazado_169512" data-name="Trazado 169512" d="M50.822,35.99A2.812,2.812,0,1,1,48.01,38.8,2.818,2.818,0,0,1,50.822,35.99Z" transform="translate(-38.169 -35.99)" fill="#ccd1d9"/>
      <path id="Trazado_169513" data-name="Trazado 169513" d="M43.822,35.99A2.812,2.812,0,1,1,41.01,38.8,2.818,2.818,0,0,1,43.822,35.99Z" transform="translate(-41.01 -35.99)" fill="#ccd1d9"/>
      <path id="Trazado_169514" data-name="Trazado 169514" d="M43.822,49.99A2.812,2.812,0,1,1,41.01,52.8,2.818,2.818,0,0,1,43.822,49.99Z" transform="translate(-41.01 -30.307)" fill="#ccd1d9"/>
      <path id="Trazado_169515" data-name="Trazado 169515" d="M50.822,42.99A2.812,2.812,0,1,1,48.01,45.8,2.818,2.818,0,0,1,50.822,42.99Z" transform="translate(-38.169 -33.149)" fill="#ccd1d9"/>
    </g>
    <path id="Trazado_169516" data-name="Trazado 169516" d="M70.752,58.8a2.819,2.819,0,0,0,2.812-2.812v5.624a2.819,2.819,0,0,1-2.812,2.812H39.822a2.82,2.82,0,0,1-2.812-2.812V55.99A2.82,2.82,0,0,0,39.822,58.8Z" transform="translate(15.026 22.317)" fill="#545c66"/>
    <path id="Trazado_169517" data-name="Trazado 169517" d="M57.822,49.99A2.812,2.812,0,1,1,55.01,52.8,2.818,2.818,0,0,1,57.822,49.99Z" transform="translate(22.332 19.882)" fill="#ccd1d9"/>
    <path id="Trazado_169518" data-name="Trazado 169518" d="M57.822,42.99A2.812,2.812,0,1,1,55.01,45.8,2.818,2.818,0,0,1,57.822,42.99Z" transform="translate(22.332 17.04)" fill="#ccd1d9"/>
    <path id="Trazado_169519" data-name="Trazado 169519" d="M50.822,49.99A2.812,2.812,0,1,1,48.01,52.8,2.818,2.818,0,0,1,50.822,49.99Z" transform="translate(19.49 19.882)" fill="#ccd1d9"/>
    <path id="Trazado_169520" data-name="Trazado 169520" d="M45.445,46.484a2.812,2.812,0,1,0-2.812-2.812A2.811,2.811,0,0,0,45.445,46.484Zm9.841,0a2.812,2.812,0,1,0-2.812-2.812A2.811,2.811,0,0,0,55.287,46.484ZM45.445,60.543a2.812,2.812,0,1,0,2.812,2.812A2.811,2.811,0,0,0,45.445,60.543Zm0-9.841a2.812,2.812,0,1,0,2.812,2.812A2.811,2.811,0,0,0,45.445,50.7Zm9.841,9.841A2.812,2.812,0,1,0,58.1,63.355,2.811,2.811,0,0,0,55.287,60.543Zm0-9.841A2.812,2.812,0,1,0,58.1,53.514,2.811,2.811,0,0,0,55.287,50.7ZM55.259,23.99H70.752A2.818,2.818,0,0,1,73.563,26.8V68.979a2.819,2.819,0,0,1-2.812,2.812H39.822a2.82,2.82,0,0,1-2.812-2.812V26.8a2.819,2.819,0,0,1,2.812-2.812Zm9.869,22.494a2.812,2.812,0,1,0-2.812-2.812A2.811,2.811,0,0,0,65.128,46.484Zm0,14.059a2.812,2.812,0,1,0,2.812,2.812A2.811,2.811,0,0,0,65.128,60.543Zm0-9.841a2.812,2.812,0,1,0,2.812,2.812A2.811,2.811,0,0,0,65.128,50.7ZM67.94,35.237V29.614H42.634v5.624Z" transform="translate(15.026 9.328)" fill="#656d78"/>
    <path id="Trazado_169521" data-name="Trazado 169521" d="M41.01,27.99H66.316v5.624H41.01Z" transform="translate(16.649 10.952)" fill="#5d9cec"/>
    <path id="Trazado_169522" data-name="Trazado 169522" d="M43.822,42.99A2.812,2.812,0,1,1,41.01,45.8,2.818,2.818,0,0,1,43.822,42.99Z" transform="translate(16.649 17.04)" fill="#ccd1d9"/>
    <path id="Trazado_169523" data-name="Trazado 169523" d="M30.831,2.01l2.812,8.435H20.99L23.8,2.01Z" transform="translate(8.523 0.407)" fill="#64b5f6"/>
    <path id="Trazado_169524" data-name="Trazado 169524" d="M31.92,2.01l-2.812,8.435H.99L8.019,2.01Z" transform="translate(0.405 0.407)" fill="#d3a06c"/>
    <path id="Trazado_169525" data-name="Trazado 169525" d="M51.89,2.01l7.029,8.435H30.8L27.99,2.01Z" transform="translate(11.364 0.407)" fill="#d3a06c"/>
    <path id="Trazado_169526" data-name="Trazado 169526" d="M33.643,8.01V20.677l-6.327-2.826L20.99,20.677V8.01Z" transform="translate(8.523 2.842)" fill="#64b5f6"/>
    <path id="Trazado_169527" data-name="Trazado 169527" d="M69.879,8.01V30.476H54.442a2.819,2.819,0,0,0-2.812,2.812V68.464H.99V8.01H29.108V20.677l6.327-2.826,6.327,2.826V8.01Z" transform="translate(0.405 2.842)" fill="#d3a06c"/>
    <path id="Trazado_169528" data-name="Trazado 169528" d="M52,70.273,1.4,70.268A1.4,1.4,0,0,1-.008,68.862V8.414A1.4,1.4,0,0,1,1.4,7.008H70.284A1.4,1.4,0,0,1,71.69,8.414V30.891a1.406,1.406,0,0,1-2.812,0V9.82H2.8V67.456l49.2.006a1.406,1.406,0,1,1,0,2.812Z" transform="translate(0 2.435)"/>
    <path id="Trazado_169529" data-name="Trazado 169529" d="M1.4,12.254A1.4,1.4,0,0,1,.318,9.947L7.348,1.515a1.406,1.406,0,1,1,2.161,1.8L2.479,11.748a1.4,1.4,0,0,1-1.083.506Z" transform="translate(0 0.001)"/>
    <path id="Trazado_169530" data-name="Trazado 169530" d="M52.427,12.254a1.408,1.408,0,0,1-1.083-.5L44.315,3.317a1.406,1.406,0,1,1,2.161-1.8l7.029,8.433a1.405,1.405,0,0,1-1.078,2.306Z" transform="translate(17.858 0.001)"/>
    <path id="Trazado_169531" data-name="Trazado 169531" d="M61.225,3.822H6.4a1.406,1.406,0,1,1,0-2.812H61.225a1.406,1.406,0,1,1,0,2.812Z" transform="translate(2.029 0.001)"/>
    <path id="Trazado_169532" data-name="Trazado 169532" d="M21.4,12.255A1.408,1.408,0,0,1,20.065,10.4l2.812-8.433a1.406,1.406,0,1,1,2.667.89l-2.812,8.433A1.407,1.407,0,0,1,21.4,12.255Z" transform="translate(8.118 0)"/>
    <path id="Trazado_169533" data-name="Trazado 169533" d="M31.21,12.255a1.4,1.4,0,0,1-1.333-.962L27.065,2.861a1.406,1.406,0,1,1,2.667-.89L32.544,10.4a1.408,1.408,0,0,1-1.334,1.852Z" transform="translate(10.959)"/>
    <path id="Trazado_169534" data-name="Trazado 169534" d="M21.4,22.481a1.4,1.4,0,0,1-1.406-1.406V8.414a1.406,1.406,0,0,1,2.812,0V21.075A1.406,1.406,0,0,1,21.4,22.481Z" transform="translate(8.118 2.435)"/>
    <path id="Trazado_169535" data-name="Trazado 169535" d="M21.4,19.638a1.406,1.406,0,0,1-.572-2.691l6.327-2.815a1.406,1.406,0,1,1,1.142,2.57l-6.327,2.815a1.405,1.405,0,0,1-.569.121Z" transform="translate(8.117 5.278)"/>
    <path id="Trazado_169536" data-name="Trazado 169536" d="M32.224,19.638a1.387,1.387,0,0,1-.569-.121L25.325,16.7a1.406,1.406,0,0,1,1.142-2.57L32.8,16.947a1.406,1.406,0,0,1-.572,2.691Z" transform="translate(9.944 5.278)"/>
    <path id="Trazado_169537" data-name="Trazado 169537" d="M30.4,22.481a1.4,1.4,0,0,1-1.406-1.406V8.414a1.406,1.406,0,1,1,2.812,0V21.075A1.406,1.406,0,0,1,30.4,22.481Z" transform="translate(11.771 2.435)"/>
    <path id="Trazado_169538" data-name="Trazado 169538" d="M31.7,41.824H6.4a1.406,1.406,0,1,1,0-2.812H31.7a1.406,1.406,0,1,1,0,2.812Z" transform="translate(2.029 15.426)"/>
    <path id="Trazado_169539" data-name="Trazado 169539" d="M31.7,44.818H6.4a1.406,1.406,0,0,1,0-2.812H31.7a1.406,1.406,0,0,1,0,2.812Z" transform="translate(2.029 16.641)"/>
    <path id="Trazado_169540" data-name="Trazado 169540" d="M19.051,47.812H6.4A1.406,1.406,0,1,1,6.4,45H19.051a1.406,1.406,0,0,1,0,2.812Z" transform="translate(2.029 17.856)"/>
    <path id="Trazado_169541" data-name="Trazado 169541" d="M71.155,73.6H40.226a4.223,4.223,0,0,1-4.218-4.218V27.208a4.223,4.223,0,0,1,4.218-4.218h30.93a4.223,4.223,0,0,1,4.218,4.218V69.385A4.222,4.222,0,0,1,71.155,73.6ZM40.226,25.8a1.406,1.406,0,0,0-1.406,1.406V69.385a1.406,1.406,0,0,0,1.406,1.406h30.93a1.406,1.406,0,0,0,1.406-1.406V27.208A1.406,1.406,0,0,0,71.155,25.8Z" transform="translate(14.619 8.922)"/>
    <path id="Trazado_169542" data-name="Trazado 169542" d="M71.155,76.791H40.226a4.223,4.223,0,0,1-4.218-4.218V30.4a1.406,1.406,0,0,1,2.812,0V72.573a1.406,1.406,0,0,0,1.406,1.406h30.93a1.406,1.406,0,0,0,1.406-1.406V30.4a1.406,1.406,0,0,1,2.812,0V72.573a4.222,4.222,0,0,1-4.218,4.218Z" transform="translate(14.619 11.358)"/>
    <path id="Trazado_169543" data-name="Trazado 169543" d="M66.72,35.425H41.414a1.4,1.4,0,0,1-1.406-1.406V28.4a1.4,1.4,0,0,1,1.406-1.406H66.72A1.4,1.4,0,0,1,68.126,28.4v5.624A1.4,1.4,0,0,1,66.72,35.425Zm-23.9-2.812H65.314V29.8H42.82Z" transform="translate(16.242 10.546)"/>
    <path id="Trazado_169544" data-name="Trazado 169544" d="M44.226,43.425a4.218,4.218,0,1,1,4.218-4.218A4.223,4.223,0,0,1,44.226,43.425Zm0-5.624a1.406,1.406,0,1,0,1.406,1.406A1.406,1.406,0,0,0,44.226,37.8Z" transform="translate(16.242 13.793)"/>
    <path id="Trazado_169545" data-name="Trazado 169545" d="M51.226,43.425a4.218,4.218,0,1,1,4.218-4.218A4.223,4.223,0,0,1,51.226,43.425Zm0-5.624a1.406,1.406,0,1,0,1.406,1.406A1.406,1.406,0,0,0,51.226,37.8Z" transform="translate(19.084 13.793)"/>
    <path id="Trazado_169546" data-name="Trazado 169546" d="M58.226,43.425a4.218,4.218,0,1,1,4.218-4.218A4.223,4.223,0,0,1,58.226,43.425Zm0-5.624a1.406,1.406,0,1,0,1.406,1.406A1.406,1.406,0,0,0,58.226,37.8Z" transform="translate(21.925 13.793)"/>
    <path id="Trazado_169547" data-name="Trazado 169547" d="M44.226,50.425a4.218,4.218,0,1,1,4.218-4.218A4.223,4.223,0,0,1,44.226,50.425Zm0-5.624a1.406,1.406,0,1,0,1.406,1.406A1.406,1.406,0,0,0,44.226,44.8Z" transform="translate(16.242 16.634)"/>
    <path id="Trazado_169548" data-name="Trazado 169548" d="M51.226,50.425a4.218,4.218,0,1,1,4.218-4.218A4.223,4.223,0,0,1,51.226,50.425Zm0-5.624a1.406,1.406,0,1,0,1.406,1.406A1.406,1.406,0,0,0,51.226,44.8Z" transform="translate(19.084 16.634)"/>
    <path id="Trazado_169549" data-name="Trazado 169549" d="M58.226,50.425a4.218,4.218,0,1,1,4.218-4.218A4.223,4.223,0,0,1,58.226,50.425Zm0-5.624a1.406,1.406,0,1,0,1.406,1.406A1.406,1.406,0,0,0,58.226,44.8Z" transform="translate(21.925 16.634)"/>
    <path id="Trazado_169550" data-name="Trazado 169550" d="M44.226,57.425a4.218,4.218,0,1,1,4.218-4.218A4.223,4.223,0,0,1,44.226,57.425Zm0-5.624a1.406,1.406,0,1,0,1.406,1.406A1.406,1.406,0,0,0,44.226,51.8Z" transform="translate(16.242 19.476)"/>
    <path id="Trazado_169551" data-name="Trazado 169551" d="M51.226,57.425a4.218,4.218,0,1,1,4.218-4.218A4.223,4.223,0,0,1,51.226,57.425Zm0-5.624a1.406,1.406,0,1,0,1.406,1.406A1.406,1.406,0,0,0,51.226,51.8Z" transform="translate(19.084 19.476)"/>
    <path id="Trazado_169552" data-name="Trazado 169552" d="M58.226,57.425a4.218,4.218,0,1,1,4.218-4.218A4.223,4.223,0,0,1,58.226,57.425Zm0-5.624a1.406,1.406,0,1,0,1.406,1.406A1.406,1.406,0,0,0,58.226,51.8Z" transform="translate(21.925 19.476)"/>
  </g>
</svg>
