<svg xmlns="http://www.w3.org/2000/svg" width="89.993" height="90" viewBox="0 0 89.993 90">
  <g id="lista-de-verificacion" transform="translate(-0.02)">
    <path id="Trazado_169618" data-name="Trazado 169618" d="M232.02,232.039h45v45h-45Zm0,0" transform="translate(-188.504 -188.535)" fill="#daa857"/>
    <path id="Trazado_169620" data-name="Trazado 169620" d="M320.02,232.039h15v15h-15Zm0,0" transform="translate(-260.005 -188.535)" fill="#ba68c8"/>
    <path id="Trazado_169621" data-name="Trazado 169621" d="M68.015,102.037v-30h-60v74.994h42v-45Zm0,0" transform="translate(-6.5 -58.533)" fill="#f6f6f6"/>
    <path id="Trazado_169623" data-name="Trazado 169623" d="M80.02,40.039h33v6h-33Zm0,0" transform="translate(-65.001 -32.532)" fill="#fff505"/>
    <path id="Trazado_169624" data-name="Trazado 169624" d="M48.02,152.039h9v9h-9Zm0,0" transform="translate(-39.001 -123.534)" fill="#f7c4ff"/>
    <path id="Trazado_169625" data-name="Trazado 169625" d="M48.02,240.039h9v9h-9Zm0,0" transform="translate(-39.001 -195.035)" fill="#f7c4ff"/>
    <path id="Trazado_169626" data-name="Trazado 169626" d="M48.02,336.039h9v9h-9Zm0,0" transform="translate(-39.001 -273.037)" fill="#f7c4ff"/>
    <g id="Grupo_110592" data-name="Grupo 110592" transform="translate(0.02)">
      <path id="Trazado_169630" data-name="Trazado 169630" d="M270.516,224.039h-45a1.5,1.5,0,0,0-1.5,1.5v31.872a1.5,1.5,0,0,0,3,0V227.039h13.5v13.5a1.5,1.5,0,0,0,1.5,1.5h15a1.5,1.5,0,0,0,1.5-1.5v-13.5h10.5v42h-42v-4.5a1.5,1.5,0,0,0-3,0v6a1.5,1.5,0,0,0,1.5,1.5h45a1.5,1.5,0,0,0,1.5-1.5v-45A1.5,1.5,0,0,0,270.516,224.039Zm-15,15h-12v-12h12Zm0,0" transform="translate(-182.023 -182.035)"/>
      <path id="Trazado_169631" data-name="Trazado 169631" d="M326.622,357.59a3,3,0,0,0,2.115-.885l6.4-6.36a1.5,1.5,0,0,0-2.115-2.114l-6.4,6.359-2.13-2.114a1.5,1.5,0,0,0-2.114,2.114l2.114,2.115A3,3,0,0,0,326.622,357.59Zm0,0" transform="translate(-261.648 -282.589)"/>
      <path id="Trazado_169632" data-name="Trazado 169632" d="M309.859,417.539a1.5,1.5,0,0,0,1.5,1.5h12a1.5,1.5,0,0,0,0-3h-12A1.5,1.5,0,0,0,309.859,417.539Zm0,0" transform="translate(-251.769 -338.038)"/>
      <path id="Trazado_169633" data-name="Trazado 169633" d="M36.017,87h-33V15.006h15v1.5a4.5,4.5,0,0,0,4.5,4.5h18a4.5,4.5,0,0,0,4.5-4.5v-1.5h15V36a1.5,1.5,0,0,0,3,0v-22.5a1.5,1.5,0,0,0-1.5-1.5h-12v-4.5a1.5,1.5,0,0,0-1.5-1.5H38.866a7.5,7.5,0,0,0-14.7,0H15.018a1.5,1.5,0,0,0-1.5,1.5v4.5h-12a1.5,1.5,0,0,0-1.5,1.5V88.5a1.5,1.5,0,0,0,1.5,1.5h34.5a1.5,1.5,0,0,0,0-3Zm6-70.494a1.5,1.5,0,0,1-1.5,1.5h-18a1.5,1.5,0,0,1-1.5-1.5v-1.5h21Zm-10.5-13.5a4.5,4.5,0,0,1,4.245,3h-8.49A4.5,4.5,0,0,1,31.517,3.007Zm-15,6h30v3h-30Zm0,0" transform="translate(-0.02)"/>
      <path id="Trazado_169634" data-name="Trazado 169634" d="M52.019,145.539a1.5,1.5,0,0,0-1.5-1.5h-9a1.5,1.5,0,0,0-1.5,1.5v9a1.5,1.5,0,0,0,1.5,1.5h9a1.5,1.5,0,0,0,1.5-1.5Zm-3,7.5h-6v-6h6Zm0,0" transform="translate(-32.52 -117.034)"/>
      <path id="Trazado_169635" data-name="Trazado 169635" d="M129.519,192.039a1.5,1.5,0,0,0,0,3h25.5a1.5,1.5,0,0,0,0-3Zm0,0" transform="translate(-104.021 -156.035)"/>
      <path id="Trazado_169636" data-name="Trazado 169636" d="M52.019,233.539a1.5,1.5,0,0,0-1.5-1.5h-9a1.5,1.5,0,0,0-1.5,1.5v9a1.5,1.5,0,0,0,1.5,1.5h9a1.5,1.5,0,0,0,1.5-1.5Zm-3,7.5h-6v-6h6Zm0,0" transform="translate(-32.52 -188.535)"/>
      <path id="Trazado_169637" data-name="Trazado 169637" d="M140.019,280.039h-10.5a1.5,1.5,0,0,0,0,3h10.5a1.5,1.5,0,0,0,0-3Zm0,0" transform="translate(-104.021 -227.536)"/>
      <path id="Trazado_169638" data-name="Trazado 169638" d="M50.519,331.039a1.5,1.5,0,0,0,0-3h-9a1.5,1.5,0,0,0-1.5,1.5v9a1.5,1.5,0,0,0,1.5,1.5h9a1.5,1.5,0,0,0,0-3h-7.5v-6Zm0,0" transform="translate(-32.52 -266.537)"/>
      <path id="Trazado_169639" data-name="Trazado 169639" d="M140.019,376.039h-10.5a1.5,1.5,0,0,0,0,3h10.5a1.5,1.5,0,0,0,0-3Zm0,0" transform="translate(-104.021 -305.537)"/>
    </g>
  </g>
</svg>
