<svg xmlns="http://www.w3.org/2000/svg" width="120" height="120" viewBox="0 0 120 120">
  <g id="Grupo_110609" data-name="Grupo 110609" transform="translate(-1160 -1413)">
    <g id="Rectángulo_36486" data-name="Rectángulo 36486" transform="translate(1160 1413)" fill="#fff" stroke="#5c22c3" stroke-width="4">
      <rect width="120" height="120" stroke="none"/>
      <rect x="2" y="2" width="116" height="116" fill="none"/>
    </g>
    <g id="caja" transform="translate(1165.8 1416.254)">
      <path id="Trazado_169286" data-name="Trazado 169286" d="M21.9,35.4H91.679V92.914H21.9Z" transform="translate(-2.089 -2.398)" fill="#d3a06c"/>
      <path id="Trazado_169288" data-name="Trazado 169288" d="M91.679,33.293H21.9L31.016,23.1H82.48Z" transform="translate(-2.089 -0.291)" fill="#d3a06c"/>
      <path id="Trazado_169289" data-name="Trazado 169289" d="M31.016,23.1,21.9,33.293H81.32L72.121,23.1Z" transform="translate(-2.089 -0.291)" fill="#d3a06c"/>
      <path id="Trazado_169290" data-name="Trazado 169290" d="M71.627,33.293H52.4L58.118,23.1h7.79Z" transform="translate(-7.313 -0.291)" fill="#64b5f6"/>
      <path id="Trazado_169291" data-name="Trazado 169291" d="M71.627,35.4H52.4V51.312l9.613-5.055,9.613,5.055Z" transform="translate(-7.313 -2.398)" fill="#64b5f6"/>
      <g id="Grupo_110520" data-name="Grupo 110520" transform="translate(9.7 21.4)">
        <path id="Trazado_169292" data-name="Trazado 169292" d="M106.926,103.1H62.092a1.492,1.492,0,0,0,0,2.983h44.834a1.492,1.492,0,0,0,0-2.983Z" transform="translate(-18.418 -35.393)"/>
        <path id="Trazado_169293" data-name="Trazado 169293" d="M55.238,103.1h-.746a1.492,1.492,0,0,0,0,2.983h.746a1.486,1.486,0,0,0,1.492-1.492A1.541,1.541,0,0,0,55.238,103.1Z" transform="translate(-17.116 -35.393)" fill="#68210c"/>
        <path id="Trazado_169294" data-name="Trazado 169294" d="M40.777,89.107H32.656l3.066-7.044L45.75,77.256a1.456,1.456,0,0,0,.746-.829l2.155-6.547,5.8-1.16a1.479,1.479,0,1,0-.58-2.9l-6.63,1.326a1.453,1.453,0,0,0-1.077.994l-2.32,6.8-8.867,4.227-3.232-4.807V61.345a1.492,1.492,0,1,0-2.983,0V74.853a1.6,1.6,0,0,0,.249.829l3.729,5.552L29.258,89.19h-8.2v-54.7H43.429v14.42a1.47,1.47,0,0,0,1.409,1.492,1.561,1.561,0,0,0,.663-.166l9.2-4.724,8.95,4.641A1.441,1.441,0,0,0,65.8,48.914V40.958a1.486,1.486,0,0,0-1.492-1.492A1.417,1.417,0,0,0,62.9,40.958V46.51l-7.541-3.9a1.272,1.272,0,0,0-1.326,0L46.5,46.51V34.494H88.1V45.682l-8.122.912a1.329,1.329,0,0,0-1.243,1.16l-.912,4.475-5.635,3.232a1.45,1.45,0,0,0,1.492,2.486L75.833,56.7l1.657,8.122A1.452,1.452,0,0,0,79.23,65.9a1.408,1.408,0,0,0,1.077-1.657L78.4,55.129l1.409-.746a1.65,1.65,0,0,0,.663-.994l.829-4.144,6.713-.746V83.72a1.492,1.492,0,0,0,2.983,0V33a1.738,1.738,0,0,0-.331-.912L81.468,21.9a1.336,1.336,0,0,0-1.077-.5H28.927a1.336,1.336,0,0,0-1.077.5L18.733,32.091A1.246,1.246,0,0,0,18.4,33v56.1h-7.21a1.492,1.492,0,0,0,0,2.983H40.777A1.486,1.486,0,0,0,42.269,90.6a1.541,1.541,0,0,0-1.492-1.492Zm45.5-57.514H65.142L61.081,24.3H79.811ZM57.766,24.3l4.061,7.293H47.573L51.634,24.3Zm-28.177,0H48.319l-4.061,7.293H23.043Z" transform="translate(-9.7 -21.4)"/>
      </g>
    </g>
  </g>
</svg>
