<svg xmlns="http://www.w3.org/2000/svg" width="120" height="120" viewBox="0 0 120 120">
  <g id="Grupo_110600" data-name="Grupo 110600" transform="translate(-1160 -3220)">
    <g id="Rectángulo_36486" data-name="Rectángulo 36486" transform="translate(1160 3220)" fill="#fff" stroke="#5c22c3" stroke-width="4">
      <rect width="120" height="120" stroke="none"/>
      <rect x="2" y="2" width="116" height="116" fill="none"/>
    </g>
    <g id="package" transform="translate(1180 3219.551)">
      <path id="Trazado_168903" data-name="Trazado 168903" d="M130.359,31.761H69.98a.98.98,0,0,0-.913.624l-3.179,8.137V92.9a2.629,2.629,0,0,0,2.629,2.629h63.3a2.629,2.629,0,0,0,2.629-2.629V40.522l-3.179-8.138A.98.98,0,0,0,130.359,31.761Z" transform="translate(-55.593 -6.169)" fill="#c99b50"/>
      <path id="Trazado_168904" data-name="Trazado 168904" d="M131.821,142.841h-63.3a2.629,2.629,0,0,1-2.629-2.629V87.832H134.45v52.38A2.629,2.629,0,0,1,131.821,142.841Z" transform="translate(-55.593 -53.479)" fill="#c99b50"/>
      <path id="SVGCleanerId_0" d="M67.094,237.37a2.6,2.6,0,0,1-1.718,3.254L54.05,244.13l.668.272,7.558,3.082,12.51,5.1a2.968,2.968,0,0,1,1.628,3.869h0a2.968,2.968,0,0,1-3.869,1.628l2.9,1.183a2.968,2.968,0,0,1,1.628,3.869h0A2.968,2.968,0,0,1,73.2,264.76l-2.9-1.183a2.968,2.968,0,0,1,1.649,3.815A3.022,3.022,0,0,1,68,269.048l-2.419-.986a2.968,2.968,0,0,1,1.628,3.869h0a2.968,2.968,0,0,1-3.869,1.628l-21.911-8.934a13.663,13.663,0,0,1-5.5-4.1h0a13.664,13.664,0,0,0-5.5-4.1l-9.086-3.7,6.35-15.574,7.865,3.207c2.633,1.074,28.454-4.742,28.454-4.742A2.645,2.645,0,0,1,67.094,237.37Z" transform="translate(-18.008 -178.111)" fill="#fed9a8"/>
      <g id="Grupo_110216" data-name="Grupo 110216" transform="translate(3.334 57.433)">
        <path id="SVGCleanerId_0_1_" d="M67.094,237.37a2.6,2.6,0,0,1-1.718,3.254L54.05,244.13l.668.272,7.558,3.082,12.51,5.1a2.968,2.968,0,0,1,1.628,3.869h0a2.968,2.968,0,0,1-3.869,1.628l2.9,1.183a2.968,2.968,0,0,1,1.628,3.869h0A2.968,2.968,0,0,1,73.2,264.76l-2.9-1.183a2.968,2.968,0,0,1,1.649,3.815A3.022,3.022,0,0,1,68,269.048l-2.419-.986a2.968,2.968,0,0,1,1.628,3.869h0a2.968,2.968,0,0,1-3.869,1.628l-21.911-8.934a13.663,13.663,0,0,1-5.5-4.1h0a13.664,13.664,0,0,0-5.5-4.1l-9.086-3.7,6.35-15.574,7.865,3.207c2.633,1.074,28.454-4.742,28.454-4.742A2.645,2.645,0,0,1,67.094,237.37Z" transform="translate(-21.342 -235.544)" fill="#fed9a8"/>
      </g>
      <g id="Grupo_110217" data-name="Grupo 110217" transform="translate(36.043 66.019)">
        <path id="Trazado_168906" data-name="Trazado 168906" d="M243.539,419.342a4.139,4.139,0,0,0-.6-.313L231.829,414.5a2.824,2.824,0,0,0,1.538,3.677l8.808,3.636a3.467,3.467,0,0,1,1.786,2.111,2.958,2.958,0,0,0,.669-1h0A2.969,2.969,0,0,0,243.539,419.342Z" transform="translate(-231.472 -395.123)" fill="#f4c892"/>
        <path id="Trazado_168907" data-name="Trazado 168907" d="M261.5,388.7a2.968,2.968,0,0,0-1.578-3.786l-.029-.013-.006,0-.02-.008-.015-.006h0l-13.654-5.568h0a2.78,2.78,0,0,0,1.535,3.628l12.12,4.885a3.626,3.626,0,0,1,1.445,1.293A2.854,2.854,0,0,0,261.5,388.7Z" transform="translate(-243.594 -365.441)" fill="#f4c892"/>
        <path id="Trazado_168908" data-name="Trazado 168908" d="M230.677,290.491Z" transform="translate(-230.677 -290.491)" fill="#f4c892"/>
        <path id="Trazado_168909" data-name="Trazado 168909" d="M252.7,303.428a2.979,2.979,0,0,0,.339-.614h0a2.968,2.968,0,0,0-1.628-3.869l-12.51-5.1-7.558-3.082-.668-.272a15.191,15.191,0,0,0,7.421,6.472l13.314,5.429A3.777,3.777,0,0,1,252.7,303.428Z" transform="translate(-230.677 -290.49)" fill="#f4c892"/>
        <path id="Trazado_168910" data-name="Trazado 168910" d="M277.044,350.9l-16.555-6.75a2.894,2.894,0,0,0,1.592,3.775l14.964,6.073a3.971,3.971,0,0,1,1.3,1.367,2.971,2.971,0,0,0-1.3-4.464Z" transform="translate(-255.649 -335.762)" fill="#f4c892"/>
      </g>
      <path id="Trazado_168911" data-name="Trazado 168911" d="M14.9,227.271a1.132,1.132,0,0,1,1.475-.621l6.136,2.5a1.132,1.132,0,0,1,.621,1.475l-7.5,18.4a1.132,1.132,0,0,1-1.475.621l-6.136-2.5a1.132,1.132,0,0,1-.621-1.475l7.5-18.4" transform="translate(-6.168 -170.536)" fill="#5c22c3"/>
      <path id="Trazado_168913" data-name="Trazado 168913" d="M249.019,31.761h-11.51l-2.027,8.761V59.028a.586.586,0,0,0,.975.439l6.419-5.687a.586.586,0,0,1,.777,0l6.419,5.687a.586.586,0,0,0,.975-.439V40.522Z" transform="translate(-198.688 -6.169)" fill="#64b5f6"/>
      <path id="Trazado_168914" data-name="Trazado 168914" d="M250.072,106.777l-6.419-5.687a.586.586,0,0,0-.777,0l-6.419,5.687a.586.586,0,0,1-.975-.439V87.832h15.565v18.506A.586.586,0,0,1,250.072,106.777Z" transform="translate(-198.688 -53.479)" fill="#408ecc"/>
      <path id="Trazado_168915" data-name="Trazado 168915" d="M299.7,455.366h0Z" transform="translate(-252.87 -363.586)" fill="#fed9a8"/>
      <path id="Trazado_168916" data-name="Trazado 168916" d="M60.6,24.45H14.386a2.11,2.11,0,0,0-1.977,1.35L9.231,33.938c0,.006,0,.012-.006.018-.012.032-.022.064-.031.1,0,.012-.006.024-.009.036-.007.03-.013.061-.018.093,0,.013,0,.025-.006.037,0,.034-.006.068-.007.1,0,.009,0,.017,0,.026s0,0,0,0V51.136a1.142,1.142,0,0,0,2.285,0V35.5H35.651V52.859a1.729,1.729,0,0,0,2.875,1.294l6.05-5.36,6.05,5.36A1.728,1.728,0,0,0,53.5,52.859V35.5H77.715V86.734a1.489,1.489,0,0,1-1.487,1.487H55.282c0-.013,0-.026,0-.039,0-.1-.005-.2-.014-.306a4.11,4.11,0,0,0,4.839-5.568c-.04-.1-.084-.188-.131-.279l-.025-.05q-.069-.13-.146-.254l-.03-.048c-.054-.085-.111-.168-.171-.248l0,0c-.06-.079-.123-.155-.188-.23l-.036-.041q-.1-.108-.2-.208l-.041-.039c-.073-.068-.147-.135-.225-.2L58.9,80.7c-.076-.061-.155-.12-.236-.175l-.044-.03q-.121-.082-.249-.155l-.021-.013a4.113,4.113,0,0,0-.771-6.74q-.18-.095-.37-.173L39.43,66.166,47.706,63.6a3.753,3.753,0,0,0,2.472-4.681,3.668,3.668,0,0,0-1.253-1.81,3.846,3.846,0,0,0-3.156-.74l-.016,0c-.063.014-6.408,1.441-13.034,2.733l-.863.167-.667.128L31,59.44l-1.123.211-.434.08c-8.321,1.533-10.659,1.56-11.308,1.473h-.007l-.029,0-.019,0-.013,0a.888.888,0,0,1-.1-.022l-.187-.076.233-.572a2.259,2.259,0,0,0-.01-1.74,2.3,2.3,0,0,0-.214-.4,2.258,2.258,0,0,0-1.024-.829l-6.136-2.5A2.274,2.274,0,0,0,7.671,56.3L.168,74.7a2.277,2.277,0,0,0,1.247,2.964l6.136,2.5a2.274,2.274,0,0,0,2.964-1.247l.056-.138,1.415.577h0a12.548,12.548,0,0,1,3.679,2.316q.294.266.572.551t.536.587q.129.151.254.307a14.843,14.843,0,0,0,5.961,4.447l1.592.649H12.924a1.489,1.489,0,0,1-1.487-1.487v-2.89a1.142,1.142,0,1,0-2.285,0v2.89A3.776,3.776,0,0,0,12.924,90.5H30.185l14.716,6a4.109,4.109,0,0,0,5.638-4.246,4.243,4.243,0,0,0,2.278-.3A4.073,4.073,0,0,0,54.584,90.5H76.228A3.776,3.776,0,0,0,80,86.733V34.353s0,0,0,0,0-.017,0-.026c0-.035,0-.069-.007-.1,0-.013,0-.025-.006-.038,0-.031-.01-.062-.018-.093,0-.012-.006-.024-.009-.036-.009-.033-.019-.065-.031-.1,0-.006,0-.012-.006-.018L76.742,25.8a2.11,2.11,0,0,0-1.977-1.35H68.977a1.142,1.142,0,1,0,0,2.285h5.677l2.53,6.476H53.267l-1.5-6.476H60.6a1.142,1.142,0,0,0,0-2.285M39.729,26.735h9.694l1.5,6.476H38.23Zm-3.844,6.476H11.967l2.53-6.476H37.384ZM51.216,51.624l-5.494-4.867a1.73,1.73,0,0,0-2.292,0l-5.494,4.867V35.5h13.28V51.624ZM8.4,78.05,2.287,75.557l7.495-18.38L15.9,59.67Zm45.638,6.894L52.73,84.41h0L39.072,78.841a1.142,1.142,0,0,0-.862,2.116l13.654,5.567h0a1.818,1.818,0,0,1,.165.077l.044.026c.037.021.075.043.111.066.017.011.033.025.049.036s.063.045.093.069.034.031.052.046.054.046.079.071.033.036.049.054.047.049.068.075.031.041.046.061.04.051.058.077.028.046.042.068.033.052.048.079.025.05.037.075.027.053.039.08.021.053.031.08.022.054.031.081.016.056.024.084.016.055.023.083.01.057.016.085.011.057.015.085.005.058.007.087.006.058.007.087,0,.058,0,.086,0,.059,0,.089-.006.057-.009.085-.006.061-.011.091-.012.055-.017.083-.012.062-.02.092-.017.054-.025.081-.019.061-.03.091-.019.042-.028.063c0,0,0,.01-.005.015a1.778,1.778,0,0,1-.938.925,1.934,1.934,0,0,1-1.487.019L48,88.893l-.034-.012-.034-.016L36.831,84.337a1.142,1.142,0,0,0-.863,2.116l11.106,4.528.036.013.032.015a1.826,1.826,0,1,1-1.378,3.381L30.842,88.305h0l-6.987-2.849a12.551,12.551,0,0,1-5.041-3.761,14.838,14.838,0,0,0-5.961-4.448h0l-1.417-.577,2.821-6.92,2.666-6.539.2.08a2.968,2.968,0,0,0,1.16.21,29.617,29.617,0,0,0,4.988-.424c1.79-.253,3.985-.618,6.548-1.09l.19-.035.363-.067.285-.053.329-.062.355-.067.287-.054.441-.084.229-.044.691-.134c6.6-1.284,12.977-2.714,13.263-2.778.029-.006.057-.009.086-.014a1.5,1.5,0,0,1,1.663,1,1.464,1.464,0,0,1-.964,1.827L35.705,64.927a1.142,1.142,0,0,0-.093,2.149l20.735,8.455a1.826,1.826,0,0,1-.679,3.517h-.01c-.056,0-.111,0-.167-.007l-.049-.007c-.042-.005-.085-.01-.127-.018-.027-.005-.053-.013-.079-.019s-.063-.014-.095-.023-.064-.022-.1-.034-.051-.017-.076-.027L41.313,73.344a1.142,1.142,0,0,0-.862,2.116l16.555,6.75a1.836,1.836,0,0,1,.319.168,1.828,1.828,0,0,1,.742,2.04q-.026.086-.06.171a1.837,1.837,0,0,1-.079.169,1.868,1.868,0,0,1-.423.525l-.03.027a1.835,1.835,0,0,1-1.847.279Z"/>
    </g>
  </g>
</svg>
