<svg id="negocios-y-finanzas" xmlns="http://www.w3.org/2000/svg" width="80" height="76.053" viewBox="0 0 80 76.053">
  <path id="Trazado_169306" data-name="Trazado 169306" d="M85.7,275.9h16.431l15.931,6.594a5.43,5.43,0,0,1,2.924,7.134l-.054.128a5.587,5.587,0,0,1-7.159,3.058c-4.521-1.744-10.45-4.023-10.45-4.023l15.266,5.869a17.348,17.348,0,0,0,10.1.718l15.64-3.581a5.249,5.249,0,0,1,2.464,10.2l-18.661,4.743a17.351,17.351,0,0,1-10.609-.663l-24.084-9.446H85.7Zm0,0" transform="translate(-72.305 -232.789)" fill="#ffd4be"/>
  <path id="Trazado_169307" data-name="Trazado 169307" d="M85.7,275.9h16.431l15.931,6.594a5.43,5.43,0,0,1,2.924,7.134l-.054.128a5.587,5.587,0,0,1-7.159,3.058c-4.521-1.744-10.45-4.023-10.45-4.023l15.266,5.869a17.348,17.348,0,0,0,10.1.718l15.64-3.581a5.249,5.249,0,0,1,2.464,10.2l-18.661,4.743a17.351,17.351,0,0,1-10.609-.663l-24.084-9.446H85.7Zm0,0" transform="translate(-72.305 -232.789)" fill="#ffd4be"/>
  <path id="Trazado_169308" data-name="Trazado 169308" d="M10,252.316H21.827v27.465H10Zm0,0" transform="translate(-8.437 -212.892)" fill="#fff972"/>
  <path id="Trazado_169309" data-name="Trazado 169309" d="M141.9,166.871V185.6l-4.1-1.7h-9.825V166.871Zm0,0" transform="translate(-107.98 -140.797)" fill="#ba68c8"/>
  <path id="Trazado_169310" data-name="Trazado 169310" d="M231.016,101.367v35.362a5.421,5.421,0,0,0-2.092-1.537l-11.83-4.9V101.32Zm0,0" transform="translate(-183.173 -85.489)" fill="#64b5f6"/>
  <path id="Trazado_169311" data-name="Trazado 169311" d="M320.119,218.41v27.226l-5.39,1.234a17.349,17.349,0,0,1-8.533-.2v-4.109a5.635,5.635,0,0,0,.778-1.312l.053-.128a5.427,5.427,0,0,0-.831-5.6V218.41Zm0,0" transform="translate(-258.352 -184.284)" fill="#5c22c3"/>
  <path id="Trazado_169312" data-name="Trazado 169312" d="M418.232,112.1a2.36,2.36,0,1,1-2.36-2.36A2.36,2.36,0,0,1,418.232,112.1Zm0,0" transform="translate(-348.9 -92.592)" fill="#98a1b3"/>
  <path id="Trazado_169313" data-name="Trazado 169313" d="M362.7,39.626a2.36,2.36,0,1,1-2.36-2.36A2.36,2.36,0,0,1,362.7,39.626Zm0,0" transform="translate(-302.046 -31.443)" fill="#98a1b3"/>
  <path id="Trazado_169314" data-name="Trazado 169314" d="M79.855,139.787a6.811,6.811,0,0,0-8.188-5.253l-8.339,1.909v-3.409a32.938,32.938,0,0,0,4.652-5.512,32.314,32.314,0,0,0,4.568-10.757,32.961,32.961,0,0,0,.063-13.992,1.563,1.563,0,0,0-3.056.654,29.8,29.8,0,0,1-.057,12.655,29.2,29.2,0,0,1-4.128,9.72,27.818,27.818,0,0,1-2.042,2.695V111.178a1.562,1.562,0,0,0-1.562-1.562H49.406V92.93a1.563,1.563,0,0,0-1.557-1.562L33.926,91.32h0a1.563,1.563,0,0,0-1.562,1.563v8.68H20a1.563,1.563,0,0,0-1.562,1.563V118.6H14.952v-2.122a1.562,1.562,0,0,0-1.563-1.562h-1.6a29.573,29.573,0,0,1,1.276-15.325c.291-.8.622-1.6.983-2.379a1.562,1.562,0,1,0-2.833-1.319c-.4.858-.766,1.744-1.088,2.633a32.651,32.651,0,0,0-1.509,16.39H1.563A1.562,1.562,0,0,0,0,116.477v27.465A1.562,1.562,0,0,0,1.563,145.5H13.39a1.562,1.562,0,0,0,1.563-1.562v-1.486H20.83l23.809,9.338a18.806,18.806,0,0,0,11.564.723l18.662-4.743A6.8,6.8,0,0,0,79.855,139.787ZM60.2,112.741v24.418l-4.177.956c-.449.1-.9.184-1.36.247a15.862,15.862,0,0,1-5.239-.152l-.022,0v-2.369a7.236,7.236,0,0,0,.962-6.088,7.017,7.017,0,0,0-.735-1.638q-.107-.174-.223-.341l0,0V112.74H60.2Zm-24.72-18.29,10.8.036v30.8l-6.035-2.5-4.763-1.972ZM21.559,104.688h10.8v14.831l-1.938-.8a1.56,1.56,0,0,0-.6-.119H21.559Zm-9.731,37.691h-8.7v-24.34h8.7Zm62.267,2.367-18.662,4.743a15.7,15.7,0,0,1-9.653-.6L21.7,139.439a1.561,1.561,0,0,0-.571-.107H14.952V121.723H29.51l10.11,4.185,5.532,2.29a3.908,3.908,0,0,1,2.092,5.063,4.467,4.467,0,0,1-.626,1.1,4.028,4.028,0,0,1-4.1,1.413l-.037-.009c-.09-.023-.18-.049-.269-.078L31.7,131.643l-.131-.05a1.562,1.562,0,0,0-1.121,2.917s5.928,2.279,10.448,4.022c.091.035.181.068.272.1l3.471,1.335a28.694,28.694,0,0,0,3.185,1.084,18.957,18.957,0,0,0,8.9.112l5.39-1.234.016,0,10.233-2.343a3.686,3.686,0,0,1,1.73,7.166Zm0,0" transform="translate(0 -77.051)"/>
  <path id="Trazado_169315" data-name="Trazado 169315" d="M119.44,11.113a1.556,1.556,0,0,0,1.047-.4,29.362,29.362,0,0,1,21.695-7.523A29.307,29.307,0,0,1,150.7,5.043a1.562,1.562,0,0,0,1.112-2.92A32.424,32.424,0,0,0,142.386.07a32.489,32.489,0,0,0-23.994,8.322,1.563,1.563,0,0,0,1.047,2.722Zm0,0" transform="translate(-99.458 0)"/>
  <path id="Trazado_169316" data-name="Trazado 169316" d="M351.983,47.779a1.564,1.564,0,0,0,2.2-.154l12.855-14.8a1.562,1.562,0,1,0-2.358-2.05l-12.856,14.8A1.562,1.562,0,0,0,351.983,47.779Zm0,0" transform="translate(-296.532 -25.515)"/>
  <path id="Trazado_169317" data-name="Trazado 169317" d="M407.434,99.738a3.923,3.923,0,1,0,3.923,3.923A3.927,3.927,0,0,0,407.434,99.738Zm0,4.72a.8.8,0,1,1,.8-.8A.8.8,0,0,1,407.434,104.459Zm0,0" transform="translate(-340.463 -84.154)"/>
  <path id="Trazado_169318" data-name="Trazado 169318" d="M351.9,35.111a3.923,3.923,0,1,0-3.923-3.923A3.927,3.927,0,0,0,351.9,35.111Zm0-4.721a.8.8,0,1,1-.8.8A.8.8,0,0,1,351.9,30.39Zm0,0" transform="translate(-293.608 -23.005)"/>
  <path id="Trazado_169319" data-name="Trazado 169319" d="M91.7,82.982a1.562,1.562,0,1,0,.575-1.9A1.575,1.575,0,0,0,91.7,82.982Zm0,0" transform="translate(-77.271 -68.197)"/>
</svg>
