<svg xmlns="http://www.w3.org/2000/svg" width="90" height="90" viewBox="0 0 90 90">
  <g id="inventario-2" transform="translate(-1 -1)">
    <g id="Grupo_110213" data-name="Grupo 110213" transform="translate(2.452 2.452)">
      <g id="Grupo_110195" data-name="Grupo 110195" transform="translate(5.806 29.032)">
        <path id="Trazado_168816" data-name="Trazado 168816" d="M81.484,22v5.806H6V22H81.484Z" transform="translate(-6 -22)" fill="#aab2bd"/>
      </g>
      <g id="Grupo_110196" data-name="Grupo 110196" transform="translate(81.29 2.903)">
        <path id="Trazado_168817" data-name="Trazado 168817" d="M63.806,5.452V88.194H58V5.452A1.456,1.456,0,0,1,59.452,4h2.9A1.456,1.456,0,0,1,63.806,5.452Z" transform="translate(-58 -4)" fill="#aab2bd"/>
      </g>
      <g id="Grupo_110197" data-name="Grupo 110197" transform="translate(0 2.903)">
        <path id="Trazado_168818" data-name="Trazado 168818" d="M7.806,5.452V88.194H2V5.452A1.456,1.456,0,0,1,3.452,4h2.9A1.456,1.456,0,0,1,7.806,5.452Z" transform="translate(-2 -4)" fill="#aab2bd"/>
      </g>
      <g id="Grupo_110198" data-name="Grupo 110198" transform="translate(49.355 63.871)">
        <path id="Trazado_168819" data-name="Trazado 168819" d="M41.806,48.9V69.226H36V46h5.806Z" transform="translate(-36 -46)" fill="#daa857"/>
      </g>
      <g id="Grupo_110199" data-name="Grupo 110199" transform="translate(31.935 63.871)">
        <path id="Trazado_168820" data-name="Trazado 168820" d="M41.419,46V69.226H29.806l-.276-2.758A12.984,12.984,0,0,0,24,57.061V46H41.419Z" transform="translate(-24 -46)" fill="#fff"/>
      </g>
      <g id="Grupo_110200" data-name="Grupo 110200" transform="translate(55.161 66.774)">
        <path id="Trazado_168821" data-name="Trazado 168821" d="M40,48H66.129V68.323H40Z" transform="translate(-40 -48)" fill="#daa857"/>
      </g>
      <g id="Grupo_110201" data-name="Grupo 110201" transform="translate(40.645 43.548)">
        <path id="Trazado_168822" data-name="Trazado 168822" d="M30,32V52.323H44.516v2.9H64.839V32Z" transform="translate(-30 -32)" fill="#daa857"/>
      </g>
      <g id="Grupo_110202" data-name="Grupo 110202" transform="translate(11.613)">
        <path id="Trazado_168823" data-name="Trazado 168823" d="M39.032,2V13.613h-8.71V31.032H10V2h8.71V7.806H30.323V2Z" transform="translate(-10 -2)" fill="#daa857"/>
      </g>
      <g id="Grupo_110203" data-name="Grupo 110203" transform="translate(46.452)">
        <path id="Trazado_168824" data-name="Trazado 168824" d="M63.032,2V31.032H42.71V13.613H34V2h8.71V7.806H54.323V2Z" transform="translate(-34 -2)" fill="#daa857"/>
      </g>
      <g id="Grupo_110204" data-name="Grupo 110204" transform="translate(31.935 11.613)">
        <path id="Trazado_168825" data-name="Trazado 168825" d="M24,10H47.226V27.419H24Z" transform="translate(-24 -10)" fill="#daa857"/>
      </g>
      <g id="Grupo_110205" data-name="Grupo 110205" transform="translate(40.645 11.613)">
        <path id="Trazado_168826" data-name="Trazado 168826" d="M30,10h5.806v5.806H30Z" transform="translate(-30 -10)" fill="#5c22c3"/>
      </g>
      <g id="Grupo_110206" data-name="Grupo 110206" transform="translate(63.871 66.774)">
        <path id="Trazado_168827" data-name="Trazado 168827" d="M46,48h8.71v8.71H46Z" transform="translate(-46 -48)" fill="#ba68c8"/>
      </g>
      <g id="Grupo_110207" data-name="Grupo 110207" transform="translate(52.258 43.548)">
        <path id="Trazado_168828" data-name="Trazado 168828" d="M38,32H49.613v5.806H38Z" transform="translate(-38 -32)" fill="#64b5f6"/>
      </g>
      <g id="Grupo_110208" data-name="Grupo 110208" transform="translate(55.161)">
        <path id="Trazado_168829" data-name="Trazado 168829" d="M40,2H51.613V7.806H40Z" transform="translate(-40 -2)" fill="#ba68c8"/>
      </g>
      <g id="Grupo_110209" data-name="Grupo 110209" transform="translate(20.323)">
        <path id="Trazado_168830" data-name="Trazado 168830" d="M16,2H27.613V7.806H16Z" transform="translate(-16 -2)" fill="#64b5f6"/>
      </g>
      <g id="Grupo_110210" data-name="Grupo 110210" transform="translate(0 72.581)">
        <path id="Trazado_168831" data-name="Trazado 168831" d="M31.032,66.516H2l.276-2.758A13.056,13.056,0,0,1,15.268,52H26.474a13.111,13.111,0,0,1,7.461,2.337v.015a12.984,12.984,0,0,1,5.531,9.406l.276,2.758Z" transform="translate(-2 -52)" fill="#ba68c8"/>
      </g>
      <g id="Grupo_110211" data-name="Grupo 110211" transform="translate(5.806 34.839)">
        <path id="Trazado_168832" data-name="Trazado 168832" d="M7.35,42.185A9.928,9.928,0,0,1,6,37.177,11.185,11.185,0,0,1,17.177,26h13.5a1.456,1.456,0,0,1,1.452,1.452v2.9a7.139,7.139,0,0,1-2.308,5.269,7.662,7.662,0,0,1-5.255,1.989h-3.89a3.149,3.149,0,0,1-1.931-.639l-.015.015-1.118,6.431a2.912,2.912,0,0,0-2.9,2.9A3.493,3.493,0,0,0,15.74,48.8l1.873,1.873v1.1a5.245,5.245,0,0,1-2.9,4.7l-4.006-2a8.5,8.5,0,0,1-3.8-11.41Z" transform="translate(-6 -26)" fill="#12263f"/>
      </g>
      <g id="Grupo_110212" data-name="Grupo 110212" transform="translate(14.516 44.463)">
        <path id="Trazado_168833" data-name="Trazado 168833" d="M16.035,33.98a3.149,3.149,0,0,0,1.931.639h3.89a7.662,7.662,0,0,0,5.255-1.989l.015.015a43.668,43.668,0,0,1,5.2,12.135l-2.9,1.452v1.452a7.261,7.261,0,0,1-7.258,7.258H20.71v5.806H12V53.49a5.245,5.245,0,0,0,2.9-4.7v-1.1l-1.873-1.873A3.493,3.493,0,0,1,12,43.328a2.912,2.912,0,0,1,2.9-2.9l1.118-6.431Z" transform="translate(-12 -32.63)" fill="#f0d0b4"/>
      </g>
    </g>
    <g id="Grupo_110214" data-name="Grupo 110214" transform="translate(1 1)">
      <path id="Trazado_168834" data-name="Trazado 168834" d="M88.1,3.9h-2.9a2.906,2.906,0,0,0-2.9,2.9V30.032h-2.9V1H47.452V12.613h-2.9V1H12.613V30.032H9.71V6.806a2.906,2.906,0,0,0-2.9-2.9H3.9A2.906,2.906,0,0,0,1,6.806V91H91V6.806A2.906,2.906,0,0,0,88.1,3.9Zm-29.032,0h2.9v2.9h-2.9Zm5.806,0h2.9v2.9h-2.9Zm-14.516,0h5.806V9.71H70.677V3.9h5.806V30.032H59.065V12.613h-8.71Zm0,11.613h5.806V30.032H35.839V15.516h5.806v5.806h8.71Zm-2.9,0v2.9h-2.9v-2.9ZM24.226,3.9h2.9v2.9h-2.9Zm5.806,0h2.9v2.9h-2.9Zm-14.516,0h5.806V9.71H35.839V3.9h5.806v8.71h-8.71V30.032H15.516ZM82.29,32.935v2.9H9.71v-2.9ZM30.032,85.194v2.9H12.613v-2.9H9.71v2.9H4.056l.116-1.155A11.576,11.576,0,0,1,15.727,76.484H26.919A11.576,11.576,0,0,1,38.473,86.941L38.59,88.1H32.935v-2.9ZM9.71,38.742H11.4A12.761,12.761,0,0,0,9.71,40.429Zm.218,17.71,1.524,2.032,2.323-1.742-2.353-3.137A8.6,8.6,0,0,1,9.71,48.469a9.726,9.726,0,0,1,9.729-9.727h13.5v2.9a5.9,5.9,0,0,1-6.111,5.806H22.93a1.563,1.563,0,0,1-1.529-.961,1.478,1.478,0,0,1,.2-1.351,1.437,1.437,0,0,1,1.169-.591h1.452v-2.9H22.774a4.364,4.364,0,0,0-4.15,5.7,4.014,4.014,0,0,0,.809,1.43l-.814,4.668a4.364,4.364,0,0,0-3.1,4.172,4.925,4.925,0,0,0,1.452,3.5l1.452,1.452v.508A3.78,3.78,0,0,1,16.9,66.118L13.6,64.47a7.017,7.017,0,0,1-3.677-8.019Zm17.2,17.139V70.677a8.665,8.665,0,0,0,5.806-2.235v6.447A14.514,14.514,0,0,0,27.129,73.591Zm5.806-11.623a5.812,5.812,0,0,1-5.806,5.806h-2.9v5.806H18.419V68.6a6.663,6.663,0,0,0,2.9-5.523v-1.71l-2.3-2.3a2.037,2.037,0,0,1-.6-1.452,1.453,1.453,0,0,1,1.452-1.452h1.221l1.026-5.882a4.669,4.669,0,0,0,.81.075h3.895a9.306,9.306,0,0,0,4.828-1.325A41.867,41.867,0,0,1,35.582,58.3l-2.646,1.324Zm8.428,24.685a14.534,14.534,0,0,0-.224-1.459h6.312v-2.9H40.22a14.428,14.428,0,0,0-4.381-5.655V67.774H50.355V88.1H41.507ZM53.258,67.774h2.9V88.1h-2.9Zm-8.71-2.9V47.452h8.71v5.806H67.774V47.452h8.71V67.774H59.065v-2.9ZM64.871,47.452v2.9h-2.9v-2.9Zm-5.806,2.9h-2.9v-2.9h2.9Zm8.71,20.323h5.806v5.806H67.774ZM41.645,44.548V64.871H35.331a8.638,8.638,0,0,0,.508-2.9v-.555l3.143-1.571L38.7,58.713A44.531,44.531,0,0,0,33.892,47.1a8.543,8.543,0,0,0,1.947-5.46v-2.9H82.29V67.774h-2.9V44.548ZM6.806,6.806V48.469a11.494,11.494,0,0,0,1.176,5l-.125.25a9.95,9.95,0,0,0,4.449,13.35l3.21,1.6v4.92A14.452,14.452,0,0,0,3.9,79.675V6.806ZM59.065,88.1V70.677h5.806v8.71H76.484v-8.71H82.29V88.1Zm29.032,0h-2.9V6.806h2.9Z" transform="translate(-1 -1)"/>
      <path id="Trazado_168835" data-name="Trazado 168835" d="M27,49h8.71v2.9H27Z" transform="translate(10.742 20.677)"/>
      <path id="Trazado_168836" data-name="Trazado 168836" d="M27,53h8.71v2.9H27Z" transform="translate(10.742 22.484)"/>
    </g>
  </g>
</svg>
