<svg id="inventario" xmlns="http://www.w3.org/2000/svg" width="80.291" height="83.06" viewBox="0 0 80.291 83.06">
  <path id="Trazado_168732" data-name="Trazado 168732" d="M88,256h16.612v23.534H88Zm0,0" transform="translate(-72.772 -211.701)" fill="#c99b50"/>
  <path id="Trazado_168733" data-name="Trazado 168733" d="M120,256h5.537v5.537H120Zm0,0" transform="translate(-99.235 -211.701)" fill="#ba68c8"/>
  <path id="Trazado_168734" data-name="Trazado 168734" d="M184,256h16.612v23.534H184Zm0,0" transform="translate(-152.16 -211.701)" fill="#daa857"/>
  <path id="Trazado_168735" data-name="Trazado 168735" d="M216,256h5.537v5.537H216Zm0,0" transform="translate(-178.623 -211.701)" fill="#64b5f6"/>
  <path id="Trazado_168736" data-name="Trazado 168736" d="M280,256h16.612v23.534H280Zm0,0" transform="translate(-231.548 -211.701)" fill="#c99b50"/>
  <path id="Trazado_168737" data-name="Trazado 168737" d="M312,256h5.537v5.537H312Zm0,0" transform="translate(-258.011 -211.701)" fill="#5c22c3"/>
  <path id="Trazado_168738" data-name="Trazado 168738" d="M88,48h16.612V64.612H88Zm0,0" transform="translate(-72.772 -39.694)" fill="#daa857"/>
  <path id="Trazado_168739" data-name="Trazado 168739" d="M120,48h5.537v5.537H120Zm0,0" transform="translate(-99.235 -39.694)" fill="#64b5f6"/>
  <path id="Trazado_168740" data-name="Trazado 168740" d="M184,48h16.612V64.612H184Zm0,0" transform="translate(-152.16 -39.694)" fill="#c99b50"/>
  <path id="Trazado_168741" data-name="Trazado 168741" d="M216,48h5.537v5.537H216Zm0,0" transform="translate(-178.623 -39.694)" fill="#ba68c8"/>
  <path id="Trazado_168742" data-name="Trazado 168742" d="M280,48h16.612V64.612H280Zm0,0" transform="translate(-231.548 -39.694)" fill="#daa857"/>
  <path id="Trazado_168743" data-name="Trazado 168743" d="M312,48h5.537v5.537H312Zm0,0" transform="translate(-258.011 -39.694)" fill="#5c22c3"/>
  <path id="Trazado_168744" data-name="Trazado 168744" d="M192,160h13.843v8.306H192Zm0,0" transform="translate(-158.776 -132.313)" fill="#ba68c8"/>
  <path id="Trazado_168745" data-name="Trazado 168745" d="M192,160.664h13.843v3.461H192Zm0,0" transform="translate(-158.776 -132.863)" fill="#5e2667"/>
  <path id="Trazado_168746" data-name="Trazado 168746" d="M8,384H85.523v5.537H8Zm0,0" transform="translate(-6.616 -317.552)" fill="#9a826a"/>
  <path id="Trazado_168747" data-name="Trazado 168747" d="M8,136H85.523v5.537H8Zm0,0" transform="translate(-6.616 -112.466)" fill="#9a826a"/>
  <path id="Trazado_168748" data-name="Trazado 168748" d="M8,152H85.523v2.769H8Zm0,0" transform="translate(-6.616 -125.698)" fill="#8d7761"/>
  <path id="Trazado_168749" data-name="Trazado 168749" d="M8,400H85.523v2.769H8Zm0,0" transform="translate(-6.616 -330.783)" fill="#8d7761"/>
  <path id="Trazado_168750" data-name="Trazado 168750" d="M10.769,8a2.769,2.769,0,0,1,2.769,2.769V88.291H8V10.769A2.769,2.769,0,0,1,10.769,8Zm0,0" transform="translate(-6.616 -6.616)" fill="#a88e74"/>
  <path id="Trazado_168751" data-name="Trazado 168751" d="M426.769,8a2.769,2.769,0,0,1,2.769,2.769V88.291H424V10.769A2.769,2.769,0,0,1,426.769,8Zm0,0" transform="translate(-350.63 -6.616)" fill="#a88e74"/>
  <path id="Trazado_168752" data-name="Trazado 168752" d="M76.138,0a4.153,4.153,0,0,0-4.153,4.153v18H66.448V8.306a1.384,1.384,0,0,0-1.384-1.384H15.228a1.384,1.384,0,0,0-1.384,1.384V22.149H8.306v-18A4.153,4.153,0,0,0,0,4.153V81.676A1.384,1.384,0,0,0,1.384,83.06H6.922a1.384,1.384,0,0,0,1.384-1.384V73.37H71.985v8.306A1.384,1.384,0,0,0,73.37,83.06h5.537a1.384,1.384,0,0,0,1.384-1.384V4.153A4.153,4.153,0,0,0,76.138,0ZM33.224,65.064V45.683h2.769v4.153a1.384,1.384,0,0,0,1.384,1.384h5.537A1.384,1.384,0,0,0,44.3,49.836V45.683h2.769V65.064Zm-16.612,0V45.683h2.769v4.153a1.384,1.384,0,0,0,1.384,1.384H26.3a1.384,1.384,0,0,0,1.384-1.384V45.683h2.769V65.064Zm5.537-19.381h2.769v2.769H22.149Zm16.612,0H41.53v2.769H38.761Zm11.075,0H52.6v4.153a1.384,1.384,0,0,0,1.384,1.384h5.537a1.384,1.384,0,0,0,1.384-1.384V45.683h2.769V65.064H49.836Zm5.537,0h2.769v2.769H55.373Zm9.69-2.769H15.228A1.384,1.384,0,0,0,13.843,44.3V65.064H8.306V30.455H31.84v5.537a1.384,1.384,0,0,0,1.384,1.384H47.067a1.384,1.384,0,0,0,1.384-1.384V30.455H71.985V65.064H66.448V44.3A1.384,1.384,0,0,0,65.064,42.914ZM34.608,30.455H45.683v4.153H34.608Zm29.071-8.306H49.836V9.69H52.6v4.153a1.384,1.384,0,0,0,1.384,1.384h5.537a1.384,1.384,0,0,0,1.384-1.384V9.69h2.769ZM58.142,9.69v2.769H55.373V9.69ZM47.067,22.149H33.224V9.69h2.769v4.153a1.384,1.384,0,0,0,1.384,1.384h5.537A1.384,1.384,0,0,0,44.3,13.843V9.69h2.769ZM41.53,9.69v2.769H38.761V9.69Zm-16.612,0v2.769H22.149V9.69Zm-8.306,0h2.769v4.153a1.384,1.384,0,0,0,1.384,1.384H26.3a1.384,1.384,0,0,0,1.384-1.384V9.69h2.769V22.149H16.612ZM71.985,24.918v2.769H8.306V24.918ZM5.537,80.291H2.769V4.153a1.384,1.384,0,0,1,2.769,0ZM8.306,70.6V67.832H71.985V70.6Zm69.217,9.69H74.754V4.153a1.384,1.384,0,0,1,2.769,0Zm0,0"/>
</svg>
