<svg id="codigo-de-barras-2" xmlns="http://www.w3.org/2000/svg" width="83.06" height="83.06" viewBox="0 0 83.06 83.06">
  <path id="Trazado_169052" data-name="Trazado 169052" d="M37.537,112H98.448a5.538,5.538,0,0,1,5.537,5.537v33.224a5.538,5.538,0,0,1-5.537,5.537H37.537A5.538,5.538,0,0,1,32,150.761V117.537A5.538,5.538,0,0,1,37.537,112Zm0,0" transform="translate(-26.463 -92.619)" fill="#64b5f6"/>
  <g id="Grupo_110388" data-name="Grupo 110388">
    <path id="Trazado_169053" data-name="Trazado 169053" d="M15.228,0H1.384A1.384,1.384,0,0,0,0,1.384V15.228a1.384,1.384,0,1,0,2.769,0V2.769H15.228a1.384,1.384,0,1,0,0-2.769Zm0,0" fill="#2d75bb"/>
    <path id="Trazado_169054" data-name="Trazado 169054" d="M33.384,40.306a1.384,1.384,0,0,0,1.384-1.384V34.769h4.153a1.384,1.384,0,0,0,0-2.769H33.384A1.384,1.384,0,0,0,32,33.384v5.537A1.384,1.384,0,0,0,33.384,40.306Zm0,0" transform="translate(-26.463 -26.463)" fill="#2d75bb"/>
    <path id="Trazado_169055" data-name="Trazado 169055" d="M33.384,408.306h5.537a1.384,1.384,0,0,0,0-2.769H34.769v-4.153a1.384,1.384,0,1,0-2.769,0v5.537A1.384,1.384,0,0,0,33.384,408.306Zm0,0" transform="translate(-26.463 -330.783)" fill="#2d75bb"/>
    <path id="Trazado_169056" data-name="Trazado 169056" d="M401.384,408.306h5.537a1.384,1.384,0,0,0,1.384-1.384v-5.537a1.384,1.384,0,1,0-2.769,0v4.153h-4.153a1.384,1.384,0,1,0,0,2.769Zm0,0" transform="translate(-330.783 -330.783)" fill="#2d75bb"/>
    <path id="Trazado_169057" data-name="Trazado 169057" d="M406.922,32h-5.537a1.384,1.384,0,1,0,0,2.769h4.153v4.153a1.384,1.384,0,0,0,2.769,0V33.384A1.384,1.384,0,0,0,406.922,32Zm0,0" transform="translate(-330.783 -26.463)" fill="#2d75bb"/>
    <path id="Trazado_169058" data-name="Trazado 169058" d="M399.228,0H385.384a1.384,1.384,0,1,0,0,2.769h12.459V15.228a1.384,1.384,0,1,0,2.769,0V1.384A1.384,1.384,0,0,0,399.228,0Zm0,0" transform="translate(-317.552)" fill="#2d75bb"/>
    <path id="Trazado_169059" data-name="Trazado 169059" d="M399.228,384a1.384,1.384,0,0,0-1.384,1.384v12.459H385.384a1.384,1.384,0,1,0,0,2.769h13.843a1.384,1.384,0,0,0,1.384-1.384V385.384A1.384,1.384,0,0,0,399.228,384Zm0,0" transform="translate(-317.552 -317.552)" fill="#2d75bb"/>
    <path id="Trazado_169060" data-name="Trazado 169060" d="M15.228,397.843H2.769V385.384a1.384,1.384,0,1,0-2.769,0v13.843a1.384,1.384,0,0,0,1.384,1.384H15.228a1.384,1.384,0,1,0,0-2.769Zm0,0" transform="translate(0 -317.552)" fill="#2d75bb"/>
    <path id="Trazado_169061" data-name="Trazado 169061" d="M65.384,169.224A1.384,1.384,0,0,1,64,167.84V137.384a1.384,1.384,0,1,1,2.769,0V167.84A1.384,1.384,0,0,1,65.384,169.224Zm0,0" transform="translate(-52.925 -112.466)" fill="#2d75bb"/>
    <path id="Trazado_169062" data-name="Trazado 169062" d="M145.384,163.687A1.384,1.384,0,0,1,144,162.3V137.384a1.384,1.384,0,1,1,2.769,0V162.3A1.384,1.384,0,0,1,145.384,163.687Zm0,0" transform="translate(-119.082 -112.466)" fill="#2d75bb"/>
    <path id="Trazado_169063" data-name="Trazado 169063" d="M97.384,163.687A1.384,1.384,0,0,1,96,162.3V137.384a1.384,1.384,0,1,1,2.769,0V162.3A1.384,1.384,0,0,1,97.384,163.687Zm0,0" transform="translate(-79.388 -112.466)" fill="#2d75bb"/>
    <path id="Trazado_169064" data-name="Trazado 169064" d="M177.384,163.687A1.384,1.384,0,0,1,176,162.3V137.384a1.384,1.384,0,1,1,2.769,0V162.3A1.384,1.384,0,0,1,177.384,163.687Zm0,0" transform="translate(-145.545 -112.466)" fill="#2d75bb"/>
    <path id="Trazado_169065" data-name="Trazado 169065" d="M209.384,163.687A1.384,1.384,0,0,1,208,162.3V137.384a1.384,1.384,0,0,1,2.769,0V162.3A1.384,1.384,0,0,1,209.384,163.687Zm0,0" transform="translate(-172.007 -112.466)" fill="#2d75bb"/>
    <path id="Trazado_169066" data-name="Trazado 169066" d="M257.384,163.687A1.384,1.384,0,0,1,256,162.3V137.384a1.384,1.384,0,0,1,2.769,0V162.3A1.384,1.384,0,0,1,257.384,163.687Zm0,0" transform="translate(-211.701 -112.466)" fill="#2d75bb"/>
    <path id="Trazado_169067" data-name="Trazado 169067" d="M321.384,163.687A1.384,1.384,0,0,1,320,162.3V137.384a1.384,1.384,0,0,1,2.769,0V162.3A1.384,1.384,0,0,1,321.384,163.687Zm0,0" transform="translate(-264.627 -112.466)" fill="#2d75bb"/>
    <path id="Trazado_169068" data-name="Trazado 169068" d="M289.384,163.687A1.384,1.384,0,0,1,288,162.3V137.384a1.384,1.384,0,0,1,2.769,0V162.3A1.384,1.384,0,0,1,289.384,163.687Zm0,0" transform="translate(-238.164 -112.466)" fill="#2d75bb"/>
    <path id="Trazado_169069" data-name="Trazado 169069" d="M369.384,163.687A1.384,1.384,0,0,1,368,162.3V137.384a1.384,1.384,0,0,1,2.769,0V162.3A1.384,1.384,0,0,1,369.384,163.687Zm0,0" transform="translate(-304.321 -112.466)" fill="#2d75bb"/>
    <path id="Trazado_169070" data-name="Trazado 169070" d="M401.384,169.224A1.384,1.384,0,0,1,400,167.84V137.384a1.384,1.384,0,1,1,2.769,0V167.84A1.384,1.384,0,0,1,401.384,169.224Zm0,0" transform="translate(-330.783 -112.466)" fill="#2d75bb"/>
    <path id="Trazado_169071" data-name="Trazado 169071" d="M368,312h2.769v2.769H368Zm0,0" transform="translate(-304.321 -258.011)" fill="#2d75bb"/>
    <path id="Trazado_169072" data-name="Trazado 169072" d="M320,312h2.769v2.769H320Zm0,0" transform="translate(-264.627 -258.011)" fill="#2d75bb"/>
    <path id="Trazado_169073" data-name="Trazado 169073" d="M288,312h2.769v2.769H288Zm0,0" transform="translate(-238.164 -258.011)" fill="#2d75bb"/>
    <path id="Trazado_169074" data-name="Trazado 169074" d="M256,312h2.769v2.769H256Zm0,0" transform="translate(-211.701 -258.011)" fill="#2d75bb"/>
    <path id="Trazado_169075" data-name="Trazado 169075" d="M208,312h2.769v2.769H208Zm0,0" transform="translate(-172.007 -258.011)" fill="#2d75bb"/>
    <path id="Trazado_169076" data-name="Trazado 169076" d="M176,312h2.769v2.769H176Zm0,0" transform="translate(-145.545 -258.011)" fill="#2d75bb"/>
    <path id="Trazado_169077" data-name="Trazado 169077" d="M144,312h2.769v2.769H144Zm0,0" transform="translate(-119.082 -258.011)" fill="#2d75bb"/>
    <path id="Trazado_169078" data-name="Trazado 169078" d="M96,312h2.769v2.769H96Zm0,0" transform="translate(-79.388 -258.011)" fill="#2d75bb"/>
  </g>
  <path id="Trazado_169079" data-name="Trazado 169079" d="M24,110.922v33.224a6.93,6.93,0,0,0,6.922,6.922H91.832a6.93,6.93,0,0,0,6.922-6.922V110.922A6.93,6.93,0,0,0,91.832,104H30.922A6.93,6.93,0,0,0,24,110.922Zm71.985,0v33.224a4.153,4.153,0,0,1-4.153,4.153H30.922a4.153,4.153,0,0,1-4.153-4.153V110.922a4.153,4.153,0,0,1,4.153-4.153H91.832A4.153,4.153,0,0,1,95.985,110.922Zm0,0" transform="translate(-19.847 -86.004)"/>
  <path id="Trazado_169080" data-name="Trazado 169080" d="M1.384,16.612a1.384,1.384,0,0,0,1.384-1.384V2.769H15.228a1.384,1.384,0,1,0,0-2.769H1.384A1.384,1.384,0,0,0,0,1.384V15.228A1.384,1.384,0,0,0,1.384,16.612Zm0,0"/>
  <path id="Trazado_169081" data-name="Trazado 169081" d="M34.769,38.922V34.769h4.153a1.384,1.384,0,0,0,0-2.769H33.384A1.384,1.384,0,0,0,32,33.384v5.537a1.384,1.384,0,0,0,2.769,0Zm0,0" transform="translate(-26.463 -26.463)"/>
  <path id="Trazado_169082" data-name="Trazado 169082" d="M33.384,408.306h5.537a1.384,1.384,0,0,0,0-2.769H34.769v-4.153a1.384,1.384,0,1,0-2.769,0v5.537A1.384,1.384,0,0,0,33.384,408.306Zm0,0" transform="translate(-26.463 -330.783)"/>
  <path id="Trazado_169083" data-name="Trazado 169083" d="M408.306,401.384a1.384,1.384,0,1,0-2.769,0v4.153h-4.153a1.384,1.384,0,1,0,0,2.769h5.537a1.384,1.384,0,0,0,1.384-1.384Zm0,0" transform="translate(-330.783 -330.783)"/>
  <path id="Trazado_169084" data-name="Trazado 169084" d="M406.922,32h-5.537a1.384,1.384,0,1,0,0,2.769h4.153v4.153a1.384,1.384,0,0,0,2.769,0V33.384A1.384,1.384,0,0,0,406.922,32Zm0,0" transform="translate(-330.783 -26.463)"/>
  <path id="Trazado_169085" data-name="Trazado 169085" d="M399.228,0H385.384a1.384,1.384,0,1,0,0,2.769h12.459V15.228a1.384,1.384,0,1,0,2.769,0V1.384A1.384,1.384,0,0,0,399.228,0Zm0,0" transform="translate(-317.552)"/>
  <path id="Trazado_169086" data-name="Trazado 169086" d="M399.228,384a1.384,1.384,0,0,0-1.384,1.384v12.459H385.384a1.384,1.384,0,1,0,0,2.769h13.843a1.384,1.384,0,0,0,1.384-1.384V385.384A1.384,1.384,0,0,0,399.228,384Zm0,0" transform="translate(-317.552 -317.552)"/>
  <path id="Trazado_169087" data-name="Trazado 169087" d="M1.384,400.612H15.228a1.384,1.384,0,1,0,0-2.769H2.769V385.384a1.384,1.384,0,1,0-2.769,0v13.843A1.384,1.384,0,0,0,1.384,400.612Zm0,0" transform="translate(0 -317.552)"/>
  <path id="Trazado_169088" data-name="Trazado 169088" d="M64,167.84a1.384,1.384,0,1,0,2.769,0V137.384a1.384,1.384,0,1,0-2.769,0Zm0,0" transform="translate(-52.925 -112.466)"/>
  <path id="Trazado_169089" data-name="Trazado 169089" d="M145.384,163.687a1.384,1.384,0,0,0,1.384-1.384V137.384a1.384,1.384,0,1,0-2.769,0V162.3A1.384,1.384,0,0,0,145.384,163.687Zm0,0" transform="translate(-119.082 -112.466)"/>
  <path id="Trazado_169090" data-name="Trazado 169090" d="M97.384,163.687a1.384,1.384,0,0,0,1.384-1.384V137.384a1.384,1.384,0,1,0-2.769,0V162.3A1.384,1.384,0,0,0,97.384,163.687Zm0,0" transform="translate(-79.388 -112.466)"/>
  <path id="Trazado_169091" data-name="Trazado 169091" d="M177.384,163.687a1.384,1.384,0,0,0,1.384-1.384V137.384a1.384,1.384,0,1,0-2.769,0V162.3A1.384,1.384,0,0,0,177.384,163.687Zm0,0" transform="translate(-145.545 -112.466)"/>
  <path id="Trazado_169092" data-name="Trazado 169092" d="M209.384,163.687a1.384,1.384,0,0,0,1.384-1.384V137.384a1.384,1.384,0,0,0-2.769,0V162.3A1.384,1.384,0,0,0,209.384,163.687Zm0,0" transform="translate(-172.007 -112.466)"/>
  <path id="Trazado_169093" data-name="Trazado 169093" d="M257.384,163.687a1.384,1.384,0,0,0,1.384-1.384V137.384a1.384,1.384,0,0,0-2.769,0V162.3A1.384,1.384,0,0,0,257.384,163.687Zm0,0" transform="translate(-211.701 -112.466)"/>
  <path id="Trazado_169094" data-name="Trazado 169094" d="M321.384,163.687a1.384,1.384,0,0,0,1.384-1.384V137.384a1.384,1.384,0,0,0-2.769,0V162.3A1.384,1.384,0,0,0,321.384,163.687Zm0,0" transform="translate(-264.627 -112.466)"/>
  <path id="Trazado_169095" data-name="Trazado 169095" d="M289.384,163.687a1.384,1.384,0,0,0,1.384-1.384V137.384a1.384,1.384,0,0,0-2.769,0V162.3A1.384,1.384,0,0,0,289.384,163.687Zm0,0" transform="translate(-238.164 -112.466)"/>
  <path id="Trazado_169096" data-name="Trazado 169096" d="M369.384,163.687a1.384,1.384,0,0,0,1.384-1.384V137.384a1.384,1.384,0,0,0-2.769,0V162.3A1.384,1.384,0,0,0,369.384,163.687Zm0,0" transform="translate(-304.321 -112.466)"/>
  <path id="Trazado_169097" data-name="Trazado 169097" d="M401.384,169.224a1.384,1.384,0,0,0,1.384-1.384V137.384a1.384,1.384,0,1,0-2.769,0V167.84A1.384,1.384,0,0,0,401.384,169.224Zm0,0" transform="translate(-330.783 -112.466)"/>
  <path id="Trazado_169098" data-name="Trazado 169098" d="M368,312h2.769v2.769H368Zm0,0" transform="translate(-304.321 -258.011)"/>
  <path id="Trazado_169099" data-name="Trazado 169099" d="M320,312h2.769v2.769H320Zm0,0" transform="translate(-264.627 -258.011)"/>
  <path id="Trazado_169100" data-name="Trazado 169100" d="M288,312h2.769v2.769H288Zm0,0" transform="translate(-238.164 -258.011)"/>
  <path id="Trazado_169101" data-name="Trazado 169101" d="M256,312h2.769v2.769H256Zm0,0" transform="translate(-211.701 -258.011)"/>
  <path id="Trazado_169102" data-name="Trazado 169102" d="M208,312h2.769v2.769H208Zm0,0" transform="translate(-172.007 -258.011)"/>
  <path id="Trazado_169103" data-name="Trazado 169103" d="M176,312h2.769v2.769H176Zm0,0" transform="translate(-145.545 -258.011)"/>
  <path id="Trazado_169104" data-name="Trazado 169104" d="M144,312h2.769v2.769H144Zm0,0" transform="translate(-119.082 -258.011)"/>
  <path id="Trazado_169105" data-name="Trazado 169105" d="M96,312h2.769v2.769H96Zm0,0" transform="translate(-79.388 -258.011)"/>
</svg>
