<svg id="network" xmlns="http://www.w3.org/2000/svg" width="83" height="83" viewBox="0 0 83 83">
  <g id="Grupo_110415" data-name="Grupo 110415" transform="translate(1.215 1.216)">
    <g id="Grupo_110414" data-name="Grupo 110414">
      <g id="Grupo_110410" data-name="Grupo 110410" transform="translate(0 18.142)">
        <path id="Trazado_169127" data-name="Trazado 169127" d="M88.065,152.437A10.491,10.491,0,0,1,77.57,162.924H21.8A14.287,14.287,0,0,1,7.5,148.629q0-.615.052-1.216a14.308,14.308,0,0,1,23-10.1,21.781,21.781,0,0,1,18.93-17.757c.485-.055.976-.094,1.47-.117q.511-.024,1.029-.024a21.763,21.763,0,0,1,21.77,21.755c0,.512-.019,1.02-.053,1.522a10.5,10.5,0,0,1,14.376,9.746Z" transform="translate(-7.497 -119.414)" fill="#cde6fa"/>
        <g id="Grupo_110409" data-name="Grupo 110409" transform="translate(16.922 33.025)">
          <ellipse id="Elipse_5804" data-name="Elipse 5804" cx="2.432" cy="2.428" rx="2.432" ry="2.428" fill="#3eafa9"/>
          <ellipse id="Elipse_5805" data-name="Elipse 5805" cx="2.432" cy="2.428" rx="2.432" ry="2.428" transform="translate(20.931)" fill="#3eafa9"/>
          <ellipse id="Elipse_5806" data-name="Elipse 5806" cx="2.432" cy="2.428" rx="2.432" ry="2.428" transform="translate(41.863)" fill="#3eafa9"/>
        </g>
      </g>
      <g id="Grupo_110411" data-name="Grupo 110411" transform="translate(26.673 75.712)">
        <ellipse id="Elipse_5807" data-name="Elipse 5807" cx="2.432" cy="2.428" rx="2.432" ry="2.428" fill="#f76ba0"/>
        <ellipse id="Elipse_5808" data-name="Elipse 5808" cx="2.432" cy="2.428" rx="2.432" ry="2.428" transform="translate(22.361)" fill="#f76ba0"/>
      </g>
      <g id="Grupo_110412" data-name="Grupo 110412" transform="translate(11.41)">
        <ellipse id="Elipse_5809" data-name="Elipse 5809" cx="2.432" cy="2.428" rx="2.432" ry="2.428" transform="translate(26.443)" fill="#3eafa9"/>
        <ellipse id="Elipse_5810" data-name="Elipse 5810" cx="2.432" cy="2.428" rx="2.432" ry="2.428" fill="#3eafa9"/>
        <ellipse id="Elipse_5811" data-name="Elipse 5811" cx="2.432" cy="2.428" rx="2.432" ry="2.428" transform="translate(52.809)" fill="#3eafa9"/>
      </g>
      <g id="Grupo_110413" data-name="Grupo 110413" transform="translate(26.673 4.087)">
        <ellipse id="Elipse_5812" data-name="Elipse 5812" cx="2.432" cy="2.428" rx="2.432" ry="2.428" fill="#f76ba0"/>
        <ellipse id="Elipse_5813" data-name="Elipse 5813" cx="2.432" cy="2.428" rx="2.432" ry="2.428" transform="translate(22.361)" fill="#f76ba0"/>
      </g>
    </g>
  </g>
  <g id="Grupo_110416" data-name="Grupo 110416" transform="translate(0 0)">
    <path id="Trazado_169129" data-name="Trazado 169129" d="M16.737,240.377a1.216,1.216,0,0,0-1.216-1.216,13.081,13.081,0,0,1-5.415-24.992A1.216,1.216,0,1,0,9.1,211.956a15.512,15.512,0,0,0,6.422,29.637A1.216,1.216,0,0,0,16.737,240.377Z" transform="translate(0 -177.504)"/>
    <path id="Trazado_169130" data-name="Trazado 169130" d="M84.431,37.475a20.565,20.565,0,0,1,38.4-5.978,1.216,1.216,0,1,0,2.147-1.141,23.125,23.125,0,0,0-2.356-3.586V10.563l2.941-3.5A3.649,3.649,0,1,0,123.7,5.5l-3.225,3.843a1.216,1.216,0,0,0-.285.782V24.169a22.934,22.934,0,0,0-7.319-4.515V11.167a3.647,3.647,0,1,0-2.432,0v7.712a23.189,23.189,0,0,0-8.749-.541V7.08a3.647,3.647,0,1,0-2.432,0V18.785A22.952,22.952,0,0,0,90.507,23V11.167a3.647,3.647,0,1,0-2.432,0V25.195a22.848,22.848,0,0,0-5.641,10.051,15.379,15.379,0,0,0-1.755-.9V10.12a1.216,1.216,0,0,0-.285-.782L77.169,5.5a3.645,3.645,0,1,0-1.863,1.562l2.941,3.5V33.519a15.626,15.626,0,0,0-3.754-.453,1.216,1.216,0,0,0,0,2.432,12.969,12.969,0,0,1,8,2.725,1.216,1.216,0,0,0,1.94-.748ZM126.838,2.432a1.213,1.213,0,1,1-1.216,1.213A1.215,1.215,0,0,1,126.838,2.432ZM111.652,6.518a1.213,1.213,0,1,1-1.216,1.213A1.216,1.216,0,0,1,111.652,6.518Zm-11.18-4.087a1.213,1.213,0,1,1-1.216,1.213,1.215,1.215,0,0,1,1.216-1.213ZM89.291,6.518a1.213,1.213,0,1,1-1.216,1.213A1.216,1.216,0,0,1,89.291,6.518ZM72.813,3.644a1.216,1.216,0,1,1,1.216,1.213A1.215,1.215,0,0,1,72.813,3.644Z" transform="translate(-58.972 0)"/>
    <path id="Trazado_169131" data-name="Trazado 169131" d="M410.843,221.674a11.729,11.729,0,0,0-2.614.293,23.076,23.076,0,0,0-.581-5.016,1.216,1.216,0,1,0-2.37.544,20.646,20.646,0,0,1,.52,4.613c0,.475-.017.96-.05,1.44a1.216,1.216,0,0,0,1.663,1.214,9.273,9.273,0,1,1,3.433,17.886h-3.987a1.216,1.216,0,0,0,0,2.432h3.987a11.7,11.7,0,1,0,0-23.4Z" transform="translate(-339.552 -180.99)"/>
    <path id="Trazado_169132" data-name="Trazado 169132" d="M291,380.343H279.731a1.216,1.216,0,0,0,0,2.432h5.1v11.831a3.647,3.647,0,1,0,2.432,0V382.775H291a1.216,1.216,0,0,0,0-2.432Zm-4.953,18.911a1.213,1.213,0,1,1,1.216-1.213A1.215,1.215,0,0,1,286.045,399.254Z" transform="translate(-233.365 -318.686)"/>
    <path id="Trazado_169133" data-name="Trazado 169133" d="M162.455,380.343H151.384a1.216,1.216,0,1,0,0,2.432h3.544v11.831a3.647,3.647,0,1,0,2.432,0V382.775h5.1a1.216,1.216,0,0,0,0-2.432Zm-6.311,18.911a1.213,1.213,0,1,1,1.216-1.213A1.215,1.215,0,0,1,156.144,399.254Z" transform="translate(-125.824 -318.686)"/>
    <path id="Trazado_169134" data-name="Trazado 169134" d="M92.506,315.637a3.644,3.644,0,0,0-1.216,7.08v16.618l-5.15,6.137A1.216,1.216,0,1,0,88,347.035l5.435-6.476a1.216,1.216,0,0,0,.285-.781v-17.06a3.644,3.644,0,0,0-1.216-7.08Zm0,4.857a1.213,1.213,0,1,1,1.216-1.213A1.215,1.215,0,0,1,92.506,320.494Z" transform="translate(-71.938 -264.469)"/>
    <path id="Trazado_169135" data-name="Trazado 169135" d="M237.147,315.637a3.644,3.644,0,0,0-1.216,7.08v23.536a1.216,1.216,0,0,0,2.432,0V322.717a3.644,3.644,0,0,0-1.216-7.08Zm0,4.857a1.213,1.213,0,1,1,1.216-1.213A1.215,1.215,0,0,1,237.147,320.494Z" transform="translate(-195.647 -264.469)"/>
    <path id="Trazado_169136" data-name="Trazado 169136" d="M367.482,339.335V322.717a3.647,3.647,0,1,0-2.432,0v17.06a1.216,1.216,0,0,0,.285.782l5.435,6.476a1.216,1.216,0,0,0,1.863-1.563Zm-1.216-21.266a1.213,1.213,0,1,1-1.216,1.213A1.216,1.216,0,0,1,366.266,318.069Z" transform="translate(-303.835 -264.469)"/>
  </g>
</svg>
