<svg id="distribucion" xmlns="http://www.w3.org/2000/svg" width="90" height="90" viewBox="0 0 90 90">
  <g id="Grupo_110215" data-name="Grupo 110215" transform="translate(1.318 1.318)">
    <path id="Trazado_168837" data-name="Trazado 168837" d="M25.2,16.352c0,4.888-6.949,17.954-8.852,17.954S7.5,21.24,7.5,16.352a8.852,8.852,0,1,1,17.7,0Zm0,0" transform="translate(-7.5 -7.5)" fill="#ba68c8"/>
    <path id="Trazado_168838" data-name="Trazado 168838" d="M421.489,16.352c0,4.888-6.949,17.954-8.852,17.954s-8.852-13.066-8.852-17.954a8.852,8.852,0,1,1,17.7,0Zm0,0" transform="translate(-334.126 -7.5)" fill="#ba68c8"/>
    <path id="Trazado_168839" data-name="Trazado 168839" d="M223.341,16.352c0,4.889-6.949,17.954-8.852,17.954s-8.852-13.066-8.852-17.954a8.852,8.852,0,1,1,17.7,0Zm0,0" transform="translate(-170.808 -7.5)" fill="#ba68c8"/>
  </g>
  <path id="Trazado_168843" data-name="Trazado 168843" d="M160.324,347.57H193.96v23.217H160.324Zm0,0" transform="translate(-132.142 -286.474)" fill="#5c22c3"/>
  <path id="Trazado_168844" data-name="Trazado 168844" d="M130.324,273.627V302.3H135.6V279.086h33.636V302.3h5.273V273.627l-22.092-9.146Zm0,0" transform="translate(-107.416 -217.99)" fill="#d9d100"/>
  <path id="Trazado_168846" data-name="Trazado 168846" d="M143.349,238.168l-24.024,9.947v4.625l24.024-9.947,24.026,9.947v-4.625Zm0,0" transform="translate(-98.349 -196.303)" fill="#ba68c8"/>
  <path id="Trazado_168847" data-name="Trazado 168847" d="M243.223,291.561a3.463,3.463,0,1,1-3.463-3.463A3.463,3.463,0,0,1,243.223,291.561Zm0,0" transform="translate(-194.76 -237.455)" fill="#ba68c8"/>
  <path id="Trazado_168848" data-name="Trazado 168848" d="M119.324,479.648h48.05v4.368h-48.05Zm0,0" transform="translate(-98.349 -395.335)" fill="#ba68c8"/>
  <path id="Trazado_168849" data-name="Trazado 168849" d="M42.234,38.291A4.236,4.236,0,1,1,38,34.055,4.236,4.236,0,0,1,42.234,38.291Zm0,0" transform="translate(-27.827 -28.069)" fill="#cde6fa"/>
  <path id="Trazado_168850" data-name="Trazado 168850" d="M438.515,38.291a4.236,4.236,0,1,1-4.236-4.236A4.236,4.236,0,0,1,438.515,38.291Zm0,0" transform="translate(-354.449 -28.069)" fill="#cde6fa"/>
  <path id="Trazado_168851" data-name="Trazado 168851" d="M240.37,38.291a4.236,4.236,0,1,1-4.236-4.236A4.236,4.236,0,0,1,240.37,38.291Zm0,0" transform="translate(-191.135 -28.069)" fill="#cde6fa"/>
  <path id="Trazado_168865" data-name="Trazado 168865" d="M111.824,240.543v7.48l1.934-.8V270.41h2.637V246.13l20.772-8.6,20.774,8.6v24.28h2.637V247.222l1.934.8v-7.48l-25.344-10.492Zm48.05,3.534-22.707-9.4-22.706,9.4v-1.772l22.706-9.4,22.707,9.4Zm0,0" transform="translate(-92.168 -189.612)"/>
  <path id="Trazado_168866" data-name="Trazado 168866" d="M238.36,285.379a4.781,4.781,0,1,0-4.782,4.781A4.787,4.787,0,0,0,238.36,285.379Zm-6.926,0a2.145,2.145,0,1,1,2.144,2.144A2.147,2.147,0,0,1,231.434,285.379Zm0,0" transform="translate(-188.579 -231.274)"/>
  <path id="Trazado_168867" data-name="Trazado 168867" d="M152.824,361.089h2.637v-.963h31v.963H189.1V340.07H152.824Zm2.637-3.6v-2.8h31v2.8Zm0-5.435v-2.692h31v2.692Zm31-9.348v4.019h-31v-4.019Zm0,0" transform="translate(-125.961 -280.292)"/>
  <path id="Trazado_168868" data-name="Trazado 168868" d="M111.824,479.15h50.687v-7.006H111.824Zm2.637-4.369h45.413v1.732H114.461Zm0,0" transform="translate(-92.168 -389.15)"/>
  <path id="Trazado_168869" data-name="Trazado 168869" d="M37.37,32.105a5.554,5.554,0,1,0-5.554,5.554A5.56,5.56,0,0,0,37.37,32.105Zm-8.471,0a2.918,2.918,0,1,1,2.917,2.918A2.92,2.92,0,0,1,28.9,32.105Zm0,0" transform="translate(-21.645 -21.884)"/>
  <path id="Trazado_168870" data-name="Trazado 168870" d="M79.83,0A10.182,10.182,0,0,0,69.66,10.17c0,3.562,2.951,9.634,3.856,11.409,2.4,4.715,3.987,6.6,5,7.359v4.724H46.318V28.938c1.009-.756,2.595-2.644,5-7.359.9-1.776,3.856-7.847,3.856-11.409a10.17,10.17,0,0,0-20.34,0c0,3.562,2.951,9.634,3.856,11.409,2.4,4.715,3.988,6.6,5,7.359v4.724H11.488V28.938c1.009-.756,2.595-2.644,5-7.359.9-1.776,3.856-7.847,3.856-11.409A10.17,10.17,0,0,0,0,10.17C0,13.732,2.951,19.8,3.856,21.579c2.4,4.715,3.987,6.6,5,7.359V36.3H43.681v2.93h2.637V36.3H81.148V28.938c1.009-.756,2.595-2.644,5-7.359C87.049,19.8,90,13.732,90,10.17A10.181,10.181,0,0,0,79.83,0ZM40.737,19.79C38.75,15.774,37.466,12,37.466,10.17a7.534,7.534,0,0,1,15.067,0c0,1.828-1.284,5.6-3.271,9.621A29.956,29.956,0,0,1,45,26.628,29.963,29.963,0,0,1,40.737,19.79Zm-34.829,0C3.921,15.774,2.637,12,2.637,10.17a7.534,7.534,0,0,1,15.067,0c0,1.828-1.284,5.6-3.271,9.621a29.956,29.956,0,0,1-4.263,6.838A29.989,29.989,0,0,1,5.908,19.79Zm78.184,0a29.989,29.989,0,0,1-4.262,6.838,29.956,29.956,0,0,1-4.263-6.838C73.58,15.774,72.3,12,72.3,10.17a7.534,7.534,0,0,1,15.067,0C87.363,12,86.079,15.774,84.092,19.79Zm0,0"/>
  <path id="Trazado_168871" data-name="Trazado 168871" d="M428.1,26.555a5.554,5.554,0,1,0,5.554,5.554A5.56,5.56,0,0,0,428.1,26.555Zm0,8.471a2.918,2.918,0,1,1,2.918-2.918A2.92,2.92,0,0,1,428.1,35.026Zm0,0" transform="translate(-348.271 -21.887)"/>
  <path id="Trazado_168872" data-name="Trazado 168872" d="M235.507,32.105a5.554,5.554,0,1,0-5.554,5.554A5.56,5.56,0,0,0,235.507,32.105Zm-8.472,0a2.918,2.918,0,1,1,2.918,2.918A2.921,2.921,0,0,1,227.035,32.105Zm0,0" transform="translate(-184.953 -21.884)"/>
</svg>
