<svg xmlns="http://www.w3.org/2000/svg" width="69.492" height="90" viewBox="0 0 69.492 90">
  <g id="app" transform="translate(-58.334)">
    <path id="Trazado_168753" data-name="Trazado 168753" d="M75.89,10h30.357a7.578,7.578,0,0,1,7.555,7.555v15.62H93.3V68.991H113.8V88.929a7.578,7.578,0,0,1-7.555,7.555H75.89a7.578,7.578,0,0,1-7.555-7.555V17.555A7.578,7.578,0,0,1,75.89,10Z" transform="translate(-8.243 -8.242)" fill="#ebf6ff" fill-rule="evenodd"/>
    <path id="Trazado_168754" data-name="Trazado 168754" d="M113.8,424.478H68.335v6.072A7.578,7.578,0,0,0,75.89,438.1h30.357a7.578,7.578,0,0,0,7.555-7.555v-6.072Z" transform="translate(-8.243 -349.863)" fill="#5c22c3" fill-rule="evenodd"/>
    <path id="Trazado_168755" data-name="Trazado 168755" d="M113.8,20.749H68.335V17.555A7.578,7.578,0,0,1,75.89,10h30.357a7.578,7.578,0,0,1,7.555,7.555v3.193Z" transform="translate(-8.243 -8.242)" fill="#5c22c3" fill-rule="evenodd"/>
    <rect id="Rectángulo_36460" data-name="Rectángulo 36460" width="41.016" height="35.814" transform="translate(85.052 24.934)" fill="#daa857"/>
    <path id="Trazado_168762" data-name="Trazado 168762" d="M0,0H13.821V11.216H0Z" transform="translate(98.65 24.934)" fill="#ba68c8"/>
    <g id="Grupo_110180" data-name="Grupo 110180" transform="translate(58.334 0)">
      <path id="Trazado_168756" data-name="Trazado 168756" d="M293.266,278.453h-13.82a1.758,1.758,0,0,0,0,3.516h13.82a1.758,1.758,0,0,0,0-3.516Z" transform="translate(-239.13 -229.506)" fill-rule="evenodd"/>
      <path id="Trazado_168757" data-name="Trazado 168757" d="M163.2,155.814a1.758,1.758,0,0,0-1.758,1.758V184.96a1.758,1.758,0,1,0,3.516,0V157.572A1.758,1.758,0,0,0,163.2,155.814Z" transform="translate(-143.316 -128.425)" fill-rule="evenodd"/>
      <path id="Trazado_168758" data-name="Trazado 168758" d="M156.037,456.754h11.738a1.758,1.758,0,0,0,0-3.516H156.037a1.758,1.758,0,1,0,0,3.516Z" transform="translate(-137.414 -373.567)" fill-rule="evenodd"/>
      <path id="Trazado_168759" data-name="Trazado 168759" d="M124.306,184.213a1.758,1.758,0,0,0-1.758,1.758v17.4a1.758,1.758,0,0,0,3.516,0v-17.4A1.758,1.758,0,0,0,124.306,184.213Z" transform="translate(-111.26 -151.832)" fill-rule="evenodd"/>
      <path id="Trazado_168760" data-name="Trazado 168760" d="M126.068,23.176h-18.75V9.313A9.324,9.324,0,0,0,98,0H67.647a9.324,9.324,0,0,0-9.313,9.313V80.687A9.324,9.324,0,0,0,67.647,90H98a9.324,9.324,0,0,0,9.313-9.313V62.506h18.75a1.758,1.758,0,0,0,1.758-1.758V24.934A1.758,1.758,0,0,0,126.068,23.176Zm-25.66,3.516h10.3v7.7h-10.3ZM61.85,9.313a5.8,5.8,0,0,1,5.8-5.8H98a5.8,5.8,0,0,1,5.8,5.8v1.435H61.85ZM103.8,80.687a5.8,5.8,0,0,1-5.8,5.8H67.647a5.8,5.8,0,0,1-5.8-5.8V76.373H103.8Zm20.508-21.7H86.81V49.872a1.758,1.758,0,1,0-3.516,0V60.748a1.758,1.758,0,0,0,1.758,1.758H103.8V72.858H61.85V14.264H103.8v8.912H85.053a1.758,1.758,0,0,0-1.758,1.758V35.81a1.758,1.758,0,1,0,3.516,0V26.692H96.892v9.458a1.758,1.758,0,0,0,1.758,1.758h13.82a1.758,1.758,0,0,0,1.758-1.758V26.692H124.31v32.3Z" transform="translate(-58.334 0)" fill-rule="evenodd"/>
      <path id="Trazado_168761" data-name="Trazado 168761" d="M202.091,233.718a1.758,1.758,0,1,0,1.758,1.758A1.761,1.761,0,0,0,202.091,233.718Z" transform="translate(-175.372 -192.635)" fill-rule="evenodd"/>
    </g>
  </g>
</svg>
