<svg xmlns="http://www.w3.org/2000/svg" width="120" height="120" viewBox="0 0 120 120">
  <g id="Grupo_110534" data-name="Grupo 110534" transform="translate(-320 -7415)">
    <g id="Rectángulo_36484" data-name="Rectángulo 36484" transform="translate(320 7415)" fill="#fff" stroke="#5c22c3" stroke-width="4">
      <rect width="120" height="120" stroke="none"/>
      <rect x="2" y="2" width="116" height="116" fill="none"/>
    </g>
    <g id="auction" transform="translate(340 7434.999)">
      <path id="Trazado_169225" data-name="Trazado 169225" d="M390.38,379.783a7.7,7.7,0,0,1,.258,7.825,7.833,7.833,0,0,1-12.428,1.831q-.227-.227-.431-.469l-6.642-7.631,10.031-10.031,7.623,6.65A8.278,8.278,0,0,1,390.38,379.783Z" transform="translate(-313.146 -313.29)" fill="#91552c"/>
      <path id="Trazado_169226" data-name="Trazado 169226" d="M358.952,349.076l-10.031,10.031-4.114-4.728.028-.025,9.39-9.39,0,0Z" transform="translate(-290.93 -291.058)" fill="#ba68c8"/>
      <path id="Trazado_169227" data-name="Trazado 169227" d="M200.96,24.632a4.687,4.687,0,1,1-6.628,6.629L181.073,18a4.687,4.687,0,1,1,6.629-6.628Z" transform="translate(-151.622 -8.437)" fill="#91552c"/>
      <path id="Trazado_169228" data-name="Trazado 169228" d="M89.492,69.608,84,75.1l-.03.028L75.129,83.97c-.009.009-.019.019-.028.03l-5.5,5.5-1.1-1.1L55.242,75.132l-1.1-1.1L74.024,54.14l1.1,1.1L88.388,68.5Z" transform="translate(-45.678 -45.68)" fill="#afa800"/>
      <g id="Grupo_110454" data-name="Grupo 110454" transform="translate(1.563 28.08)">
        <path id="Trazado_169229" data-name="Trazado 169229" d="M195.693,189.067l1.1-1.1a3.125,3.125,0,0,0-4.391-4.448l-8.9,8.9a3.125,3.125,0,0,0,4.448,4.39l1.1-1.1,18.9,21.715.028-.025,9.39-9.39,0,0Z" transform="translate(-155.65 -182.171)" fill="#91552c"/>
        <path id="Trazado_169230" data-name="Trazado 169230" d="M50.624,458.234V459.8H10v-1.562a6.25,6.25,0,0,1,6.25-6.25H44.374A6.25,6.25,0,0,1,50.624,458.234Z" transform="translate(-10 -409.44)" fill="#64b5f6"/>
        <path id="Trazado_169231" data-name="Trazado 169231" d="M60.467,401.987a3.906,3.906,0,1,1,0,7.812H33.905a3.906,3.906,0,1,1,0-7.812Z" transform="translate(-26.874 -367.255)" fill="#91552c"/>
        <path id="Trazado_169232" data-name="Trazado 169232" d="M31.26,194.336a4.687,4.687,0,0,1-6.629,6.628L11.373,187.706A4.687,4.687,0,0,1,18,181.077Z" transform="translate(-10 -179.705)" fill="#91552c"/>
      </g>
      <path id="Trazado_169233" data-name="Trazado 169233" d="M101.162,171.877a1.562,1.562,0,1,0,2.209,0A1.561,1.561,0,0,0,101.162,171.877Z" transform="translate(-84.968 -144.635)"/>
      <path id="Trazado_169234" data-name="Trazado 169234" d="M39.563,400.7a5.47,5.47,0,0,0-4.407-8.708H8.594a5.465,5.465,0,0,0-4.4,8.706A7.819,7.819,0,0,0,0,407.612v1.563a1.563,1.563,0,0,0,1.563,1.563H42.186a1.563,1.563,0,0,0,1.563-1.563v-1.562A7.818,7.818,0,0,0,39.563,400.7ZM6.936,395.8a2.328,2.328,0,0,1,1.658-.686H35.155a2.344,2.344,0,1,1,0,4.687H8.594a2.344,2.344,0,0,1-1.658-4ZM3.125,407.612a4.693,4.693,0,0,1,4.687-4.687H35.937a4.693,4.693,0,0,1,4.687,4.687Z" transform="translate(0 -330.738)"/>
      <path id="Trazado_169235" data-name="Trazado 169235" d="M78.564,65.646a9.839,9.839,0,0,0-1.882-2.161l-7.3-6.368a1.551,1.551,0,0,0-.622-.542l-4.415-3.851L43.908,34.9a4.679,4.679,0,0,0-1.372-7.463l1.891-1.891a6.254,6.254,0,0,0,6.033-1.615,6.249,6.249,0,0,0,0-8.839L37.2,1.832A6.248,6.248,0,0,0,26.749,7.866L7.885,26.729a6.288,6.288,0,0,0-1.618-.212A6.249,6.249,0,0,0,1.849,37.186L15.106,50.444A6.248,6.248,0,0,0,25.56,44.41l1.887-1.887a4.689,4.689,0,0,0,7.465,1.37L56.679,68.9a1.57,1.57,0,0,0,.212.265c.028.028.058.053.087.079L63.464,76.7c.161.19.334.378.513.556A9.293,9.293,0,0,0,70.582,80,9.591,9.591,0,0,0,71.9,79.91a9.455,9.455,0,0,0,6.976-4.829A9.246,9.246,0,0,0,78.564,65.646ZM56.031,63.4l7.359-7.359,2.36,2.059L58.088,65.76ZM37.129,41.68,41.7,37.113,61.03,53.978l-7.055,7.056ZM30.573,4.042a3.124,3.124,0,0,1,4.42,0L48.251,17.3a3.125,3.125,0,0,1-4.418,4.42L30.574,8.461h0A3.127,3.127,0,0,1,30.573,4.042ZM21.736,48.234a3.129,3.129,0,0,1-4.42,0L4.058,34.976a3.125,3.125,0,0,1,4.417-4.421l13.26,13.26A3.127,3.127,0,0,1,21.736,48.234ZM10.686,28.347,28.364,10.67,41.622,23.929l-4.377,4.377-.043.041-8.834,8.834-.054.056-4.369,4.369ZM31.678,42.064a1.562,1.562,0,0,1-1.124-2.648L39.43,30.54a1.563,1.563,0,0,1,2.651,1.122,1.548,1.548,0,0,1-.458,1.1l-1.094,1.094-.022.022L33.893,40.5l-.009.009-1.1,1.1A1.553,1.553,0,0,1,31.678,42.064ZM76.146,73.554a6.356,6.356,0,0,1-4.678,3.261,6.208,6.208,0,0,1-5.282-1.771c-.12-.12-.235-.245-.342-.372l-.015-.018-5.684-6.532,7.967-7.968,6.523,5.69.015.013a6.726,6.726,0,0,1,1.289,1.483A6.169,6.169,0,0,1,76.146,73.554Z" transform="translate(-0.018)"/>
      <path id="Trazado_169236" data-name="Trazado 169236" d="M138.282,101.165a1.563,1.563,0,0,0-2.21,0l-6.629,6.629a1.562,1.562,0,1,0,2.21,2.21l6.629-6.629A1.562,1.562,0,0,0,138.282,101.165Z" transform="translate(-108.831 -84.971)"/>
    </g>
  </g>
</svg>
