<svg xmlns="http://www.w3.org/2000/svg" width="120" height="120" viewBox="0 0 120 120">
  <g id="Grupo_110598" data-name="Grupo 110598" transform="translate(-320 -3220)">
    <g id="Grupo_110597" data-name="Grupo 110597">
      <g id="Rectángulo_36484" data-name="Rectángulo 36484" transform="translate(320 3220)" fill="#fff" stroke="#5c22c3" stroke-width="4">
        <rect width="120" height="120" stroke="none"/>
        <rect x="2" y="2" width="116" height="116" fill="none"/>
      </g>
      <g id="cemento" transform="translate(345 3248)">
        <path id="Trazado_168874" data-name="Trazado 168874" d="M200.924,82.424q-.284-.164-.569-.31c6.466-9.343,6.077-35.516-.327-45.084q.448-.215.9-.474c3.214-1.852,3.924-3.953,3.021-5.52s-3.076-2.006-6.29-.154a12.339,12.339,0,0,0-2.827,2.2c-7.012-2.571-20.026-2.571-27.038,0a12.351,12.351,0,0,0-2.827-2.2c-3.214-1.852-5.388-1.413-6.29.154s-.193,3.668,3.021,5.52q.448.258.9.474c-6.4,9.567-6.793,35.74-.327,45.084q-.285.147-.569.31c-3.214,1.852-3.924,3.953-3.021,5.52s3.076,2.007,6.291.155a12.45,12.45,0,0,0,2.747-2.115c7.171,2.459,20.025,2.459,27.2,0a12.436,12.436,0,0,0,2.747,2.115c3.214,1.852,5.388,1.413,6.291-.155S204.138,84.276,200.924,82.424Zm0,0" transform="translate(-136.05 -25.612)" fill="#afa800"/>
        <path id="Trazado_168876" data-name="Trazado 168876" d="M74.034,70.441,84.066,98l-5.584,2.033L68.449,72.474a8.276,8.276,0,0,0,5.585-2.033Zm0,0" transform="translate(-59.091 -60.811)" fill="#5c22c3"/>
        <path id="Trazado_168878" data-name="Trazado 168878" d="M240.734,150.9v6a3.7,3.7,0,0,0,3.7,3.7h17.3a3.7,3.7,0,0,0,3.7-3.7v-6a3.7,3.7,0,0,0-3.7-3.7h-17.3A3.7,3.7,0,0,0,240.734,150.9Zm0,0" transform="translate(-207.821 -127.078)" fill="#fff972"/>
        <path id="Trazado_168879" data-name="Trazado 168879" d="M52.317,270.717a10.7,10.7,0,0,0-8.608-10.495,12.806,12.806,0,1,0-25.19,3.734,7.014,7.014,0,0,0-5.157,6.761H11.416A3.916,3.916,0,0,0,7.5,274.633v2.642a.453.453,0,0,0,.453.452H58.436a.453.453,0,0,0,.453-.452v-2.642a3.916,3.916,0,0,0-3.916-3.916Zm0,0" transform="translate(-6.475 -214.027)" fill="#aabfd5"/>
        <path id="Trazado_168881" data-name="Trazado 168881" d="M159.183,30.95a33.177,33.177,0,0,0-3.347,9.787,1.026,1.026,0,0,0,2.012.4,28.627,28.627,0,0,1,3.634-10.01,1.026,1.026,0,0,0-.407-1.494c-.28-.135-.559-.282-.829-.438a6.222,6.222,0,0,1-2.646-2.43,1.713,1.713,0,0,1,0-1.69c.7-1.22,2.531-1.137,4.89.222a11.362,11.362,0,0,1,2.59,2.012,1.026,1.026,0,0,0,1.1.262c6.767-2.482,19.564-2.482,26.332,0a1.025,1.025,0,0,0,1.1-.262,11.363,11.363,0,0,1,2.59-2.012,6.237,6.237,0,0,1,3.428-1.07,1.714,1.714,0,0,1,1.462.849c.7,1.22-.286,2.76-2.645,4.119-.271.156-.551.3-.83.438a1.026,1.026,0,0,0-.407,1.494,24.6,24.6,0,0,1,3.039,7.4,1.025,1.025,0,0,0,1.985-.516,28.912,28.912,0,0,0-2.724-7.064c4.05-2.35,4.393-5.1,3.358-6.9a3.747,3.747,0,0,0-3.095-1.87,8.285,8.285,0,0,0-4.6,1.339,13.867,13.867,0,0,0-2.585,1.907c-7.16-2.372-19.337-2.372-26.5,0a13.871,13.871,0,0,0-2.586-1.907c-4.088-2.356-6.653-1.271-7.69.531a3.747,3.747,0,0,0-.066,3.616A8.248,8.248,0,0,0,159.183,30.95Zm0,0" transform="translate(-134.091 -19.139)"/>
        <path id="Trazado_168882" data-name="Trazado 168882" d="M419.607,163.61a1.025,1.025,0,1,0-2.021.345c2.1,12.288.53,26.55-3.566,32.469a1.026,1.026,0,0,0,.373,1.495c.182.093.359.19.527.287,2.359,1.36,3.348,2.9,2.645,4.12a1.714,1.714,0,0,1-1.462.849,6.222,6.222,0,0,1-3.428-1.071,11.455,11.455,0,0,1-2.519-1.936,1.026,1.026,0,0,0-1.072-.26c-.675.231-1.422.446-2.22.638a1.025,1.025,0,0,0,.478,1.994c.631-.152,1.234-.317,1.8-.493a13.952,13.952,0,0,0,2.509,1.835,8.7,8.7,0,0,0,4.242,1.352c.119,0,.237,0,.354-.012a3.749,3.749,0,0,0,3.1-1.87c1.006-1.746.71-4.4-3.033-6.7,2.431-4.128,3.462-9.956,3.9-14.27A71.856,71.856,0,0,0,419.607,163.61Zm0,0" transform="translate(-350.557 -140.505)"/>
        <path id="Trazado_168883" data-name="Trazado 168883" d="M259.977,150.429v-6a4.728,4.728,0,0,0-4.723-4.723h-17.3a4.728,4.728,0,0,0-4.723,4.723v6a4.728,4.728,0,0,0,4.723,4.723h17.3A4.728,4.728,0,0,0,259.977,150.429Zm-2.051,0a2.675,2.675,0,0,1-2.672,2.672h-17.3a2.675,2.675,0,0,1-2.672-2.672v-6a2.675,2.675,0,0,1,2.672-2.672h17.3a2.675,2.675,0,0,1,2.672,2.672Zm0,0" transform="translate(-201.347 -120.604)"/>
        <path id="Trazado_168884" data-name="Trazado 168884" d="M48.5,55.664H46.822A11.758,11.758,0,0,0,38.206,45.37a13.832,13.832,0,0,0-13.713-12.5L16.136,9.912A9.334,9.334,0,0,0,18.67,1.973,2.346,2.346,0,0,0,15.552.142L2.793,4.786A2.346,2.346,0,0,0,1.581,8.194a9.334,9.334,0,0,0,7.043,4.452l8.2,22.521a14,14,0,0,0-4.1,4.216,1.025,1.025,0,1,0,1.736,1.092,11.772,11.772,0,0,1,21.756,5.76,1.025,1.025,0,0,0,.825.966,9.693,9.693,0,0,1,7.782,9.489,1.025,1.025,0,0,0,1.025,1.025H48.5a2.894,2.894,0,0,1,2.891,2.89v2.069H2.051V60.606a2.894,2.894,0,0,1,2.89-2.89H6.887A1.026,1.026,0,0,0,7.912,56.69a6,6,0,0,1,4.4-5.773,1.025,1.025,0,0,0,.722-1.246,11.851,11.851,0,0,1-.364-3.554,11.655,11.655,0,0,1,.31-2.163,1.025,1.025,0,0,0-1.994-.481,13.744,13.744,0,0,0-.365,2.544,13.934,13.934,0,0,0,.219,3.239,8.064,8.064,0,0,0-4.917,6.408H4.942A4.947,4.947,0,0,0,0,60.606v2.642a1.48,1.48,0,0,0,1.478,1.478H51.961a1.48,1.48,0,0,0,1.478-1.478V60.606A4.947,4.947,0,0,0,48.5,55.664ZM3.341,7.14a.294.294,0,0,1,.153-.427L16.253,2.068a.3.3,0,0,1,.392.229,7.219,7.219,0,0,1-7.266,8.34A7.259,7.259,0,0,1,3.341,7.14Zm7.45,5.462a9.355,9.355,0,0,0,3.658-1.331l7.918,21.754a13.71,13.71,0,0,0-3.734,1.125Zm0,0" transform="translate(0 0)"/>
        <path id="Trazado_168885" data-name="Trazado 168885" d="M228.26,370.849a2.572,2.572,0,0,1,4.008,2.133,1.025,1.025,0,1,0,2.051,0,4.623,4.623,0,0,0-7.207-3.832,1.025,1.025,0,0,0,1.148,1.7Zm0,0" transform="translate(-195.672 -317.998)"/>
        <path id="Trazado_168886" data-name="Trazado 168886" d="M102.18,391.555a1.025,1.025,0,1,0,1.634,1.238,2.315,2.315,0,0,1,3.378-.338,1.025,1.025,0,0,0,1.358-1.536,4.364,4.364,0,0,0-6.37.636Zm0,0" transform="translate(-88.03 -336.528)"/>
        <path id="Trazado_168887" data-name="Trazado 168887" d="M146.367,301.834a1.026,1.026,0,0,0,.934-.6,2.1,2.1,0,0,1,3.46-.554,1.025,1.025,0,0,0,1.508-1.39,4.154,4.154,0,0,0-6.835,1.1,1.025,1.025,0,0,0,.933,1.449Zm0,0" transform="translate(-125.471 -257.217)"/>
      </g>
    </g>
  </g>
</svg>
