<svg xmlns="http://www.w3.org/2000/svg" width="295" height="268" viewBox="0 0 295 268">
  <g id="Grupo_110418" data-name="Grupo 110418" transform="translate(-285 -6524)">
    <rect id="Rectángulo_36671" data-name="Rectángulo 36671" width="252" height="266" transform="translate(307 6526)" fill="#cde6fa"/>
    <g id="Grupo_110351" data-name="Grupo 110351" transform="translate(285 6524)">
      <rect id="Rectángulo_36673" data-name="Rectángulo 36673" width="42" height="42" fill="#ba68c8"/>
      <rect id="Rectángulo_36674" data-name="Rectángulo 36674" width="42" height="42" transform="translate(253 224)" fill="#64b5f6"/>
      <g id="inventario-3" transform="translate(86 66)">
        <g id="Grupo_110438" data-name="Grupo 110438" transform="translate(2.984 2.984)">
          <g id="Grupo_110419" data-name="Grupo 110419" transform="translate(79.355 79.355)">
            <path id="Trazado_169137" data-name="Trazado 169137" d="M79.694,42H42V79.694a1.99,1.99,0,0,0,1.984,1.984h35.71a1.99,1.99,0,0,0,1.984-1.984V43.984A1.99,1.99,0,0,0,79.694,42Z" transform="translate(-42 -42)" fill="#d3a06c"/>
          </g>
          <g id="Grupo_110420" data-name="Grupo 110420" transform="translate(75.387 0)">
            <path id="Trazado_169138" data-name="Trazado 169138" d="M77.694,2H41.984A1.99,1.99,0,0,0,40,3.984V41.677H77.694a1.99,1.99,0,0,0,1.984-1.984V3.984A1.99,1.99,0,0,0,77.694,2Z" transform="translate(-40 -2)" fill="#d3a06c"/>
          </g>
          <g id="Grupo_110421" data-name="Grupo 110421" transform="translate(67.432 39.677)">
            <path id="Trazado_169139" data-name="Trazado 169139" d="M37.994,22a1.99,1.99,0,0,0-1.984,1.984V44.12l-.02.02a17.652,17.652,0,0,1,3.988,11.209v6.329h35.71V22Z" transform="translate(-35.99 -22)" fill="#d3a06c"/>
          </g>
          <g id="Grupo_110422" data-name="Grupo 110422" transform="translate(87.29 0)">
            <path id="Trazado_169140" data-name="Trazado 169140" d="M46,2H61.871V13.9H46Z" transform="translate(-46 -2)" fill="#91489d"/>
          </g>
          <g id="Grupo_110423" data-name="Grupo 110423" transform="translate(79.355 39.677)">
            <path id="Trazado_169141" data-name="Trazado 169141" d="M42,22H57.871V33.9H42Z" transform="translate(-42 -22)" fill="#408ecc"/>
          </g>
          <g id="Grupo_110424" data-name="Grupo 110424" transform="translate(91.258 79.355)">
            <path id="Trazado_169142" data-name="Trazado 169142" d="M48,42H63.871V53.9H48Z" transform="translate(-48 -42)" fill="#fff505"/>
          </g>
          <g id="Grupo_110425" data-name="Grupo 110425" transform="translate(11.903)">
            <path id="Trazado_169143" data-name="Trazado 169143" d="M39.742,17.871H23.871a7.933,7.933,0,0,0-7.935,7.935H13.952a5.967,5.967,0,0,0-4.087,1.627l-.992-2.976A17.069,17.069,0,0,1,25.061,2h13.49A17.069,17.069,0,0,1,54.74,24.457l-.992,2.976a5.967,5.967,0,0,0-4.087-1.627H47.677V23.823H41.726a6.774,6.774,0,0,1-1.984-4.781Z" transform="translate(-8 -2)" fill="#12263f"/>
          </g>
          <g id="Grupo_110426" data-name="Grupo 110426" transform="translate(19.839 75.387)">
            <path id="Trazado_169144" data-name="Trazado 169144" d="M43.742,71.742v11.9H12v-11.9h3.968a3.979,3.979,0,0,0,3.968-3.968h5.952a5.952,5.952,0,0,0,0-11.9H12V41.984A1.99,1.99,0,0,1,13.984,40h5.952v5.952a1.99,1.99,0,0,0,1.984,1.984h11.9a1.99,1.99,0,0,0,1.984-1.984V40h5.952a1.99,1.99,0,0,1,1.984,1.984V71.742Z" transform="translate(-12 -40)" fill="#ebf6ff"/>
          </g>
          <g id="Grupo_110427" data-name="Grupo 110427" transform="translate(51.581 107.129)">
            <path id="Trazado_169145" data-name="Trazado 169145" d="M28,56h7.935V67.9H28Z" transform="translate(-28 -56)" fill="#ba68c8"/>
          </g>
          <g id="Grupo_110428" data-name="Grupo 110428" transform="translate(11.903 107.129)">
            <path id="Trazado_169146" data-name="Trazado 169146" d="M8,56h7.935V67.9H8Z" transform="translate(-8 -56)" fill="#ba68c8"/>
          </g>
          <g id="Grupo_110429" data-name="Grupo 110429" transform="translate(0 54.378)">
            <path id="Trazado_169147" data-name="Trazado 169147" d="M2,70.258v-22.2A17.843,17.843,0,0,1,17.335,30.382L24.1,29.41,27.79,40.5l9.919-3.968L47.629,40.5l3.69-11.09,6.765.972A17.93,17.93,0,0,1,73.419,48.058v22.2a11.913,11.913,0,0,1-11.9,11.9H53.581V52.4A1.99,1.99,0,0,0,51.6,50.419H23.823A1.99,1.99,0,0,0,21.839,52.4V66.29h7.935v11.9a3.979,3.979,0,0,1-3.968,3.968H13.9A11.913,11.913,0,0,1,2,70.258Z" transform="translate(-2 -29.41)" fill="#ba68c8"/>
          </g>
          <g id="Grupo_110430" data-name="Grupo 110430" transform="translate(35.71 53.565)">
            <path id="Trazado_169148" data-name="Trazado 169148" d="M33.609,29.813,29.919,40.9,20,36.935,27.935,29Z" transform="translate(-20 -29)" fill="#5c22c3"/>
          </g>
          <g id="Grupo_110431" data-name="Grupo 110431" transform="translate(22.1 53.565)">
            <path id="Trazado_169149" data-name="Trazado 169149" d="M26.749,36.935,16.83,40.9l-3.69-11.09L18.814,29Z" transform="translate(-13.14 -29)" fill="#5c22c3"/>
          </g>
          <g id="Grupo_110432" data-name="Grupo 110432" transform="translate(27.774 75.387)">
            <path id="Trazado_169150" data-name="Trazado 169150" d="M31.871,40v5.952a1.99,1.99,0,0,1-1.984,1.984h-11.9A1.99,1.99,0,0,1,16,45.952V40Z" transform="translate(-16 -40)" fill="#fff505"/>
          </g>
          <g id="Grupo_110433" data-name="Grupo 110433" transform="translate(27.774 91.258)">
            <path id="Trazado_169151" data-name="Trazado 169151" d="M21.952,48a5.952,5.952,0,0,1,0,11.9H16V48Z" transform="translate(-16 -48)" fill="#f0d0b4"/>
          </g>
          <g id="Grupo_110434" data-name="Grupo 110434" transform="translate(27.774 46.383)">
            <path id="Trazado_169152" data-name="Trazado 169152" d="M30.066,25.38l1.805,7.182L23.935,40.5,16,32.562l1.805-7.182a15.891,15.891,0,0,0,12.26,0Z" transform="translate(-16 -25.38)" fill="#f0d0b4"/>
          </g>
          <g id="Grupo_110435" data-name="Grupo 110435" transform="translate(51.085 23.806)">
            <path id="Trazado_169153" data-name="Trazado 169153" d="M34.317,15.627A5.953,5.953,0,0,1,30.23,25.9H27.75a16.345,16.345,0,0,0,.5-3.968V14H30.23a5.967,5.967,0,0,1,4.087,1.627Z" transform="translate(-27.75 -14)" fill="#f0d0b4"/>
          </g>
          <g id="Grupo_110436" data-name="Grupo 110436" transform="translate(11.903 23.806)">
            <path id="Trazado_169154" data-name="Trazado 169154" d="M16.431,25.9h-2.48a5.952,5.952,0,0,1,0-11.9h1.984v7.935A16.345,16.345,0,0,0,16.431,25.9Z" transform="translate(-8 -14)" fill="#f0d0b4"/>
          </g>
          <g id="Grupo_110437" data-name="Grupo 110437" transform="translate(19.839 15.871)">
            <path id="Trazado_169155" data-name="Trazado 169155" d="M37.79,15.952h5.952v9.919a16.345,16.345,0,0,1-.5,3.968A15.883,15.883,0,0,1,21.741,40.512a15.662,15.662,0,0,1-5.1-3.412A16.112,16.112,0,0,1,12.5,29.839a16.344,16.344,0,0,1-.5-3.968V17.935A7.933,7.933,0,0,1,19.935,10H35.806v1.17a6.774,6.774,0,0,0,1.984,4.781Z" transform="translate(-12 -10)" fill="#f0d0b4"/>
          </g>
        </g>
        <g id="Grupo_110439" data-name="Grupo 110439" transform="translate(1 1)">
          <circle id="Elipse_5814" data-name="Elipse 5814" cx="2" cy="2" r="2" transform="translate(28 28)"/>
          <circle id="Elipse_5815" data-name="Elipse 5815" cx="2" cy="2" r="2" transform="translate(44 28)"/>
          <path id="Trazado_169156" data-name="Trazado 169156" d="M31.348,21.746l.208-.419-3.549-1.776-.208.421a4.436,4.436,0,0,1-7.935,0l-.208-.419L16.106,21.33l.208.419a8.4,8.4,0,0,0,15.034,0Z" transform="translate(13.862 17.253)"/>
          <path id="Trazado_169157" data-name="Trazado 169157" d="M24.37,15.533a4.76,4.76,0,0,1-1.4-3.386V9H19v3.146a8.7,8.7,0,0,0,2.565,6.192Z" transform="translate(16.71 6.871)"/>
          <path id="Trazado_169158" data-name="Trazado 169158" d="M28.37,15.533a4.76,4.76,0,0,1-1.4-3.386V9H23v3.146a8.7,8.7,0,0,0,2.565,6.192Z" transform="translate(20.645 6.871)"/>
          <path id="Trazado_169159" data-name="Trazado 169159" d="M120.032,80.355H112.1V44.645h3.968a3.972,3.972,0,0,0,3.968-3.968V4.968A3.972,3.972,0,0,0,116.065,1H80.355a3.972,3.972,0,0,0-3.968,3.968v35.71H72.419a3.972,3.972,0,0,0-3.968,3.968V60.183a19.646,19.646,0,0,0-9.1-3.821L48.23,54.773l-1.081-4.327a17.939,17.939,0,0,0,8.36-9.769h1.04a7.943,7.943,0,0,0,7.935-7.935,7.859,7.859,0,0,0-1.615-4.747l.639-1.918A19.056,19.056,0,0,0,45.431,1H31.954A19.057,19.057,0,0,0,13.879,26.078L14.518,28A7.849,7.849,0,0,0,12.9,32.742a7.943,7.943,0,0,0,7.935,7.935H21.88a17.931,17.931,0,0,0,8.36,9.769l-1.081,4.327L18.035,56.362A19.934,19.934,0,0,0,1,76V98.21a13.9,13.9,0,0,0,11.9,13.728V124H64.484V111.938a13.9,13.9,0,0,0,11.9-13.728V84.323h3.968v35.71A3.972,3.972,0,0,0,84.323,124h35.71A3.972,3.972,0,0,0,124,120.032V84.323A3.972,3.972,0,0,0,120.032,80.355ZM92.258,4.968h3.968V12.9H92.258Zm7.935,0h3.968V12.9h-3.968Zm-19.839,0H88.29v11.9h19.839V4.968h7.935v35.71H80.355Zm3.968,39.677H88.29v7.935H84.323Zm7.935,0h3.968v7.935H92.258ZM49.676,58.989,47.4,65.829,42.225,63.76l5.106-5.106ZM56.548,36.71h-.117a17.726,17.726,0,0,0,.117-1.984V28.774a3.968,3.968,0,1,1,0,7.935Zm-35.71,0a3.968,3.968,0,0,1,0-7.935v5.952a17.726,17.726,0,0,0,.117,1.984Zm3.968-1.984V26.79a5.959,5.959,0,0,1,5.952-5.952h1.984V16.871H30.758a9.938,9.938,0,0,0-9.719,7.935h-.2a7.908,7.908,0,0,0-3,.6l-.192-.579A15.082,15.082,0,0,1,31.956,4.968H45.433A15.08,15.08,0,0,1,59.74,24.822l-.194.581a7.89,7.89,0,0,0-3-.6V22.823H52.581v11.9a13.887,13.887,0,0,1-27.774,0ZM38.694,52.581a17.781,17.781,0,0,0,4.736-.657l1,4.015-5.739,5.739-5.739-5.739,1-4.015a17.781,17.781,0,0,0,4.736.657Zm-8.638,6.071,5.106,5.106L29.99,65.827l-2.279-6.84ZM16.871,112.1h3.968v7.935H16.871ZM36.71,96.226a3.968,3.968,0,0,1,0,7.935H32.742V96.226Zm-4.333,11.9H36.71a7.935,7.935,0,0,0,0-15.871h-11.9v-11.9h3.968v3.968a3.972,3.972,0,0,0,3.968,3.968h11.9a3.972,3.972,0,0,0,3.968-3.968V80.355h3.968v39.677H24.806V112.1H26.79A5.944,5.944,0,0,0,32.377,108.129Zm.365-27.774h11.9v3.968h-11.9Zm23.806,39.677V112.1h3.968v7.935ZM72.419,98.21a9.931,9.931,0,0,1-9.919,9.919H56.548v-11.9h11.9V92.258H64.484V76.387H60.516V92.258H56.548v-11.9a3.972,3.972,0,0,0-3.968-3.968H24.806a3.972,3.972,0,0,0-3.968,3.968v11.9H16.871V76.387H12.9V92.258H8.935v3.968H28.774v9.919a1.985,1.985,0,0,1-1.984,1.984h-11.9A9.931,9.931,0,0,1,4.968,98.21V76a15.947,15.947,0,0,1,13.627-15.71l5.124-.732,3.837,11.516L38.694,66.62l11.135,4.454,3.837-11.516,5.124.732A15.949,15.949,0,0,1,72.419,76Zm3.968-17.855V76a19.747,19.747,0,0,0-3.968-11.836V44.645h7.935v11.9h19.839v-11.9h7.935v35.71Zm19.839,3.968h3.968v7.935H96.226Zm7.935,0h3.968v7.935h-3.968Zm15.871,35.71H84.323V84.323h7.935v11.9H112.1v-11.9h7.935Z" transform="translate(-1 -1)"/>
        </g>
      </g>
    </g>
  </g>
</svg>
