<svg id="fecha-de-vencimiento" xmlns="http://www.w3.org/2000/svg" width="90" height="90" viewBox="0 0 90 90">
  <path id="Trazado_169398" data-name="Trazado 169398" d="M81.607,8.838H4.267A3.449,3.449,0,0,0,.75,12.213V52.578A10.354,10.354,0,0,0,11.3,62.7H74.576A10.352,10.352,0,0,0,85.121,52.578V12.213a3.443,3.443,0,0,0-3.514-3.375Z" transform="translate(2.062 24.304)" fill="#fbe2ff"/>
  <path id="Trazado_169399" data-name="Trazado 169399" d="M74.58,2.75H11.3C5.471,2.75.75,7.745.75,13.9V25.2H85.125V13.9C85.125,7.745,80.4,2.75,74.58,2.75Z" transform="translate(2.063 7.563)" fill="#5c22c3"/>
  <path id="Trazado_169400" data-name="Trazado 169400" d="M11.857,43.838V23.04l20.235-9.851v19.7Z" transform="translate(32.607 36.27)" fill="#c99b50"/>
  <path id="Trazado_169401" data-name="Trazado 169401" d="M25.087,41.179V22.463L6.873,13.6v17.73Z" transform="translate(18.901 37.394)" fill="#c99b50"/>
  <path id="Trazado_169402" data-name="Trazado 169402" d="M7.069,19.536l18.206,8.876,7.088-3.446,2.955-1.44,8.2-3.99-18.21-8.858-7.763,3.772-3.1,1.5Z" transform="translate(19.44 29.364)" fill="#c99b50"/>
  <path id="Trazado_169403" data-name="Trazado 169403" d="M79.688,84.5H10.313A10.321,10.321,0,0,1,0,74.188V12.313A10.321,10.321,0,0,1,10.313,2H79.688A10.321,10.321,0,0,1,90,12.313V74.188A10.321,10.321,0,0,1,79.688,84.5ZM10.313,7.625a4.694,4.694,0,0,0-4.687,4.688V74.188a4.694,4.694,0,0,0,4.688,4.688H79.688a4.694,4.694,0,0,0,4.688-4.687V12.313a4.694,4.694,0,0,0-4.687-4.687Z" transform="translate(0 5.5)"/>
  <path id="Trazado_169404" data-name="Trazado 169404" d="M87.188,13.625H2.813A2.813,2.813,0,0,1,2.813,8H87.188a2.813,2.813,0,0,1,0,5.625Z" transform="translate(0 22)"/>
  <path id="Trazado_169405" data-name="Trazado 169405" d="M7.813,22.5A2.814,2.814,0,0,1,5,19.688V2.813a2.813,2.813,0,0,1,5.625,0V19.688A2.814,2.814,0,0,1,7.813,22.5Z" transform="translate(13.75)"/>
  <path id="Trazado_169406" data-name="Trazado 169406" d="M20.313,22.5A2.814,2.814,0,0,1,17.5,19.688V2.813a2.813,2.813,0,0,1,5.625,0V19.688A2.814,2.814,0,0,1,20.313,22.5Z" transform="translate(48.125)"/>
  <path id="Trazado_169407" data-name="Trazado 169407" d="M28.485,48.668a2.824,2.824,0,0,1-1.23-.281L7.583,38.809A2.819,2.819,0,0,1,6,36.278V15.116a2.814,2.814,0,0,1,4.005-2.55l19.673,9.173a2.816,2.816,0,0,1,1.624,2.55V45.851a2.824,2.824,0,0,1-2.816,2.816ZM11.625,34.523l14.047,6.836V26.085L11.625,19.534Z" transform="translate(16.5 33.832)"/>
  <path id="Trazado_169408" data-name="Trazado 169408" d="M14.066,48.664a2.815,2.815,0,0,1-2.812-2.812V24.289a2.816,2.816,0,0,1,1.624-2.55L32.55,12.566a2.809,2.809,0,0,1,4,2.55V36.277a2.819,2.819,0,0,1-1.583,2.531L15.3,48.386a2.874,2.874,0,0,1-1.23.277Zm2.813-22.582V41.355l14.048-6.836V19.534Zm16.86,10.192h.037Z" transform="translate(30.948 33.836)"/>
  <path id="Trazado_169409" data-name="Trazado 169409" d="M48.187,24.265a2.88,2.88,0,0,1-1.132-.236l-18.54-8.141L9.94,24.025a2.81,2.81,0,1,1-2.254-5.149l19.7-8.64a2.824,2.824,0,0,1,2.261,0l19.672,8.64a2.813,2.813,0,0,1-1.136,5.389Z" transform="translate(16.501 27.5)"/>
  <path id="Trazado_169410" data-name="Trazado 169410" d="M31.59,33.158a2.814,2.814,0,0,1-2.812-2.812v-5.8l-18.454-8a2.813,2.813,0,1,1,2.231-5.164L32.7,20.115A2.818,2.818,0,0,1,34.4,22.7v7.646a2.809,2.809,0,0,1-2.809,2.816Z" transform="translate(23.722 30.667)"/>
</svg>
