<svg id="venta" xmlns="http://www.w3.org/2000/svg" width="80" height="80" viewBox="0 0 80 80">
  <path id="Trazado_169295" data-name="Trazado 169295" d="M91.417,16.75h-72a2.667,2.667,0,0,0-2.667,2.667V70.083H94.083V19.417A2.667,2.667,0,0,0,91.417,16.75ZM20.75,43.417H35.417l-5.333-5.333,5.333,5.333L30.083,48.75l5.333-5.333Zm20,18.667,5.333-5.333L40.75,51.417l5.333,5.333Zm0-26.667,5.333-5.333L40.75,24.75l5.333,5.333Zm28,28a20,20,0,1,1,20-20A20,20,0,0,1,68.75,63.417Zm0,0" transform="translate(-15.417 -15.417)" fill="#fbe2ff"/>
  <path id="Trazado_169296" data-name="Trazado 169296" d="M16.75,692.083a2.667,2.667,0,0,0,2.667,2.667h72a2.667,2.667,0,0,0,2.667-2.667V686.75H16.75Zm41.333-1.333" transform="translate(-15.417 -632.083)" fill="#bcbec0"/>
  <path id="Trazado_169297" data-name="Trazado 169297" d="M418.75,803.25h13.333l-1.333-16H420.083Zm0,0" transform="translate(-385.417 -724.583)" fill="#bcbec0"/>
  <path id="Trazado_169298" data-name="Trazado 169298" d="M438.75,100.5a20,20,0,1,0,20,20A20,20,0,0,0,438.75,100.5Zm0,20a6.667,6.667,0,1,1-6.667,6.667,6.667,6.667,0,1,0,6.667-6.667,6.667,6.667,0,1,1,6.667-6.667,6.667,6.667,0,1,0-6.667,6.667Zm0,0" transform="translate(-385.417 -92.5)" fill="#fff505"/>
  <g id="Grupo_110521" data-name="Grupo 110521">
    <path id="Trazado_169299" data-name="Trazado 169299" d="M76,0H4A4,4,0,0,0,0,4V60a4,4,0,0,0,4,4H33.217L32.107,77.333H28V80H52V77.333H47.893L46.783,64H76a4,4,0,0,0,4-4V4A4,4,0,0,0,76,0ZM4,2.667H76A1.333,1.333,0,0,1,77.333,4V53.333H2.667V4A1.333,1.333,0,0,1,4,2.667ZM45.217,77.333H34.783L35.893,64h8.213ZM76,61.333H4A1.333,1.333,0,0,1,2.667,60V56H77.333v4A1.333,1.333,0,0,1,76,61.333Zm0,0" fill="#231f20"/>
    <path id="Trazado_169300" data-name="Trazado 169300" d="M469,720.25h5.333v2.667H469Zm0,0" transform="translate(-431.667 -662.917)" fill="#231f20"/>
    <path id="Trazado_169301" data-name="Trazado 169301" d="M577.5,163.333A5.333,5.333,0,0,1,572.167,158H569.5a8.008,8.008,0,0,0,6.667,7.88v2.787h2.667V165.88A8,8,0,0,0,577.5,150a5.333,5.333,0,1,1,5.333-5.333H585.5a8.008,8.008,0,0,0-6.667-7.88V134h-2.667v2.787a8,8,0,0,0,1.333,15.88,5.333,5.333,0,0,1,0,10.667Zm0,0" transform="translate(-524.167 -123.333)" fill="#231f20"/>
    <path id="Trazado_169302" data-name="Trazado 169302" d="M423.333,126.417A21.333,21.333,0,1,0,402,105.083,21.333,21.333,0,0,0,423.333,126.417Zm0-40a18.667,18.667,0,1,1-18.667,18.667A18.667,18.667,0,0,1,423.333,86.417Zm0,0" transform="translate(-370 -77.083)" fill="#231f20"/>
    <path id="Trazado_169303" data-name="Trazado 169303" d="M75.391,283.559l1.886,1.886,5.333-5.333L82.6,280.1a1.3,1.3,0,0,0,.049-1.836l-.041-.041-5.333-5.333-1.885,1.885,3.059,3.059H67V280.5H78.448Zm0,0" transform="translate(-61.667 -251.168)" fill="#231f20"/>
    <path id="Trazado_169304" data-name="Trazado 169304" d="M209.391,116.059l1.886,1.886,5.333-5.333-.009-.009a1.3,1.3,0,0,0,.049-1.836l-.041-.041-5.333-5.333-1.884,1.887,3.058,3.057H201V113h11.448Zm0,0" transform="translate(-185 -97.001)" fill="#231f20"/>
    <path id="Trazado_169305" data-name="Trazado 169305" d="M211.276,440.406l-1.886,1.886,3.058,3.057H201v2.667h11.448l-3.058,3.057,1.886,1.885,5.333-5.333-.009-.009a1.3,1.3,0,0,0,.049-1.836l-.041-.041Zm0,0" transform="translate(-185 -405.349)" fill="#231f20"/>
  </g>
</svg>
