<svg xmlns="http://www.w3.org/2000/svg" width="120" height="120" viewBox="0 0 120 120">
  <g id="Grupo_110607" data-name="Grupo 110607" transform="translate(-320 -1413)">
    <g id="Rect치ngulo_36484" data-name="Rect치ngulo 36484" transform="translate(320 1413)" fill="#fff" stroke="#5c22c3" stroke-width="4">
      <rect width="120" height="120" stroke="none"/>
      <rect x="2" y="2" width="116" height="116" fill="none"/>
    </g>
    <g id="leche" transform="translate(326.424 1428)">
      <g id="Grupo_110516" data-name="Grupo 110516" transform="translate(30.106 1.228)">
        <rect id="Rect치ngulo_37019" data-name="Rect치ngulo 37019" width="32.696" height="8.132" rx="4.066" transform="translate(7.12)" fill="#64b5f6"/>
        <path id="Trazado_169269" data-name="Trazado 169269" d="M63.717,17.1V13.313H44.468V17.1a6.328,6.328,0,0,1-3.946,5.862L34.57,25.377a6.328,6.328,0,0,0-3.946,5.862V88.5a4.219,4.219,0,0,0,4.219,4.219h38.5A4.219,4.219,0,0,0,77.559,88.5V31.239a6.328,6.328,0,0,0-3.945-5.862l-5.951-2.419A6.328,6.328,0,0,1,63.717,17.1Z" transform="translate(-30.624 -5.18)" fill="#fffee0"/>
        <path id="Trazado_169270" data-name="Trazado 169270" d="M67.408,60.289v-.352A8.438,8.438,0,0,0,58.971,51.5H49.215a8.438,8.438,0,0,0-8.438,8.438v.352H30.625v26.9H77.56v-26.9Z" transform="translate(-30.624 -16.517)" fill="#fff505"/>
        <g id="Grupo_110515" data-name="Grupo 110515" transform="translate(4.395 51.591)">
          <path id="Trazado_169271" data-name="Trazado 169271" d="M72.265,86.375H65.99a1.23,1.23,0,0,1-1.23-1.23V76.355a1.23,1.23,0,0,1,2.461,0v7.559h5.044a1.23,1.23,0,1,1,0,2.461Z" transform="translate(-45.153 -75.121)" fill="#543e5b"/>
          <path id="Trazado_169272" data-name="Trazado 169272" d="M79.932,86.375a1.23,1.23,0,0,1-1.23-1.23V76.355a1.23,1.23,0,1,1,2.461,0v8.789a1.23,1.23,0,0,1-1.23,1.23Z" transform="translate(-49.292 -75.121)" fill="#543e5b"/>
          <path id="Trazado_169273" data-name="Trazado 169273" d="M47.192,86.374a1.23,1.23,0,0,1-1.23-1.23V79.254L43.5,81.631a1.23,1.23,0,0,1-1.711,0l-2.454-2.377v5.887a1.23,1.23,0,1,1-2.461,0V76.352a1.23,1.23,0,0,1,2.086-.885l3.687,3.567,3.688-3.567a1.231,1.231,0,0,1,2.088.887v8.789a1.231,1.231,0,0,1-1.232,1.23Z" transform="translate(-36.875 -75.12)" fill="#543e5b"/>
          <path id="Trazado_169274" data-name="Trazado 169274" d="M58.509,86.375a1.23,1.23,0,0,1-1.23-1.23V76.355a1.23,1.23,0,1,1,2.461,0v8.789A1.23,1.23,0,0,1,58.509,86.375Z" transform="translate(-42.932 -75.121)" fill="#543e5b"/>
          <path id="Trazado_169275" data-name="Trazado 169275" d="M83.07,81.98H79.933a1.23,1.23,0,1,1,0-2.461h2.5l2.769-3.879a1.231,1.231,0,1,1,2,1.43l-3.137,4.395A1.231,1.231,0,0,1,83.07,81.98Z" transform="translate(-49.292 -75.121)" fill="#543e5b"/>
          <path id="Trazado_169276" data-name="Trazado 169276" d="M87.532,88.23a1.228,1.228,0,0,1-1-.515L83.392,83.32a1.231,1.231,0,0,1,2-1.43l3.137,4.395a1.23,1.23,0,0,1-1,1.946Z" transform="translate(-50.616 -76.976)" fill="#543e5b"/>
        </g>
      </g>
      <g id="Grupo_110517" data-name="Grupo 110517" transform="translate(28.878 0)">
        <path id="Trazado_169277" data-name="Trazado 169277" d="M73.558,20.285l-5.951-2.419a5.078,5.078,0,0,1-3.178-4.723V10.591h1.977a4.752,4.752,0,0,0,4.746-4.746v-1.1A4.752,4.752,0,0,0,66.406,0H43.466a1.23,1.23,0,1,0,0,2.461h22.94a2.288,2.288,0,0,1,2.285,2.285v1.1A2.288,2.288,0,0,1,66.406,8.13H40.741a2.288,2.288,0,0,1-2.285-2.285v-1.1a2.285,2.285,0,0,1,.179-.89A1.23,1.23,0,1,0,36.368,2.9,4.726,4.726,0,0,0,36,4.744v1.1a4.752,4.752,0,0,0,4.746,4.746h1.978v2.552a5.079,5.079,0,0,1-3.179,4.723l-5.951,2.419a7.529,7.529,0,0,0-4.711,7V84.551A5.456,5.456,0,0,0,34.327,90h38.5a5.456,5.456,0,0,0,5.449-5.449V27.288a7.529,7.529,0,0,0-4.715-7Zm-39.04,2.28,5.951-2.419a7.529,7.529,0,0,0,4.711-7V10.591H61.968v2.552a7.528,7.528,0,0,0,4.711,7l5.951,2.419a5.078,5.078,0,0,1,3.178,4.723V43.771H68.08a9.682,9.682,0,0,0-9.628-8.789H48.7a9.682,9.682,0,0,0-9.629,8.789h-7.73V27.288A5.078,5.078,0,0,1,34.519,22.565Zm38.3,64.977h-38.5a2.992,2.992,0,0,1-2.988-2.988V73.127H42.28a1.23,1.23,0,1,0,0-2.461H31.337V46.232h8.921A1.23,1.23,0,0,0,41.489,45v-.352A7.215,7.215,0,0,1,48.7,37.442h9.756a7.216,7.216,0,0,1,7.207,7.207V45a1.23,1.23,0,0,0,1.23,1.23h8.921V70.666H66.2a1.23,1.23,0,0,0,0,2.461h9.609V84.551A2.992,2.992,0,0,1,72.822,87.541Z" transform="translate(-28.878 0)"/>
        <path id="Trazado_169278" data-name="Trazado 169278" d="M65.4,100.5H62.043a1.23,1.23,0,1,0,0,2.461H65.4a1.23,1.23,0,0,0,0-2.461Z" transform="translate(-38.358 -29.834)"/>
        <path id="Trazado_169279" data-name="Trazado 169279" d="M72.265,83.914H67.221V76.355a1.23,1.23,0,1,0-2.461,0v8.789a1.23,1.23,0,0,0,1.23,1.23h6.274a1.23,1.23,0,0,0,0-2.461Z" transform="translate(-39.53 -22.301)"/>
        <path id="Trazado_169280" data-name="Trazado 169280" d="M81.161,85.145V81.981h1.273L85.2,85.86a1.231,1.231,0,0,0,2-1.43l-2.626-3.68,2.626-3.68a1.23,1.23,0,1,0-2-1.43L82.436,79.52H81.161V76.355a1.23,1.23,0,0,0-2.461,0v8.789a1.23,1.23,0,0,0,2.461,0Z" transform="translate(-43.668 -22.301)"/>
        <path id="Trazado_169281" data-name="Trazado 169281" d="M47.672,75.222a1.227,1.227,0,0,0-1.336.248l-3.688,3.567-3.687-3.567a1.23,1.23,0,0,0-2.086.885v8.789a1.23,1.23,0,0,0,2.461,0V79.256l2.457,2.377a1.23,1.23,0,0,0,1.711,0l2.459-2.377v5.887a1.23,1.23,0,1,0,2.461,0V76.353A1.231,1.231,0,0,0,47.672,75.222Z" transform="translate(-31.252 -22.301)"/>
        <path id="Trazado_169282" data-name="Trazado 169282" d="M58.509,75.125a1.23,1.23,0,0,0-1.23,1.23v8.789a1.23,1.23,0,1,0,2.461,0V76.355A1.23,1.23,0,0,0,58.509,75.125Z" transform="translate(-37.309 -22.301)"/>
      </g>
    </g>
  </g>
</svg>
