<svg xmlns="http://www.w3.org/2000/svg" width="100" height="100" viewBox="0 0 100 100">
  <g id="counter-pharmacy-pharmacist-laptop-drug" transform="translate(-2 -2)">
    <path id="Trazado_169320" data-name="Trazado 169320" d="M99.667,33v6.667H3V33H99.667Z" transform="translate(0.667 20.667)" fill="#c0ab91"/>
    <path id="Trazado_169321" data-name="Trazado 169321" d="M3,3H99.667V23H3Z" transform="translate(0.667 0.667)" fill="#f7c4ff"/>
    <path id="Trazado_169323" data-name="Trazado 169323" d="M77,49V69H68.667V59H55.333V69H32V49H77Z" transform="translate(20 31.333)" fill="#ebf6ff"/>
    <path id="Trazado_169324" data-name="Trazado 169324" d="M77,37V57H68.667V47H55.333V43.667H48.667V47H42V57H32V37Z" transform="translate(20 23.333)" fill="#ebf6ff"/>
    <path id="Trazado_169325" data-name="Trazado 169325" d="M50,55h6.667V65H50Z" transform="translate(32 35.333)" fill="#5e2667"/>
    <path id="Trazado_169326" data-name="Trazado 169326" d="M50,43h6.667V53H50Z" transform="translate(32 27.333)" fill="#5c22c3"/>
    <path id="Trazado_169327" data-name="Trazado 169327" d="M66.333,24.333V41H33V24.333A3.343,3.343,0,0,1,36.333,21H63A3.343,3.343,0,0,1,66.333,24.333Z" transform="translate(20.667 12.667)" fill="#c6c5ca"/>
    <path id="Trazado_169328" data-name="Trazado 169328" d="M57,24.333V41H50.333V24.333A3.343,3.343,0,0,0,47,21h6.667A3.343,3.343,0,0,1,57,24.333Z" transform="translate(30 12.667)" fill="#acabb1"/>
    <path id="Trazado_169329" data-name="Trazado 169329" d="M46,55h6.667V65H46Z" transform="translate(29.333 35.333)" fill="#f7c4ff"/>
    <path id="Trazado_169330" data-name="Trazado 169330" d="M46,43h6.667V53H46Z" transform="translate(29.333 27.333)" fill="#ba68c8"/>
    <path id="Trazado_169331" data-name="Trazado 169331" d="M48.667,44.333v10H42V41h6.667Z" transform="translate(26.667 26)" fill="#fff505"/>
    <path id="Trazado_169332" data-name="Trazado 169332" d="M38,43h6.667V53H38Z" transform="translate(24 27.333)" fill="#2971aa"/>
    <path id="Trazado_169333" data-name="Trazado 169333" d="M37,29v6.667H30.333A3.343,3.343,0,0,1,27,32.333V29Z" transform="translate(16.667 18)" fill="#898890"/>
    <path id="Trazado_169334" data-name="Trazado 169334" d="M50,49V69H43.333V59H36.667V69H18.333V59H11.667V69H5V49H50Z" transform="translate(2 31.333)" fill="#ebf6ff"/>
    <path id="Trazado_169335" data-name="Trazado 169335" d="M50,37V57H38.333V47H31.667V57H25V43.667H18.333V47H11.667V57H5V37Z" transform="translate(2 23.333)" fill="#ebf6ff"/>
    <path id="Trazado_169336" data-name="Trazado 169336" d="M24,55h6.667V65H24Z" transform="translate(14.667 35.333)" fill="#64b5f6"/>
    <path id="Trazado_169337" data-name="Trazado 169337" d="M21,43h6.667V53H21Z" transform="translate(12.667 27.333)" fill="#fffcba"/>
    <path id="Trazado_169338" data-name="Trazado 169338" d="M19.667,41V54.333H13V41Z" transform="translate(7.333 26)" fill="#91489d"/>
    <path id="Trazado_169339" data-name="Trazado 169339" d="M9,55h6.667V65H9Z" transform="translate(4.667 35.333)" fill="#5e2667"/>
    <path id="Trazado_169340" data-name="Trazado 169340" d="M9,43h6.667V53H9Z" transform="translate(4.667 27.333)" fill="#3e108e"/>
    <rect id="Rectángulo_37020" data-name="Rectángulo 37020" width="16" height="20" rx="4" transform="translate(14 14)" fill="#ffc477"/>
    <path id="Trazado_169341" data-name="Trazado 169341" d="M23,15.667v6.667A6.667,6.667,0,0,1,16.333,29H13a6.667,6.667,0,0,0,6.667-6.667V15.667A6.667,6.667,0,0,0,13,9h3.333A6.667,6.667,0,0,1,23,15.667Z" transform="translate(7.333 4.667)" fill="#ffa733"/>
    <path id="Trazado_169342" data-name="Trazado 169342" d="M32.667,31V41H6V31A10,10,0,0,1,16,21h6.667A10,10,0,0,1,32.667,31Z" transform="translate(2.667 12.667)" fill="#64b5f6"/>
    <path id="Trazado_169344" data-name="Trazado 169344" d="M25.667,15.667v1.667l-5-1.667L9,17.333V15.667A6.667,6.667,0,0,1,15.667,9H19A6.667,6.667,0,0,1,25.667,15.667Z" transform="translate(4.667 4.667)" fill="#12263f"/>
    <path id="Trazado_169346" data-name="Trazado 169346" d="M18.667,21V31l-3.333,3.333L12,31V21Z" transform="translate(6.667 12.667)" fill="#ba68c8"/>
    <path id="Trazado_169348" data-name="Trazado 169348" d="M56,33h8.333v6.667H56Z" transform="translate(36 20.667)" fill="#a78966"/>
    <path id="Trazado_169349" data-name="Trazado 169349" d="M32,25.333h68.333A1.667,1.667,0,0,0,102,23.667v-20A1.667,1.667,0,0,0,100.333,2H3.667A1.667,1.667,0,0,0,2,3.667v20a1.667,1.667,0,0,0,1.667,1.667H12V27a8.3,8.3,0,0,0,2.383,5.817A11.7,11.7,0,0,0,7,43.667V52H3.667A1.667,1.667,0,0,0,2,53.667v6.667A1.667,1.667,0,0,0,3.667,62H5.333v38.333A1.667,1.667,0,0,0,7,102H97a1.667,1.667,0,0,0,1.667-1.667V62h1.667A1.667,1.667,0,0,0,102,60.333V53.667A1.667,1.667,0,0,0,100.333,52H88.667V37a5.015,5.015,0,0,0-5-5H57a5.015,5.015,0,0,0-5,5v8.333H43.667A1.667,1.667,0,0,0,42,47v3.333A5,5,0,0,0,42.3,52H37V43.667a11.7,11.7,0,0,0-7.383-10.85A8.3,8.3,0,0,0,32,27ZM18.667,98.667H15.333V92h3.333Zm25,0H40.333V92h3.333Zm6.667,0H47V90.333a1.667,1.667,0,0,0-1.667-1.667H38.667A1.667,1.667,0,0,0,37,90.333v8.333H22V90.333a1.667,1.667,0,0,0-1.667-1.667H13.667A1.667,1.667,0,0,0,12,90.333v8.333H8.667V82H50.333Zm-35-20V72h3.333v6.667Zm6.667,0v-10h3.333v10Zm13.333,0V72h3.333v6.667Zm15,0H42V70.333a1.667,1.667,0,0,0-1.667-1.667H33.667A1.667,1.667,0,0,0,32,70.333v8.333H28.667V67A1.667,1.667,0,0,0,27,65.333H20.333A1.667,1.667,0,0,0,18.667,67v1.667h-5A1.667,1.667,0,0,0,12,70.333v8.333H8.667V62H50.333Zm30,20H77V92h3.333Zm6.667,0H83.667V92H87Zm8.333,0h-5V90.333a1.667,1.667,0,0,0-1.667-1.667H75.333a1.667,1.667,0,0,0-1.667,1.667v8.333h-20V82H95.333Zm-31.667-20V72H67v6.667Zm6.667,0v-10h3.333v10Zm6.667,0V72h3.333v6.667Zm6.667,0V72H87v6.667Zm11.667,0h-5V70.333a1.667,1.667,0,0,0-1.667-1.667H77V67a1.667,1.667,0,0,0-1.667-1.667H68.667A1.667,1.667,0,0,0,67,67v1.667H62a1.667,1.667,0,0,0-1.667,1.667v8.333H53.667V62H95.333ZM55.333,37A1.667,1.667,0,0,1,57,35.333H83.667A1.667,1.667,0,0,1,85.333,37V52h-30Zm-10,11.667H52V52H47a1.667,1.667,0,0,1-1.667-1.667Zm53.333,6.667v3.333H5.333V55.333Zm-65-11.667V52H10.333V43.667A8.362,8.362,0,0,1,17,35.5v8.167a1.722,1.722,0,0,0,.483,1.183l3.333,3.333a1.69,1.69,0,0,0,2.367,0l3.333-3.333A1.722,1.722,0,0,0,27,43.667V35.5A8.362,8.362,0,0,1,33.667,43.667ZM25.183,22.033,28.667,23.2V27a5.015,5.015,0,0,1-5,5H20.333a5.015,5.015,0,0,1-5-5V23.45Zm-9.817-1.967a4.98,4.98,0,0,1,4.967-4.733h3.333A5,5,0,0,1,28.6,19.667l-2.733-.917a1.72,1.72,0,0,0-.767-.067Zm8.3,15.267v7.65L22,44.65l-1.667-1.667v-7.65Zm0-23.333H20.333A8.333,8.333,0,0,0,12,20.333V22H5.333V5.333H98.667V22H32V20.333A8.333,8.333,0,0,0,23.667,12Z" transform="translate(0 0)"/>
    <path id="Trazado_169350" data-name="Trazado 169350" d="M42,26h3.333v3.333H42Z" transform="translate(26.667 16)"/>
  </g>
</svg>
