<svg xmlns="http://www.w3.org/2000/svg" width="120" height="120" viewBox="0 0 120 120">
  <g id="Grupo_110608" data-name="Grupo 110608" transform="translate(-740 -1413)">
    <g id="Rectángulo_36485" data-name="Rectángulo 36485" transform="translate(740 1413)" fill="#fff" stroke="#5c22c3" stroke-width="4">
      <rect width="120" height="120" stroke="none"/>
      <rect x="2" y="2" width="116" height="116" fill="none"/>
    </g>
    <g id="botella-rota" transform="translate(653.209 1428)">
      <path id="Trazado_169283" data-name="Trazado 169283" d="M230.062,13.516v3.516H216V13.516A3.515,3.515,0,0,1,219.516,10h7.031A3.515,3.515,0,0,1,230.062,13.516Z" transform="translate(-76.24 -8.242)" fill="#fff505"/>
      <path id="Trazado_169284" data-name="Trazado 169284" d="M133.5,101.432v20.99a7.032,7.032,0,0,0,7.031,7.031h29a7.032,7.032,0,0,0,7.031-7.031v-20.99A26.05,26.05,0,0,0,169.315,83.4a26.048,26.048,0,0,1-7.251-18.033V50H148V65.365A26.05,26.05,0,0,1,140.751,83.4a26.048,26.048,0,0,0-7.251,18.033Z" transform="translate(-8.242 -41.211)" fill="#5c22c3"/>
      <g id="Grupo_110518" data-name="Grupo 110518" transform="translate(123.5 0)">
        <path id="Trazado_169285" data-name="Trazado 169285" d="M169.57,54.914a27.818,27.818,0,0,0-7.228-13.943,24.178,24.178,0,0,1-6.762-16.817V5.273A5.279,5.279,0,0,0,150.307,0h-7.031A5.279,5.279,0,0,0,138,5.273V24.154a24.295,24.295,0,0,1-6.762,16.817,27.816,27.816,0,0,0-7.74,19.25v20.99A8.783,8.783,0,0,0,132.289,90h29a8.791,8.791,0,0,0,8.511-6.59,1.758,1.758,0,1,0-3.4-.877,5.266,5.266,0,0,1-5.1,3.952H147.986l-4.379-11.094,7.235-6.32,4.191,4.235a1.758,1.758,0,0,0,2.5-2.473l-4.038-4.079,4.472-3.907a1.756,1.756,0,0,0,.322-2.273l-2.235-3.484,7.6-8.4a24.311,24.311,0,0,1,2.911,11.53v6.949a1.758,1.758,0,1,0,3.516,0V60.221a27.871,27.871,0,0,0-.512-5.307ZM141.518,5.273a1.76,1.76,0,0,1,1.758-1.758h7.031a1.76,1.76,0,0,1,1.758,1.758V7.031H141.518Zm12.568,48.75L150.732,48.8a1.758,1.758,0,1,0-2.96,1.9l1.532,2.386-2.582,1.538-4.478-6.248a1.756,1.756,0,0,0-2.47-.394L133.8,52.372a1.758,1.758,0,0,0,2.081,2.834l4.544-3.342,3.268,4.561-3.073,1.831a1.758,1.758,0,0,0,1.8,3.02l8.786-5.235,3.31,5.156-12.7,11.1-3.088-4.246a1.765,1.765,0,0,0-1.424-.724,1.758,1.758,0,0,0-1.42,2.791l4.089,5.622,4.242,10.746H132.289a5.293,5.293,0,0,1-5.273-5.273V60.221A24.178,24.178,0,0,1,133.778,43.4a27.692,27.692,0,0,0,5.732-8.875,27.841,27.841,0,0,0,2.007-10.375V10.547h10.547V24.154A27.792,27.792,0,0,0,159.8,43.4a24.508,24.508,0,0,1,1.887,2.217Z" transform="translate(-123.5 0)"/>
        <circle id="Elipse_5818" data-name="Elipse 5818" cx="1.758" cy="1.758" r="1.758" transform="translate(43.066 73.322)"/>
      </g>
    </g>
  </g>
</svg>
