<svg xmlns="http://www.w3.org/2000/svg" width="90" height="90" viewBox="0 0 90 90">
  <g id="embalaje" transform="translate(-1 -1)">
    <g id="Grupo_110550" data-name="Grupo 110550" transform="translate(46 25.677)">
      <path id="Trazado_169576" data-name="Trazado 169576" d="M32,18H69.742V44.129H32Z" transform="translate(-32 -18)" fill="#bb9d68"/>
    </g>
    <g id="Grupo_110551" data-name="Grupo 110551" transform="translate(46 25.677)">
      <path id="Trazado_169577" data-name="Trazado 169577" d="M32,18H65.387V44.129H32Z" transform="translate(-32 -18)" fill="#f9d18b"/>
    </g>
    <g id="Grupo_110552" data-name="Grupo 110552" transform="translate(75.032 35.839)">
      <path id="Trazado_169578" data-name="Trazado 169578" d="M52,25h8.71v5.806H52Z" transform="translate(-52 -25)" fill="#a8b0bc"/>
    </g>
    <g id="Grupo_110553" data-name="Grupo 110553" transform="translate(60.516 31.484)">
      <path id="Trazado_169579" data-name="Trazado 169579" d="M42,22h8.71v4.355a4.355,4.355,0,1,1-8.71,0Z" transform="translate(-42 -22)" fill="#7e848d"/>
    </g>
    <g id="Grupo_110554" data-name="Grupo 110554" transform="translate(60.516 31.484)">
      <path id="Trazado_169580" data-name="Trazado 169580" d="M44.177,30.106a4.336,4.336,0,0,0,2.177-3.751V22H42v4.355A4.336,4.336,0,0,0,44.177,30.106Z" transform="translate(-42 -22)" fill="#a8b0bc"/>
    </g>
    <g id="Grupo_110555" data-name="Grupo 110555" transform="translate(46 51.806)">
      <path id="Trazado_169581" data-name="Trazado 169581" d="M32,36H75.548V73.742H32Z" transform="translate(-32 -36)" fill="#916b43"/>
    </g>
    <g id="Grupo_110556" data-name="Grupo 110556" transform="translate(46 51.806)">
      <path id="Trazado_169582" data-name="Trazado 169582" d="M32,36H71.194V73.742H32Z" transform="translate(-32 -36)" fill="#c18e59"/>
    </g>
    <g id="Grupo_110557" data-name="Grupo 110557" transform="translate(63.419 51.806)">
      <path id="Trazado_169583" data-name="Trazado 169583" d="M44,36h8.71V47.613H44Z" transform="translate(-44 -36)" fill="#a8b0bc"/>
    </g>
    <g id="Grupo_110558" data-name="Grupo 110558" transform="translate(63.419 77.935)">
      <path id="Trazado_169584" data-name="Trazado 169584" d="M44,54h8.71V65.613H44Z" transform="translate(-44 -54)" fill="#a8b0bc"/>
    </g>
    <g id="Grupo_110559" data-name="Grupo 110559" transform="translate(2.452 46)">
      <path id="Trazado_169585" data-name="Trazado 169585" d="M2,32H45.548V75.548H2Z" transform="translate(-2 -32)" fill="#bb9d68"/>
    </g>
    <g id="Grupo_110560" data-name="Grupo 110560" transform="translate(2.452 46)">
      <path id="Trazado_169586" data-name="Trazado 169586" d="M2,32H41.194V75.548H2Z" transform="translate(-2 -32)" fill="#f9d18b"/>
    </g>
    <g id="Grupo_110561" data-name="Grupo 110561" transform="translate(19.871 46)">
      <path id="Trazado_169587" data-name="Trazado 169587" d="M14,32h8.71V46.516H14Z" transform="translate(-14 -32)" fill="#a8b0bc"/>
    </g>
    <g id="Grupo_110562" data-name="Grupo 110562" transform="translate(11.161 11.161)">
      <path id="Trazado_169588" data-name="Trazado 169588" d="M8,8H51.548V42.839H8Z" transform="translate(-8 -8)" fill="#916b43"/>
    </g>
    <g id="Grupo_110563" data-name="Grupo 110563" transform="translate(11.161 11.161)">
      <path id="Trazado_169589" data-name="Trazado 169589" d="M8,8H47.194V42.839H8Z" transform="translate(-8 -8)" fill="#c18e59"/>
    </g>
    <g id="Grupo_110564" data-name="Grupo 110564" transform="translate(30.032 11.161)">
      <path id="Trazado_169590" data-name="Trazado 169590" d="M21,8h5.806V42.839H21Z" transform="translate(-21 -8)" fill="#a8b0bc"/>
    </g>
    <g id="Grupo_110565" data-name="Grupo 110565" transform="translate(8.258 2.452)">
      <path id="Trazado_169591" data-name="Trazado 169591" d="M6,2H55.355v8.71H6Z" transform="translate(-6 -2)" fill="#6d5032"/>
    </g>
    <g id="Grupo_110566" data-name="Grupo 110566" transform="translate(8.258 2.452)">
      <path id="Trazado_169592" data-name="Trazado 169592" d="M6,2H51v8.71H6Z" transform="translate(-6 -2)" fill="#916b43"/>
    </g>
    <g id="Grupo_110567" data-name="Grupo 110567" transform="translate(27.129 2.452)">
      <path id="Trazado_169593" data-name="Trazado 169593" d="M19,2H30.613v8.71H19Z" transform="translate(-19 -2)" fill="#a8b0bc"/>
    </g>
    <g id="Grupo_110568" data-name="Grupo 110568" transform="translate(1 44.548)">
      <path id="Trazado_169594" data-name="Trazado 169594" d="M46,77.452H2.452A1.45,1.45,0,0,1,1,76V32.452A1.45,1.45,0,0,1,2.452,31H46a1.45,1.45,0,0,1,1.452,1.452V76A1.45,1.45,0,0,1,46,77.452Zm-42.1-2.9H44.548V33.9H3.9Z" transform="translate(-1 -31)"/>
    </g>
    <g id="Grupo_110569" data-name="Grupo 110569" transform="translate(12.613 82.29)">
      <path id="Trazado_169595" data-name="Trazado 169595" d="M9,57H32.226v2.9H9Z" transform="translate(-9 -57)"/>
    </g>
    <g id="Grupo_110570" data-name="Grupo 110570" transform="translate(15.516 66.323)">
      <path id="Trazado_169596" data-name="Trazado 169596" d="M11,46h2.9V59.065H11Z" transform="translate(-11 -46)"/>
    </g>
    <g id="Grupo_110571" data-name="Grupo 110571" transform="translate(11.587 64.871)">
      <path id="Trazado_169597" data-name="Trazado 169597" d="M17,51.833,13.674,48.5l-3.329,3.329L8.293,49.78l4.355-4.355a1.45,1.45,0,0,1,2.053,0l4.355,4.355Z" transform="translate(-8.293 -45)"/>
    </g>
    <g id="Grupo_110572" data-name="Grupo 110572" transform="translate(30.032 66.323)">
      <path id="Trazado_169598" data-name="Trazado 169598" d="M21,46h2.9V59.065H21Z" transform="translate(-21 -46)"/>
    </g>
    <g id="Grupo_110573" data-name="Grupo 110573" transform="translate(26.103 64.871)">
      <path id="Trazado_169599" data-name="Trazado 169599" d="M27,51.833,23.674,48.5l-3.329,3.329L18.293,49.78l4.355-4.355a1.45,1.45,0,0,1,2.053,0l4.355,4.355Z" transform="translate(-18.293 -45)"/>
    </g>
    <g id="Grupo_110574" data-name="Grupo 110574" transform="translate(44.548 50.355)">
      <path id="Trazado_169600" data-name="Trazado 169600" d="M76,75.645H32.452A1.45,1.45,0,0,1,31,74.194V36.452A1.45,1.45,0,0,1,32.452,35H76a1.45,1.45,0,0,1,1.452,1.452V74.194A1.45,1.45,0,0,1,76,75.645Zm-42.1-2.9H74.548V37.9H33.9Z" transform="translate(-31 -35)"/>
    </g>
    <g id="Grupo_110575" data-name="Grupo 110575" transform="translate(61.968 51.806)">
      <path id="Trazado_169601" data-name="Trazado 169601" d="M53.161,49.065h-8.71A1.45,1.45,0,0,1,43,47.613V36h2.9V46.161H51.71V36h2.9V47.613A1.45,1.45,0,0,1,53.161,49.065Z" transform="translate(-43 -36)"/>
    </g>
    <g id="Grupo_110576" data-name="Grupo 110576" transform="translate(61.968 76.484)">
      <path id="Trazado_169602" data-name="Trazado 169602" d="M54.613,66.065h-2.9V55.9H45.9V66.065H43V54.452A1.45,1.45,0,0,1,44.452,53h8.71a1.45,1.45,0,0,1,1.452,1.452Z" transform="translate(-43 -53)"/>
    </g>
    <g id="Grupo_110577" data-name="Grupo 110577" transform="translate(6.806 1)">
      <path id="Trazado_169603" data-name="Trazado 169603" d="M55.806,12.613H6.452A1.45,1.45,0,0,1,5,11.161V2.452A1.45,1.45,0,0,1,6.452,1H55.806a1.45,1.45,0,0,1,1.452,1.452v8.71A1.45,1.45,0,0,1,55.806,12.613ZM7.9,9.71H54.355V3.9H7.9Z" transform="translate(-5 -1)"/>
    </g>
    <g id="Grupo_110578" data-name="Grupo 110578" transform="translate(25.677 2.452)">
      <path id="Trazado_169604" data-name="Trazado 169604" d="M18,2h2.9v8.71H18Z" transform="translate(-18 -2)"/>
    </g>
    <g id="Grupo_110579" data-name="Grupo 110579" transform="translate(37.29 2.452)">
      <path id="Trazado_169605" data-name="Trazado 169605" d="M26,2h2.9v8.71H26Z" transform="translate(-26 -2)"/>
    </g>
    <g id="Grupo_110580" data-name="Grupo 110580" transform="translate(28.581 11.161)">
      <path id="Trazado_169606" data-name="Trazado 169606" d="M20,8h2.9V42.839H20Z" transform="translate(-20 -8)"/>
    </g>
    <g id="Grupo_110581" data-name="Grupo 110581" transform="translate(34.387 11.161)">
      <path id="Trazado_169607" data-name="Trazado 169607" d="M24,8h2.9V42.839H24Z" transform="translate(-24 -8)"/>
    </g>
    <g id="Grupo_110582" data-name="Grupo 110582" transform="translate(43.097 15.516)">
      <path id="Trazado_169608" data-name="Trazado 169608" d="M30,11h7.258v2.9H30Z" transform="translate(-30 -11)"/>
    </g>
    <g id="Grupo_110583" data-name="Grupo 110583" transform="translate(43.097 21.323)">
      <path id="Trazado_169609" data-name="Trazado 169609" d="M30,15h7.258v2.9H30Z" transform="translate(-30 -15)"/>
    </g>
    <g id="Grupo_110584" data-name="Grupo 110584" transform="translate(54.71 24.226)">
      <path id="Trazado_169610" data-name="Trazado 169610" d="M68.484,44.581h-2.9V19.9H38V17H67.032a1.45,1.45,0,0,1,1.452,1.452Z" transform="translate(-38 -17)"/>
    </g>
    <g id="Grupo_110585" data-name="Grupo 110585" transform="translate(59.065 30.032)">
      <path id="Trazado_169611" data-name="Trazado 169611" d="M46.806,32.613A5.812,5.812,0,0,1,41,26.806V22.452A1.45,1.45,0,0,1,42.452,21h8.71a1.45,1.45,0,0,1,1.452,1.452v4.355A5.812,5.812,0,0,1,46.806,32.613ZM43.9,23.9v2.9a2.9,2.9,0,0,0,5.806,0V23.9Z" transform="translate(-41 -21)"/>
    </g>
    <g id="Grupo_110586" data-name="Grupo 110586" transform="translate(63.419 40.194)">
      <path id="Trazado_169612" data-name="Trazado 169612" d="M44,28h2.9v5.806H44Z" transform="translate(-44 -28)"/>
    </g>
    <g id="Grupo_110587" data-name="Grupo 110587" transform="translate(60.516 44.548)">
      <path id="Trazado_169613" data-name="Trazado 169613" d="M42,31h8.71v2.9H42Z" transform="translate(-42 -31)"/>
    </g>
    <g id="Grupo_110588" data-name="Grupo 110588" transform="translate(73.581 34.387)">
      <path id="Trazado_169614" data-name="Trazado 169614" d="M61.161,32.71h-8.71A1.45,1.45,0,0,1,51,31.258V25.452A1.45,1.45,0,0,1,52.452,24h8.71v2.9H53.9v2.9h7.258Z" transform="translate(-51 -24)"/>
    </g>
    <g id="Grupo_110589" data-name="Grupo 110589" transform="translate(18.419 46)">
      <path id="Trazado_169615" data-name="Trazado 169615" d="M23.161,47.968h-8.71A1.45,1.45,0,0,1,13,46.516V32h2.9V45.065H21.71V32h2.9V46.516A1.45,1.45,0,0,1,23.161,47.968Z" transform="translate(-13 -32)"/>
    </g>
    <g id="Grupo_110590" data-name="Grupo 110590" transform="translate(46 11.161)">
      <path id="Trazado_169616" data-name="Trazado 169616" d="M40.71,44.29H32v-2.9h7.258V8h2.9V42.839A1.45,1.45,0,0,1,40.71,44.29Z" transform="translate(-32 -8)"/>
    </g>
    <g id="Grupo_110591" data-name="Grupo 110591" transform="translate(9.71 11.161)">
      <path id="Trazado_169617" data-name="Trazado 169617" d="M7,8H9.9V42.839H7Z" transform="translate(-7 -8)"/>
    </g>
  </g>
</svg>
