<svg xmlns="http://www.w3.org/2000/svg" width="80" height="79.042" viewBox="0 0 80 79.042">
  <g id="ropa-deportiva" transform="translate(-6.002 -7.464)">
    <g id="Grupo_110532" data-name="Grupo 110532" transform="translate(7.313 8.759)">
      <path id="Trazado_169386" data-name="Trazado 169386" d="M84.1,11.463H13.281A3.279,3.279,0,0,0,10,14.742V31.362a3.279,3.279,0,0,0,3.279,3.279H24.364V84.6a3.279,3.279,0,0,0,3.279,3.279H69.738A3.279,3.279,0,0,0,73.017,84.6V34.641H84.1a3.279,3.279,0,0,0,3.279-3.279V14.742A3.279,3.279,0,0,0,84.1,11.463Z" transform="translate(-10.001 -11.447)" fill="#fbe2ff"/>
      <path id="Trazado_169387" data-name="Trazado 169387" d="M95.63,28.257h-.007L79.84,33.322V22.3A8.248,8.248,0,0,1,85.919,14.3l.062-.016C87.83,19.168,90.4,25.5,95.63,28.257Z" transform="translate(-56.941 -13.345)" fill="#64b5f6"/>
      <path id="Trazado_169388" data-name="Trazado 169388" d="M143.79,22.476V33.437l-15.784-5.066H128c4.807-2.538,7.892-8.744,9.617-13.915a.877.877,0,0,0,.089.023A8.257,8.257,0,0,1,143.79,22.476Z" transform="translate(-89.311 -13.459)" fill="#64b5f6"/>
      <path id="Trazado_169389" data-name="Trazado 169389" d="M117.836,12.412c-1.725,5.171-4.81,11.377-9.617,13.915-5.226-2.761-7.8-9.089-9.649-13.971l.052-.013a29.067,29.067,0,0,1,7.574-.928l4.177.02a29.012,29.012,0,0,1,6.682.78C117.314,12.277,117.574,12.343,117.836,12.412Z" transform="translate(-69.53 -11.415)" fill="#91489d"/>
      <path id="Trazado_169390" data-name="Trazado 169390" d="M124.609,57.929V76.45H118.15V57.929l3.223-1.033h.013Z" transform="translate(-82.691 -41.984)" fill="#64b5f6"/>
    </g>
    <g id="Grupo_110533" data-name="Grupo 110533" transform="translate(6.002 7.464)">
      <path id="Trazado_169395" data-name="Trazado 169395" d="M6,28.675a4.6,4.6,0,0,0,4.59,4.59h9.772v48.65a4.6,4.6,0,0,0,4.59,4.59H67.049a4.6,4.6,0,0,0,4.59-4.59V33.265h9.772A4.6,4.6,0,0,0,86,28.675V12.054a4.6,4.6,0,0,0-4.59-4.59H10.593A4.6,4.6,0,0,0,6,12.054V28.675Zm54.479-10.9v9.162c-10.952-3.515-11.511-3.7-11.511-3.7,3.6-3.089,5.832-7.362,7.456-11.819a6.967,6.967,0,0,1,4.055,6.352ZM48.15,10.091a28.1,28.1,0,0,1,5.748.6C52.344,14.876,49.78,19.8,46,22.157c-3.914-2.421-6.227-7.266-7.887-11.523,3.24-.666,5.324-.565,10.037-.543Zm-.23,15.571V41.914H44.084V25.662L46,25.047ZM35.58,11.357c1.67,4.313,3.815,8.88,7.447,11.888,0,0-.217.071-11.5,3.693V17.711a6.961,6.961,0,0,1,4.057-6.354Zm-26.955.7a1.969,1.969,0,0,1,1.967-1.967H32.645A9.616,9.616,0,0,0,28.9,17.711V28.737a1.312,1.312,0,0,0,1.712,1.249L41.461,26.5V43.226a1.312,1.312,0,0,0,1.311,1.311h6.459a1.312,1.312,0,0,0,1.311-1.311V26.5l10.849,3.482A1.312,1.312,0,0,0,63.1,28.737V17.776a9.617,9.617,0,0,0-3.836-7.69H81.411a1.969,1.969,0,0,1,1.967,1.967V28.674a1.969,1.969,0,0,1-1.967,1.967H70.328a1.312,1.312,0,0,0-1.311,1.311V81.915a1.969,1.969,0,0,1-1.967,1.967H24.955a1.969,1.969,0,0,1-1.967-1.967V31.953a1.312,1.312,0,0,0-1.311-1.311H10.592a1.969,1.969,0,0,1-1.967-1.967Z" transform="translate(-6.002 -7.464)"/>
      <path id="Trazado_169396" data-name="Trazado 169396" d="M176.1,175.583a1.312,1.312,0,0,0,1.311-1.311v-1.908a1.311,1.311,0,1,0-2.623,0v1.908A1.312,1.312,0,0,0,176.1,175.583Z" transform="translate(-119.446 -117.416)"/>
      <path id="Trazado_169397" data-name="Trazado 169397" d="M176.1,203.018a1.312,1.312,0,0,0,1.311-1.311v-8.525a1.311,1.311,0,0,0-2.623,0v8.525A1.312,1.312,0,0,0,176.1,203.018Z" transform="translate(-119.446 -131.408)"/>
    </g>
  </g>
</svg>
