<svg xmlns="http://www.w3.org/2000/svg" width="90" height="90" viewBox="0 0 90 90">
  <g id="Fill_Outline" data-name="Fill Outline" transform="translate(-2 -2)">
    <g id="Color" transform="translate(3.5 3.5)">
      <g id="Grupo_110537" data-name="Grupo 110537">
        <path id="Trazado_169443" data-name="Trazado 169443" d="M3,3H90V90H3Z" transform="translate(-3 -3)" fill="#93999a"/>
        <path id="Trazado_169444" data-name="Trazado 169444" d="M18,3H3V90H90V84H31.5A13.5,13.5,0,0,1,18,70.5H90v-18H34.5A16.5,16.5,0,0,1,18,36H90V19.5H34.5A16.5,16.5,0,0,1,18,3Z" transform="translate(-3 -3)" fill="#afafaf"/>
        <path id="Trazado_169445" data-name="Trazado 169445" d="M14,29.879V26H8v3.879A5.122,5.122,0,0,1,6.5,33.5,5.122,5.122,0,0,0,5,37.121V48.5H17V37.121a5.122,5.122,0,0,0-1.5-3.62A5.122,5.122,0,0,1,14,29.879Z" transform="translate(-2 8.5)" fill="#f7c4ff"/>
        <path id="Trazado_169446" data-name="Trazado 169446" d="M22,29.879V26H16v3.879a5.122,5.122,0,0,1-1.5,3.62A5.122,5.122,0,0,0,13,37.121V48.5H25V37.121a5.122,5.122,0,0,0-1.5-3.62A5.122,5.122,0,0,1,22,29.879Z" transform="translate(2 8.5)" fill="#f7c4ff"/>
        <path id="Trazado_169447" data-name="Trazado 169447" d="M5,49H17V67H5Z" transform="translate(-2 20)" fill="#aae1f9"/>
        <path id="Trazado_169448" data-name="Trazado 169448" d="M13,49H25V67H13Z" transform="translate(2 20)" fill="#c4f236"/>
        <path id="Trazado_169449" data-name="Trazado 169449" d="M5,53H17v6H5Z" transform="translate(-2 22)" fill="#ba68c8"/>
        <path id="Trazado_169450" data-name="Trazado 169450" d="M3,41H90v6H3Z" transform="translate(-3 16)" fill="#f9e109"/>
        <path id="Trazado_169451" data-name="Trazado 169451" d="M18,6.879V3H12V6.879a5.122,5.122,0,0,1-1.5,3.62A5.123,5.123,0,0,0,9,14.121V25.5H21V14.121a5.122,5.122,0,0,0-1.5-3.62A5.123,5.123,0,0,1,18,6.879Z" transform="translate(0 -3)" fill="#aae1f9"/>
        <path id="Trazado_169452" data-name="Trazado 169452" d="M26,6.879V3H20V6.879a5.122,5.122,0,0,1-1.5,3.62A5.122,5.122,0,0,0,17,14.121V25.5H29V14.121a5.122,5.122,0,0,0-1.5-3.62A5.123,5.123,0,0,1,26,6.879Z" transform="translate(4 -3)" fill="#aae1f9"/>
        <path id="Trazado_169453" data-name="Trazado 169453" d="M3,18H90v6H3Z" transform="translate(-3 4.5)" fill="#f9e109"/>
        <path id="Trazado_169454" data-name="Trazado 169454" d="M25,31h9V46H25Z" transform="translate(8 11)" fill="#5c22c3"/>
        <path id="Trazado_169455" data-name="Trazado 169455" d="M42,33h9V45H42Z" transform="translate(16.5 12)" fill="#aae1f9"/>
        <path id="Trazado_169456" data-name="Trazado 169456" d="M31,31h9V46H31Z" transform="translate(11 11)" fill="#5c22c3"/>
        <path id="Trazado_169457" data-name="Trazado 169457" d="M38,10.146V3H32v7.146A14.2,14.2,0,0,1,30.5,16.5,14.2,14.2,0,0,0,29,22.854V25.5H41V22.854A14.2,14.2,0,0,0,39.5,16.5,14.2,14.2,0,0,1,38,10.146Z" transform="translate(10 -3)" fill="#5c22c3"/>
        <path id="Trazado_169458" data-name="Trazado 169458" d="M47.5,16.5A14.2,14.2,0,0,1,46,10.146V3H40v7.146A14.2,14.2,0,0,1,38.5,16.5,14.2,14.2,0,0,0,37,22.854V25.5H49V22.854A14.2,14.2,0,0,0,47.5,16.5Z" transform="translate(14 -3)" fill="#aae1f9"/>
        <path id="Trazado_169459" data-name="Trazado 169459" d="M26,53h7.5V65H26Z" transform="translate(8.5 22)" fill="#aae1f9"/>
        <path id="Trazado_169460" data-name="Trazado 169460" d="M31,53h7.5V65H31Z" transform="translate(11 22)" fill="#f9e109"/>
        <path id="Trazado_169461" data-name="Trazado 169461" d="M36,53h7.5V65H36Z" transform="translate(13.5 22)" fill="#c4f236"/>
        <path id="Trazado_169462" data-name="Trazado 169462" d="M45,45H69V69H45Z" transform="translate(18 18)" fill="#aae1f9"/>
        <rect id="Rectángulo_37021" data-name="Rectángulo 37021" width="12" height="17" rx="2" transform="translate(74.5 40.5)" fill="#aae1f9"/>
        <path id="Trazado_169463" data-name="Trazado 169463" d="M55,26h6v6H55Z" transform="translate(23 8.5)" fill="#c4f236"/>
        <path id="Trazado_169464" data-name="Trazado 169464" d="M20.379,22.5A8.379,8.379,0,0,1,12,14.121a5.122,5.122,0,0,1,1.5-3.62A5.123,5.123,0,0,0,15,6.879V3H12V6.879a5.122,5.122,0,0,1-1.5,3.62A5.122,5.122,0,0,0,9,14.121V25.5H21v-3Z" transform="translate(0 -3)" fill="#57b7eb"/>
        <path id="Trazado_169465" data-name="Trazado 169465" d="M28.379,22.5A8.379,8.379,0,0,1,20,14.121a5.122,5.122,0,0,1,1.5-3.62A5.123,5.123,0,0,0,23,6.879V3H20V6.879a5.122,5.122,0,0,1-1.5,3.62A5.122,5.122,0,0,0,17,14.121V25.5H29v-3Z" transform="translate(4 -3)" fill="#57b7eb"/>
        <path id="Trazado_169466" data-name="Trazado 169466" d="M33.47,16.558l.03-.059A14.2,14.2,0,0,0,35,10.146V3H32v7.146A14.2,14.2,0,0,1,30.5,16.5,14.2,14.2,0,0,0,29,22.854V25.5H41V22.854H37.533a4.434,4.434,0,0,1-4.063-6.3Z" transform="translate(10 -3)" fill="#955bfa"/>
        <path id="Trazado_169467" data-name="Trazado 169467" d="M41.47,16.558l.03-.059A14.2,14.2,0,0,0,43,10.146V3H40v7.146A14.2,14.2,0,0,1,38.5,16.5,14.2,14.2,0,0,0,37,22.854V25.5H49V22.854H45.533a4.434,4.434,0,0,1-4.063-6.3Z" transform="translate(14 -3)" fill="#57b7eb"/>
        <path id="Trazado_169468" data-name="Trazado 169468" d="M47.5,14a14.211,14.211,0,0,1-1.479-6H39.979A14.211,14.211,0,0,1,38.5,14,14.2,14.2,0,0,0,37,20.354V23H49V20.354A14.2,14.2,0,0,0,47.5,14Z" transform="translate(14 -0.5)" fill="#5c22c3"/>
        <path id="Trazado_169469" data-name="Trazado 169469" d="M41.5,14l.043-.084A13.713,13.713,0,0,0,42.98,8h-3a14.211,14.211,0,0,1-1.48,6A14.2,14.2,0,0,0,37,20.354V23H49V20.354H45.484A4.419,4.419,0,0,1,41.5,14Z" transform="translate(14 -0.5)" fill="#955bfa"/>
        <path id="Trazado_169470" data-name="Trazado 169470" d="M10.5,18H3v6H90V21H13.5A3,3,0,0,1,10.5,18Z" transform="translate(-3 4.5)" fill="#fcbc04"/>
        <path id="Trazado_169471" data-name="Trazado 169471" d="M10.5,41H3v6H90V44H13.5A3,3,0,0,1,10.5,41Z" transform="translate(-3 16)" fill="#fcbc04"/>
        <g id="Grupo_110536" data-name="Grupo 110536" transform="translate(69 0)">
          <path id="Trazado_169472" data-name="Trazado 169472" d="M49,3H67V25.5H49Z" transform="translate(-49 -3)" fill="#aae1f9"/>
          <path id="Trazado_169473" data-name="Trazado 169473" d="M49,7H67v9H49Z" transform="translate(-49 -1)" fill="#f9e109"/>
          <path id="Trazado_169474" data-name="Trazado 169474" d="M52,7.5V3H49V25.5H67v-3a15,15,0,0,1-15-15Z" transform="translate(-49 -3)" fill="#57b7eb"/>
          <path id="Trazado_169475" data-name="Trazado 169475" d="M52.075,7H49v9h7.3a14.961,14.961,0,0,1-4.221-9Z" transform="translate(-49 -1)" fill="#fcbc04"/>
        </g>
        <path id="Trazado_169476" data-name="Trazado 169476" d="M16.379,45.5A8.379,8.379,0,0,1,8,37.121,5.122,5.122,0,0,1,9.5,33.5,5.123,5.123,0,0,0,11,29.879V26H8v3.879A5.122,5.122,0,0,1,6.5,33.5,5.122,5.122,0,0,0,5,37.121V48.5H17v-3Z" transform="translate(-2 8.5)" fill="#ba68c8"/>
        <path id="Trazado_169477" data-name="Trazado 169477" d="M24.379,45.5A8.379,8.379,0,0,1,16,37.121a5.122,5.122,0,0,1,1.5-3.62A5.122,5.122,0,0,0,19,29.879V26H16v3.879a5.122,5.122,0,0,1-1.5,3.62A5.122,5.122,0,0,0,13,37.121V48.5H25v-3Z" transform="translate(2 8.5)" fill="#ba68c8"/>
        <path id="Trazado_169478" data-name="Trazado 169478" d="M34,34V31H31V46h9V42.477A9,9,0,0,1,34,34Z" transform="translate(11 11)" fill="#955bfa"/>
        <path id="Trazado_169479" data-name="Trazado 169479" d="M28,34V31H25V46h9V42.477A9,9,0,0,1,28,34Z" transform="translate(8 11)" fill="#955bfa"/>
        <path id="Trazado_169480" data-name="Trazado 169480" d="M45,33H42V45h9V41.477A9,9,0,0,1,45,33Z" transform="translate(16.5 12)" fill="#57b7eb"/>
        <path id="Trazado_169481" data-name="Trazado 169481" d="M56,34.5V30a3,3,0,0,0-3,3V43.5a3,3,0,0,0,3,3h6a3,3,0,0,0,3-3A9,9,0,0,1,56,34.5Z" transform="translate(22 10.5)" fill="#57b7eb"/>
        <path id="Trazado_169482" data-name="Trazado 169482" d="M56.5,26H55v6h6V30.5A4.5,4.5,0,0,1,56.5,26Z" transform="translate(23 8.5)" fill="#a1d51c"/>
        <path id="Trazado_169483" data-name="Trazado 169483" d="M67.5,64.5a15,15,0,0,1-15-15H69V45H45V69H69V64.5Z" transform="translate(18 18)" fill="#57b7eb"/>
        <path id="Trazado_169484" data-name="Trazado 169484" d="M49,51H61v6H49Z" transform="translate(20 21)" fill="#ba68c8"/>
        <path id="Trazado_169485" data-name="Trazado 169485" d="M49,57h5.8a15,15,0,0,1-3.6-6H49Z" transform="translate(20 21)" fill="#5e2667"/>
        <path id="Trazado_169486" data-name="Trazado 169486" d="M29,57.5V53H26V65h7.5V62A4.5,4.5,0,0,1,29,57.5Z" transform="translate(8.5 22)" fill="#57b7eb"/>
        <path id="Trazado_169487" data-name="Trazado 169487" d="M34,57.5V53H31V65h7.5V62A4.5,4.5,0,0,1,34,57.5Z" transform="translate(11 22)" fill="#fcbc04"/>
        <path id="Trazado_169488" data-name="Trazado 169488" d="M39,57.5V53H36V65h7.5V62A4.5,4.5,0,0,1,39,57.5Z" transform="translate(13.5 22)" fill="#a1d51c"/>
        <path id="Trazado_169489" data-name="Trazado 169489" d="M8,52V49H5V67H17V63.607A12,12,0,0,1,8,52Z" transform="translate(-2 20)" fill="#57b7eb"/>
        <path id="Trazado_169490" data-name="Trazado 169490" d="M16,52V49H13V67H25V63.607A12,12,0,0,1,16,52Z" transform="translate(2 20)" fill="#a1d51c"/>
        <circle id="Elipse_5827" data-name="Elipse 5827" cx="4.5" cy="4.5" r="4.5" transform="translate(16.5 73.5)" fill="#aae1f9"/>
        <path id="Trazado_169491" data-name="Trazado 169491" d="M15.765,52.635a4.479,4.479,0,0,0,4.969,7.434,11.973,11.973,0,0,1-4.969-7.434Z" transform="translate(2.496 21.817)" fill="#57b7eb"/>
        <path id="Trazado_169492" data-name="Trazado 169492" d="M8.379,53H5v6h7.089A11.97,11.97,0,0,1,8.38,53Z" transform="translate(-2 22)" fill="#91489d"/>
      </g>
    </g>
    <g id="Outlines_copy" data-name="Outlines copy" transform="translate(2 2)">
      <g id="Grupo_110538" data-name="Grupo 110538">
        <path id="Trazado_169493" data-name="Trazado 169493" d="M90.5,21H3.5a1.5,1.5,0,1,0,0,3h87a1.5,1.5,0,1,0,0-3Z" transform="translate(-2 7.5)" fill="#323232"/>
        <path id="Trazado_169494" data-name="Trazado 169494" d="M90.5,2h-18A1.5,1.5,0,0,0,71,3.5v21H68V23.354a15.8,15.8,0,0,0-1.65-7.024A12.783,12.783,0,0,1,65,10.646V3.5A1.5,1.5,0,0,0,63.5,2h-6A1.5,1.5,0,0,0,56,3.5v7.146a12.783,12.783,0,0,1-1.35,5.684c-.059.12-.1.247-.15.369-.057-.122-.1-.249-.15-.369A12.783,12.783,0,0,1,53,10.646V3.5A1.5,1.5,0,0,0,51.5,2h-6A1.5,1.5,0,0,0,44,3.5v7.146a12.783,12.783,0,0,1-1.342,5.684A15.8,15.8,0,0,0,41,23.354V24.5H26V14.621a3.591,3.591,0,0,1,1.061-2.559A6.577,6.577,0,0,0,29,7.379V5h3V7.379a6.578,6.578,0,0,0,1.939,4.683A3.591,3.591,0,0,1,35,14.621V20a1.5,1.5,0,1,0,3,0V14.621A6.578,6.578,0,0,0,36.06,9.938,3.591,3.591,0,0,1,35,7.379V3.5A1.5,1.5,0,0,0,33.5,2h-6A1.5,1.5,0,0,0,26,3.5V7.379a3.591,3.591,0,0,1-1.061,2.559,6.774,6.774,0,0,0-.439.536,6.772,6.772,0,0,0-.44-.536A3.591,3.591,0,0,1,23,7.379V3.5A1.5,1.5,0,0,0,21.5,2h-6A1.5,1.5,0,0,0,14,3.5V7.379a3.591,3.591,0,0,1-1.061,2.559A6.577,6.577,0,0,0,11,14.621V24.5H3.5a1.5,1.5,0,0,0,0,3h87a1.5,1.5,0,0,0,0-3H74V20H89a1.5,1.5,0,0,0,3,0V3.5A1.5,1.5,0,0,0,90.5,2ZM62,5V9.5H59V5ZM15.06,12.062A6.578,6.578,0,0,0,17,7.379V5h3V7.379a6.577,6.577,0,0,0,1.939,4.683A3.591,3.591,0,0,1,23,14.621V17H14V14.621a3.591,3.591,0,0,1,1.06-2.559ZM14,20h9v4.5H14Zm30,3.354a12.783,12.783,0,0,1,1.343-5.684A15.8,15.8,0,0,0,47,10.646V5h3v5.646a15.8,15.8,0,0,0,1.65,7.024A12.783,12.783,0,0,1,53,23.354V24.5H44ZM56,24.5V23.354a12.783,12.783,0,0,1,1.35-5.684,15.812,15.812,0,0,0,1.536-5.17h3.228a15.812,15.812,0,0,0,1.543,5.171,12.783,12.783,0,0,1,1.35,5.683V24.5ZM89,5V8H74V5ZM74,17V11H89v6Z" transform="translate(-2 -2)" fill="#323232"/>
        <path id="Trazado_169495" data-name="Trazado 169495" d="M90.5,44H3.5a1.5,1.5,0,0,0,0,3H89V68H68V51.5a1.5,1.5,0,0,0-3,0V68H62V57.5A1.5,1.5,0,0,0,60.5,56H38a1.5,1.5,0,0,0-1.5,1.5V68H32V51.5A1.5,1.5,0,0,0,30.5,50H6.5A1.5,1.5,0,0,0,5,51.5V68H3.5a1.5,1.5,0,0,0,0,3h87A1.5,1.5,0,0,0,92,69.5v-24A1.5,1.5,0,0,0,90.5,44ZM59,62H54.5V59H59Zm-7.5,0H47V59h4.5ZM44,59v3H39.5V59ZM29,56.573a5.921,5.921,0,0,0-9,0V53h9ZM27.5,60.5a3,3,0,1,1-3-3A3,3,0,0,1,27.5,60.5ZM8,59h9v3H8Zm9-6v3H8V53ZM8,65h9v3H8Zm12,3V64.427a5.921,5.921,0,0,0,9,0V68Zm19.5-3H44v3H39.5ZM47,65h4.5v3H47Zm7.5,3V65H59v3Z" transform="translate(-2 19)" fill="#323232"/>
        <path id="Trazado_169496" data-name="Trazado 169496" d="M61.5,59A1.5,1.5,0,0,0,63,57.5v-6A1.5,1.5,0,0,0,61.5,50h-12A1.5,1.5,0,0,0,48,51.5v6A1.5,1.5,0,0,0,49.5,59ZM51,53h9v3H51Z" transform="translate(21 22)" fill="#323232"/>
        <path id="Trazado_169497" data-name="Trazado 169497" d="M89,31.276V26.5A1.5,1.5,0,0,0,87.5,25h-6A1.5,1.5,0,0,0,80,26.5v4.776A4.5,4.5,0,0,0,77,35.5V46a4.449,4.449,0,0,0,.276,1.5H72.5v-9a1.5,1.5,0,0,0,0-3h-12a1.5,1.5,0,0,0,0,3v9H56V34a1.5,1.5,0,0,0-1.5-1.5h-18A1.5,1.5,0,0,0,35,34V47.5H32V46a1.5,1.5,0,1,0-3,0v1.5H20V37.621a3.591,3.591,0,0,1,1.06-2.559A6.577,6.577,0,0,0,23,30.379V28h3v2.379a6.577,6.577,0,0,0,1.94,4.683A3.591,3.591,0,0,1,29,37.621V40a1.5,1.5,0,1,0,3,0V37.621a6.577,6.577,0,0,0-1.94-4.683A3.591,3.591,0,0,1,29,30.379V26.5A1.5,1.5,0,0,0,27.5,25h-6A1.5,1.5,0,0,0,20,26.5v3.879a3.591,3.591,0,0,1-1.06,2.559,6.773,6.773,0,0,0-.44.535,6.774,6.774,0,0,0-.44-.535A3.591,3.591,0,0,1,17,30.379V26.5A1.5,1.5,0,0,0,15.5,25h-6A1.5,1.5,0,0,0,8,26.5v3.879a3.591,3.591,0,0,1-1.06,2.559A6.577,6.577,0,0,0,5,37.621V47.5H3.5a1.5,1.5,0,0,0,0,3h87a1.5,1.5,0,0,0,1.05-2.569A4.446,4.446,0,0,0,92,46V35.5a4.5,4.5,0,0,0-3-4.224ZM9.061,35.062A6.577,6.577,0,0,0,11,30.379V28h3v2.379a6.577,6.577,0,0,0,1.94,4.683A3.591,3.591,0,0,1,17,37.621V40H8V37.621a3.591,3.591,0,0,1,1.06-2.559ZM8,43h9v4.5H8ZM83,28h3v3H83Zm-1.5,6h6A1.5,1.5,0,0,1,89,35.5V40H80V35.5A1.5,1.5,0,0,1,81.5,34ZM53,41.5H47v-6h6Zm-9-6v3H38v-3Zm-6,6h6v6H38Zm9,6v-3h6v3Zm16.5,0v-9h6v9Zm18,0A1.5,1.5,0,0,1,80,46V43h9v3a1.5,1.5,0,0,1-1.5,1.5Z" transform="translate(-2 9.5)" fill="#323232"/>
      </g>
    </g>
  </g>
</svg>
