<svg xmlns="http://www.w3.org/2000/svg" width="80" height="67.475" viewBox="0 0 80 67.475">
  <g id="queso" transform="translate(0 -40.081)">
    <path id="Trazado_169372" data-name="Trazado 169372" d="M85.156,67.621,45.87,49.011a15.234,15.234,0,0,0-7.7-1.381C15.281,49.458,7.5,65.551,7.5,72.631H85.156Z" transform="translate(-6.328 -6.328)" fill="#fff082"/>
    <path id="Trazado_169373" data-name="Trazado 169373" d="M84.118,197.239a1.269,1.269,0,0,0,1.039-1.229V175.838H12.51a5.01,5.01,0,0,0-5.01,5.01v35.071a5.01,5.01,0,0,0,5.01,5.01H38a1.239,1.239,0,0,0,1.17-.827,6.264,6.264,0,0,1,11.816,0,1.239,1.239,0,0,0,1.17.827H83.9a1.253,1.253,0,0,0,1.253-1.252v-11.4a1.27,1.27,0,0,0-1.039-1.229,5.011,5.011,0,0,1,0-9.8Z" transform="translate(-6.328 -114.545)" fill="#ffdc64"/>
    <g id="Grupo_110530" data-name="Grupo 110530" transform="translate(29.98 71.313)">
      <circle id="Elipse_5821" data-name="Elipse 5821" cx="2.505" cy="2.505" r="2.505" transform="translate(32.566)" fill="#e1a546"/>
      <circle id="Elipse_5822" data-name="Elipse 5822" cx="2.505" cy="2.505" r="2.505" transform="translate(0 17.536)" fill="#e1a546"/>
    </g>
    <circle id="Elipse_5823" data-name="Elipse 5823" cx="3.758" cy="3.758" r="3.758" transform="translate(9.939 91.352)" fill="#ffc850"/>
    <path id="Trazado_169374" data-name="Trazado 169374" d="M69.195,368.225a3.752,3.752,0,0,0-3.42,2.217,3.744,3.744,0,0,1,4.961,4.961,3.753,3.753,0,0,0-1.541-7.177Z" transform="translate(-55.498 -276.872)" fill="#e1a546"/>
    <circle id="Elipse_5824" data-name="Elipse 5824" cx="3.758" cy="3.758" r="3.758" transform="translate(42.505 67.555)" fill="#ffc850"/>
    <path id="Trazado_169375" data-name="Trazado 169375" d="M277.615,215.919a3.752,3.752,0,0,0-3.42,2.217,3.744,3.744,0,0,1,4.961,4.961,3.753,3.753,0,0,0-1.541-7.177Z" transform="translate(-231.352 -148.364)" fill="#e1a546"/>
    <circle id="Elipse_5825" data-name="Elipse 5825" cx="6.263" cy="6.263" r="6.263" transform="translate(14.95 70.06)" fill="#ffc850"/>
    <path id="Trazado_169376" data-name="Trazado 169376" d="M106.17,231.951a6.236,6.236,0,0,0-5.479,3.288,6.193,6.193,0,0,1,2.974-.783,6.263,6.263,0,0,1,6.263,6.263,6.192,6.192,0,0,1-.783,2.974,6.243,6.243,0,0,0-2.974-11.742Z" transform="translate(-84.958 -161.891)" fill="#e1a546"/>
    <circle id="Elipse_5826" data-name="Elipse 5826" cx="6.263" cy="6.263" r="6.263" transform="translate(48.767 85.091)" fill="#ffc850"/>
    <path id="Trazado_169377" data-name="Trazado 169377" d="M322.606,328.145a6.236,6.236,0,0,0-5.479,3.288,6.193,6.193,0,0,1,2.974-.783,6.263,6.263,0,0,1,6.263,6.263,6.192,6.192,0,0,1-.783,2.974,6.243,6.243,0,0,0-2.974-11.742Z" transform="translate(-267.576 -243.054)" fill="#e1a546"/>
    <path id="Trazado_169378" data-name="Trazado 169378" d="M7.5,215.919h0a5.01,5.01,0,0,1,5.01,5.01v22.545a7.515,7.515,0,0,0,7.515,7.515H36.934a1.879,1.879,0,0,1,1.879,1.879h0a1.879,1.879,0,0,1-1.879,1.879H12.51a5.01,5.01,0,0,1-5.01-5.01Z" transform="translate(-6.328 -148.364)" fill="#ffc850"/>
    <path id="Trazado_169379" data-name="Trazado 169379" d="M317.95,325.678a1.172,1.172,0,0,0-.915,1.382,5.091,5.091,0,1,1-4.989-4.072,5.053,5.053,0,0,1,2.036.423,1.172,1.172,0,0,0,.938-2.148,7.436,7.436,0,1,0,4.46,6.816,7.483,7.483,0,0,0-.149-1.486A1.172,1.172,0,0,0,317.95,325.678Z" transform="translate(-257.016 -236.726)"/>
    <path id="Trazado_169380" data-name="Trazado 169380" d="M101.515,229.485a1.172,1.172,0,0,0-.915,1.381,5.091,5.091,0,1,1-4.989-4.071,5.052,5.052,0,0,1,2.036.423,1.172,1.172,0,0,0,.938-2.148,7.436,7.436,0,1,0,4.461,6.816,7.491,7.491,0,0,0-.149-1.485A1.172,1.172,0,0,0,101.515,229.485Z" transform="translate(-74.398 -155.563)"/>
    <path id="Trazado_169381" data-name="Trazado 169381" d="M274.392,213.348a1.172,1.172,0,1,0-2.344,0,2.586,2.586,0,1,1-2.586-2.586,1.172,1.172,0,0,0,0-2.344,4.929,4.929,0,1,0,4.929,4.929Z" transform="translate(-223.2 -142.036)"/>
    <path id="Trazado_169382" data-name="Trazado 169382" d="M396.468,232.467a3.677,3.677,0,1,0,3.677,3.677A3.681,3.681,0,0,0,396.468,232.467Zm0,5.01a1.333,1.333,0,1,1,1.333-1.333A1.335,1.335,0,0,1,396.468,237.477Z" transform="translate(-331.417 -162.326)"/>
    <path id="Trazado_169383" data-name="Trazado 169383" d="M61.042,360.725a4.929,4.929,0,1,0,4.929,4.93A4.935,4.935,0,0,0,61.042,360.725Zm0,7.515a2.586,2.586,0,1,1,2.586-2.586A2.588,2.588,0,0,1,61.042,368.24Z" transform="translate(-47.345 -270.544)"/>
    <path id="Trazado_169384" data-name="Trazado 169384" d="M188.048,344.693a3.677,3.677,0,1,0,3.677,3.677A3.681,3.681,0,0,0,188.048,344.693Zm0,5.01a1.333,1.333,0,1,1,1.333-1.333A1.335,1.335,0,0,1,188.048,349.7Z" transform="translate(-155.563 -257.017)"/>
    <path id="Trazado_169385" data-name="Trazado 169385" d="M78.031,83.84A2.43,2.43,0,0,0,80,81.464V61.293a1.171,1.171,0,0,0-.671-1.058h0L40.041,41.623a16.419,16.419,0,0,0-8.291-1.489c-12.938,1.033-20.564,6.5-24.682,10.9C1.851,56.607,0,62.743,0,66.3v35.071a6.189,6.189,0,0,0,6.182,6.182H31.669a2.415,2.415,0,0,0,2.276-1.61,5.092,5.092,0,0,1,9.606,0,2.415,2.415,0,0,0,2.276,1.61h31.75A2.427,2.427,0,0,0,80,105.131v-11.4a2.43,2.43,0,0,0-1.969-2.376,3.839,3.839,0,0,1,0-7.511Zm-.483,9.8c.053.011.109.045.109.082v11.4a.081.081,0,0,1-.081.081H45.826a.067.067,0,0,1-.065-.044,7.436,7.436,0,0,0-14.027,0,.067.067,0,0,1-.065.044H6.182a3.843,3.843,0,0,1-3.838-3.838V66.3a3.843,3.843,0,0,1,3.838-3.838H61.293a1.172,1.172,0,0,0,0-2.344H6.182a6.142,6.142,0,0,0-2.6.573,27.518,27.518,0,0,1,5.192-8.06c3.836-4.1,10.967-9.19,23.158-10.164a14.074,14.074,0,0,1,7.1,1.272L73.617,60.121H66.3a1.172,1.172,0,0,0,0,2.344H77.656v19c0,.037-.055.071-.109.082a6.183,6.183,0,0,0,0,12.1Z"/>
  </g>
</svg>
