<svg xmlns="http://www.w3.org/2000/svg" width="90" height="86.113" viewBox="0 0 90 86.113">
  <g id="lugar" transform="translate(0.002 -0.09)">
    <path id="Trazado_169433" data-name="Trazado 169433" d="M266.011,8.09a20.3,20.3,0,0,1,0,40.6q-.966,0-1.909-.09a20.3,20.3,0,0,1-18.392-20.211q0-1.005.1-1.983A20.3,20.3,0,0,1,266.011,8.09ZM277.861,25.9a11.854,11.854,0,1,0-22.275,5.686,12.316,12.316,0,0,0,2.037,2.751l8.361,8.363,8.364-8.363A11.9,11.9,0,0,0,277.861,25.9Zm0,0" transform="translate(-197.865 -6.442)" fill="#ebf6ff"/>
    <path id="Trazado_169434" data-name="Trazado 169434" d="M309.349,42.358a11.755,11.755,0,0,1,3.459,8.342,11.9,11.9,0,0,1-3.513,8.437L300.931,67.5l-8.361-8.363a12.316,12.316,0,0,1-2.037-2.751,11.861,11.861,0,0,1,18.816-14.028Zm-2.011,8.033a6.407,6.407,0,1,0-6.407,6.406A6.407,6.407,0,0,0,307.338,50.39Zm0,0" transform="translate(-232.812 -31.246)" fill="#5c22c3"/>
    <path id="Trazado_169435" data-name="Trazado 169435" d="M323.328,65.031a6.407,6.407,0,1,1-6.406,6.409A6.407,6.407,0,0,1,323.328,65.031Zm0,0" transform="translate(-255.209 -52.295)" fill="#fff505"/>
    <path id="Trazado_169436" data-name="Trazado 169436" d="M72.5,124.355l0,.031v42.5H7.781V102.16h22.2v16.048l10.162-3.567,10.165,3.567V102.16H54.2l.015,0q-.1.979-.1,1.983A20.3,20.3,0,0,0,72.5,124.355Zm0,0" transform="translate(-6.267 -82.194)" fill="#c99b50"/>
    <path id="Trazado_169437" data-name="Trazado 169437" d="M142.1,102.16v16.048l-10.165-3.567-10.162,3.567V102.16Zm0,0" transform="translate(-98.062 -82.194)" fill="#64b5f6"/>
    <g id="Grupo_110535" data-name="Grupo 110535" transform="translate(-0.002 0.09)">
      <path id="Trazado_169438" data-name="Trazado 169438" d="M294.472,30.89a13.4,13.4,0,0,0-11.8,19.788l.011.021a13.763,13.763,0,0,0,2.3,3.1l8.362,8.363a1.558,1.558,0,0,0,2.2,0L303.91,53.8a13.386,13.386,0,0,0-9.438-22.9Zm7.235,20.7-7.261,7.261-7.26-7.262a10.69,10.69,0,0,1-1.772-2.4,10.3,10.3,0,1,1,16.293,2.4Zm0,0" transform="translate(-226.324 -24.893)"/>
      <path id="Trazado_169439" data-name="Trazado 169439" d="M316.877,57.031A7.965,7.965,0,1,0,324.841,65,7.965,7.965,0,0,0,316.877,57.031Zm0,12.815A4.85,4.85,0,1,1,321.726,65,4.85,4.85,0,0,1,316.877,69.846Zm0,0" transform="translate(-248.756 -45.943)"/>
      <path id="Trazado_169440" data-name="Trazado 169440" d="M87.859,260.424h20.328a1.558,1.558,0,0,0,0-3.116H87.859a1.558,1.558,0,0,0,0,3.116Zm0,0" transform="translate(-69.495 -207.221)"/>
      <path id="Trazado_169441" data-name="Trazado 169441" d="M118.885,312.309H87.859a1.558,1.558,0,0,0,0,3.116h31.027a1.558,1.558,0,1,0,0-3.116Zm0,0" transform="translate(-69.495 -251.511)"/>
      <path id="Trazado_169442" data-name="Trazado 169442" d="M68.146.09a21.885,21.885,0,0,0-21.57,18.347H1.514A1.5,1.5,0,0,0,0,19.966V84.688A1.485,1.485,0,0,0,1.514,86.2H66.236a1.5,1.5,0,0,0,1.528-1.514V43.8c.195,0,.249,0,.367,0A21.859,21.859,0,0,0,68.146.09ZM25.313,21.553H42.45V33.816l-8.075-2.84a1.472,1.472,0,0,0-1,0l-8.059,2.84ZM3.114,83.087V21.553H22.2V36.013a1.525,1.525,0,0,0,2.035,1.47L33.877,34.1l9.647,3.386a1.526,1.526,0,0,0,1.4-.2,1.542,1.542,0,0,0,.64-1.271V21.553h.728c0,.195-.005.27-.005.412A21.822,21.822,0,0,0,64.649,43.533V83.087ZM68.146,40.693c-.6,0-1.191-.028-1.764-.084A18.742,18.742,0,0,1,49.4,21.95c0-.609.03-1.225.09-1.83v0A18.743,18.743,0,1,1,68.146,40.693Zm0,0" transform="translate(0.002 -0.09)"/>
    </g>
  </g>
</svg>
