<svg xmlns="http://www.w3.org/2000/svg" width="74.979" height="80" viewBox="0 0 74.979 80">
  <g id="producto" transform="translate(0)">
    <path id="Trazado_169020" data-name="Trazado 169020" d="M80.148,330.66v8.885a3.113,3.113,0,0,1-3.111,3.113H10.881a3.113,3.113,0,0,1-3.111-3.113V330.66Zm0,0" transform="translate(-6.469 -275.32)" fill="#3e108e"/>
    <path id="Trazado_169021" data-name="Trazado 169021" d="M363.768,100.342V136.3H348.4V97.23h12.258A3.11,3.11,0,0,1,363.768,100.342Zm0,0" transform="translate(-290.089 -80.958)" fill="#cde6fa"/>
    <path id="Trazado_169022" data-name="Trazado 169022" d="M120.254,50.953l.167.054,12.286-3.961V30.275l-12.286-3.961-12.286,3.961v16.77Zm20.987,11.285v.131H99.6v-49.3a4.631,4.631,0,0,1,4.633-4.633h24.639V18.866a2.318,2.318,0,0,0,2.316,2.316h9.15l.9,1Zm0,0" transform="translate(-82.932 -7.029)" fill="#fff972"/>
    <path id="Trazado_169023" data-name="Trazado 169023" d="M274.5,8.441l11.464,12.741h-9.148a2.318,2.318,0,0,1-2.316-2.316Zm0,0" transform="translate(-228.559 -7.029)" fill="#fff972"/>
    <path id="Trazado_169024" data-name="Trazado 169024" d="M168.026,402.352l3.111,11.248h-26.6l3.111-11.248Zm0,0" transform="translate(-120.349 -335.012)" fill="#2c0b67"/>
    <g id="Grupo_110373" data-name="Grupo 110373" transform="translate(25.203 19.285)">
      <path id="Trazado_169025" data-name="Trazado 169025" d="M235.454,138.9v16.77l-12.286,3.961-.167-.054V142.809l.167.053Zm0,0" transform="translate(-210.881 -134.937)" fill="#c99b50"/>
      <path id="Trazado_169026" data-name="Trazado 169026" d="M162.709,123.1l-12.119-3.91,12.286-3.961,12.286,3.961-12.286,3.963Zm0,0" transform="translate(-150.59 -115.23)" fill="#c99b50"/>
      <path id="Trazado_169027" data-name="Trazado 169027" d="M162.709,142.809v16.768l-12.119-3.908V138.9Zm0,0" transform="translate(-150.59 -134.937)" fill="#c99b50"/>
    </g>
    <path id="Trazado_169028" data-name="Trazado 169028" d="M23.139,136.167v.131H7.77V100.342a3.111,3.111,0,0,1,3.111-3.111H23.139Zm0,0" transform="translate(-6.469 -80.958)" fill="#cde6fa"/>
    <path id="Trazado_169029" data-name="Trazado 169029" d="M0,19.384V64.226a4.373,4.373,0,0,0,4.412,4.393H25.542l-2.371,8.7h-4.82a1.339,1.339,0,1,0,0,2.678H56.628a1.339,1.339,0,0,0,0-2.678h-4.82l-2.371-8.7h21.13a4.373,4.373,0,0,0,4.412-4.393V19.384A4.456,4.456,0,0,0,70.567,14.9H59.629a1.694,1.694,0,0,0-.324-.651l-.9-1c-.006-.006-.012-.007-.018-.013L46.937.478a1.375,1.375,0,0,0-1-.478H21.3a5.984,5.984,0,0,0-5.9,6.045V14.9H4.411A4.456,4.456,0,0,0,0,19.384ZM49.028,77.322H25.95l2.371-8.7H46.658ZM70.567,65.941H4.411a1.693,1.693,0,0,1-1.734-1.715v-7.49H72.3v7.49a1.693,1.693,0,0,1-1.734,1.715ZM47.2,4.9l7.2,7.984H48.257A1.117,1.117,0,0,1,47.2,11.838ZM72.3,19.384V54.059H59.581V17.573H70.567A1.776,1.776,0,0,1,72.3,19.384ZM21.3,2.678H44.519v9.16a3.794,3.794,0,0,0,3.739,3.727H56.81l.093.107V54.059H18.075V6.045A3.305,3.305,0,0,1,21.3,2.678ZM15.4,54.059H2.678V19.384a1.776,1.776,0,0,1,1.734-1.811H15.4Zm0,0"/>
    <path id="Trazado_169030" data-name="Trazado 169030" d="M143.709,130.575l12.105,3.909.159.054a1.319,1.319,0,0,0,.812,0l12.251-3.961a1.308,1.308,0,0,0,.892-1.274v-16.77a1.309,1.309,0,0,0-.894-1.274L156.766,107.3a1.308,1.308,0,0,0-.813,0l-12.282,3.961a1.307,1.307,0,0,0-.892,1.274h.037V129.3A1.31,1.31,0,0,0,143.709,130.575Zm1.784-16.206,9.372,3.046V131.37l-9.372-3.045Zm12.05,17.108V117.523l9.707-3.153v13.956Zm-1.172-21.5,7.924,2.554-7.924,2.557-7.924-2.557Zm0,0" transform="translate(-118.883 -89.284)"/>
  </g>
</svg>
