<svg xmlns="http://www.w3.org/2000/svg" width="85.509" height="90" viewBox="0 0 85.509 90">
  <g id="caja-de-entrega" transform="translate(-12.773 0)">
    <g id="Grupo_110540" data-name="Grupo 110540" transform="translate(14.092 35.636)">
      <path id="Trazado_169553" data-name="Trazado 169553" d="M74.974,255.774H22.032a1.758,1.758,0,0,1-1.758-1.758v-49.53a1.758,1.758,0,0,1,1.758-1.758H74.974a1.758,1.758,0,0,1,1.758,1.758v49.53A1.758,1.758,0,0,1,74.974,255.774Z" transform="translate(-20.274 -202.728)" fill="#d3a06c"/>
    </g>
    <g id="Grupo_110543" data-name="Grupo 110543" transform="translate(36.407 35.636)">
      <path id="Trazado_169556" data-name="Trazado 169556" d="M157.625,218.079l-3.943-3.123a.879.879,0,0,0-1.091,0l-3.943,3.123a.879.879,0,0,1-1.425-.689V202.728H159.05v14.661A.879.879,0,0,1,157.625,218.079Z" transform="translate(-147.223 -202.728)" fill="#5c22c3"/>
    </g>
    <g id="Grupo_110544" data-name="Grupo 110544" transform="translate(22.486 58.362)">
      <path id="Trazado_169557" data-name="Trazado 169557" d="M71.828,347.625h3.241a.879.879,0,0,0,.879-.879v-8.774H78.1a.879.879,0,0,0,.6-1.517l-4.435-4.2a.879.879,0,0,0-1.186-.021l-4.758,4.2a.879.879,0,0,0,.582,1.538h2.038v8.774A.879.879,0,0,0,71.828,347.625Z" transform="translate(-68.03 -332.013)" fill="#fff505"/>
    </g>
    <g id="Grupo_110545" data-name="Grupo 110545" transform="translate(58.395 12.486)">
      <path id="Trazado_169558" data-name="Trazado 169558" d="M274.067,118.18H309.12a1.758,1.758,0,0,0,1.758-1.758V72.789a1.758,1.758,0,0,0-1.758-1.758H274.067a1.758,1.758,0,0,0-1.758,1.758v43.633A1.758,1.758,0,0,0,274.067,118.18Z" transform="translate(-272.309 -71.031)" fill="#f6f6f6"/>
    </g>
    <g id="Grupo_110547" data-name="Grupo 110547" transform="translate(68.028 1.317)">
      <path id="Trazado_169560" data-name="Trazado 169560" d="M344.655,13.827h-2.42a1.049,1.049,0,0,1-1.045-1.192,4.478,4.478,0,1,0-8.907-.661,4.435,4.435,0,0,0,.048.649,1.065,1.065,0,0,1-1.065,1.2h-2.4a1.758,1.758,0,0,0-1.758,1.758V20.63a1.758,1.758,0,0,0,1.758,1.758h15.787a1.758,1.758,0,0,0,1.758-1.758V15.585a1.758,1.758,0,0,0-1.758-1.758Z" transform="translate(-327.11 -7.496)" fill="#d9d100"/>
    </g>
    <g id="Grupo_110549" data-name="Grupo 110549" transform="translate(12.773 0)">
      <path id="Trazado_169562" data-name="Trazado 169562" d="M70.549,338.55a1.318,1.318,0,0,0-1.318,1.318v21.147a.44.44,0,0,1-.439.439H15.849a.44.44,0,0,1-.439-.439V333.865a1.318,1.318,0,1,0-2.637,0v27.149a3.08,3.08,0,0,0,3.076,3.076H68.791a3.08,3.08,0,0,0,3.076-3.076V339.868A1.318,1.318,0,0,0,70.549,338.55Z" transform="translate(-12.773 -274.091)"/>
      <path id="Trazado_169563" data-name="Trazado 169563" d="M52.326,445.128a1.318,1.318,0,0,0,1.318,1.318H67.365a1.318,1.318,0,0,0,0-2.637H53.644A1.318,1.318,0,0,0,52.326,445.128Z" transform="translate(-45.373 -365.796)"/>
      <path id="Trazado_169564" data-name="Trazado 169564" d="M65.642,342.743h3.241a2.2,2.2,0,0,0,2.2-2.2v-7.455h.837a2.2,2.2,0,0,0,1.511-3.792l-4.435-4.2a2.186,2.186,0,0,0-2.966-.052l-4.758,4.2a2.2,2.2,0,0,0,1.455,3.844h.72v7.455A2.2,2.2,0,0,0,65.642,342.743Zm1.83-15.456,3.343,3.167H69.762a1.318,1.318,0,0,0-1.318,1.318v8.334H66.082v-8.334a1.318,1.318,0,0,0-1.318-1.318h-.877Z" transform="translate(-52.131 -267.45)"/>
      <path id="Trazado_169565" data-name="Trazado 169565" d="M252.421,446.447h8.48a1.318,1.318,0,1,0,0-2.637h-8.48a1.318,1.318,0,0,0,0,2.637Z" transform="translate(-209.209 -365.796)"/>
      <path id="Trazado_169566" data-name="Trazado 169566" d="M252.421,415.967h8.48a1.318,1.318,0,1,0,0-2.637h-8.48a1.318,1.318,0,0,0,0,2.637Z" transform="translate(-209.209 -340.674)"/>
      <path id="Trazado_169567" data-name="Trazado 169567" d="M95.206,11.167H88.649V9.406A3.08,3.08,0,0,0,85.573,6.33H83.451A5.8,5.8,0,1,0,71.883,5.8c0,.178.008.357.025.535H69.786A3.08,3.08,0,0,0,66.71,9.406v1.761H60.153a3.08,3.08,0,0,0-3.076,3.076V24.453a1.318,1.318,0,1,0,2.637,0V14.244a.44.44,0,0,1,.439-.439H66.71v.648a3.08,3.08,0,0,0,3.076,3.076H85.573a3.08,3.08,0,0,0,3.076-3.076V13.8h6.557a.44.44,0,0,1,.439.439V57.877a.44.44,0,0,1-.439.439H60.153a.44.44,0,0,1-.439-.439v-27a1.318,1.318,0,1,0-2.637,0v3.441H15.849a3.08,3.08,0,0,0-3.076,3.076V53.361a1.318,1.318,0,0,0,2.637,0V37.394a.44.44,0,0,1,.439-.439H35.088V50.3A2.2,2.2,0,0,0,38.65,52.02l3.67-2.907,3.67,2.907A2.2,2.2,0,0,0,49.552,50.3V36.954h7.525V57.877a3.08,3.08,0,0,0,3.076,3.076H95.206a3.08,3.08,0,0,0,3.076-3.076V14.244a3.079,3.079,0,0,0-3.076-3.076Zm-9.194,3.284a.44.44,0,0,1-.439.439H69.786a.44.44,0,0,1-.439-.439V9.406a.44.44,0,0,1,.439-.439h2.4A2.4,2.4,0,0,0,74,8.133a2.353,2.353,0,0,0,.549-1.883A3.118,3.118,0,0,1,74.52,5.8,3.16,3.16,0,1,1,80.8,6.26a2.343,2.343,0,0,0,.544,1.879,2.379,2.379,0,0,0,1.805.828h2.42a.44.44,0,0,1,.439.439v5.045Zm-39.1,34.937L43.684,46.83a2.189,2.189,0,0,0-2.728,0l-3.231,2.559V36.954h9.19V49.389Z" transform="translate(-12.773 0)"/>
      <path id="Trazado_169568" data-name="Trazado 169568" d="M317.653,123a1.318,1.318,0,0,0-1.865,0l-2.506,2.506-.787-.787a1.318,1.318,0,0,0-1.865,1.864l1.719,1.719a1.319,1.319,0,0,0,1.865,0l3.438-3.438A1.319,1.319,0,0,0,317.653,123Z" transform="translate(-257.955 -101.058)"/>
      <path id="Trazado_169569" data-name="Trazado 169569" d="M375.659,135.028h12.625a1.318,1.318,0,0,0,0-2.637H375.659a1.318,1.318,0,0,0,0,2.637Z" transform="translate(-310.784 -109.119)"/>
      <path id="Trazado_169570" data-name="Trazado 169570" d="M315.788,168.54l-2.506,2.506-.787-.787a1.318,1.318,0,0,0-1.865,1.864l1.719,1.719a1.319,1.319,0,0,0,1.865,0l3.438-3.438a1.318,1.318,0,0,0-1.865-1.864Z" transform="translate(-257.954 -138.595)"/>
      <path id="Trazado_169571" data-name="Trazado 169571" d="M375.659,180.57h12.625a1.318,1.318,0,0,0,0-2.637H375.659a1.318,1.318,0,0,0,0,2.637Z" transform="translate(-310.784 -146.655)"/>
      <path id="Trazado_169572" data-name="Trazado 169572" d="M310.631,217.665l1.719,1.719a1.319,1.319,0,0,0,1.865,0l3.438-3.438a1.318,1.318,0,0,0-1.865-1.864l-2.506,2.506-.787-.787a1.318,1.318,0,0,0-1.865,1.864Z" transform="translate(-257.955 -176.131)"/>
      <path id="Trazado_169573" data-name="Trazado 169573" d="M375.659,226.112h12.625a1.318,1.318,0,0,0,0-2.637H375.659a1.318,1.318,0,0,0,0,2.637Z" transform="translate(-310.784 -184.192)"/>
      <path id="Trazado_169574" data-name="Trazado 169574" d="M315.788,259.623l-2.506,2.506-.787-.787a1.318,1.318,0,0,0-1.865,1.864l1.719,1.719a1.319,1.319,0,0,0,1.865,0l3.438-3.438a1.318,1.318,0,0,0-1.865-1.864Z" transform="translate(-257.954 -213.667)"/>
      <path id="Trazado_169575" data-name="Trazado 169575" d="M375.659,271.653h12.625a1.318,1.318,0,1,0,0-2.637H375.659a1.318,1.318,0,1,0,0,2.637Z" transform="translate(-310.784 -221.728)"/>
    </g>
  </g>
</svg>
