<svg xmlns="http://www.w3.org/2000/svg" width="190" height="431" viewBox="0 0 190 431">
  <g id="Grupo_110468" data-name="Grupo 110468" transform="translate(-285 -6524)">
    <rect id="Rectángulo_36671" data-name="Rectángulo 36671" width="147" height="431" transform="translate(307 6524)" fill="#cde6fa"/>
    <g id="Grupo_110351" data-name="Grupo 110351" transform="translate(285 6524)">
      <rect id="Rectángulo_36673" data-name="Rectángulo 36673" width="42" height="42" fill="#ba68c8"/>
      <rect id="Rectángulo_36674" data-name="Rectángulo 36674" width="42" height="42" transform="translate(148 389)" fill="#64b5f6"/>
      <g id="en-stock" transform="translate(16.764 172.198)">
        <g id="Grupo_110494" data-name="Grupo 110494" transform="translate(43.483 1.238)">
          <g id="Grupo_110493" data-name="Grupo 110493" transform="translate(0)">
            <g id="Grupo_110473" data-name="Grupo 110473" transform="translate(0 58.084)">
              <path id="Trazado_169238" data-name="Trazado 169238" d="M49.809,352.943v20.349l34.753.851,34.753-.869V352.943Z" transform="translate(-49.809 -352.943)" fill="#fff505"/>
            </g>
            <g id="Grupo_110474" data-name="Grupo 110474" transform="translate(28.084)">
              <path id="Trazado_169239" data-name="Trazado 169239" d="M216.432,8.324V23.493h17.7V8.356Z" transform="translate(-216.432 -8.324)" fill="#d3a06c"/>
            </g>
            <g id="Grupo_110475" data-name="Grupo 110475" transform="translate(34.408 0.064)">
              <path id="Trazado_169240" data-name="Trazado 169240" d="M253.953,8.7v5.069H259V8.714Z" transform="translate(-253.953 -8.705)" fill="#ba68c8"/>
            </g>
            <g id="Grupo_110476" data-name="Grupo 110476" transform="translate(0.052 10.052)">
              <path id="Trazado_169241" data-name="Trazado 169241" d="M50.119,67.965H73.042v20.33H50.119Z" transform="translate(-50.119 -67.965)" fill="#ba68c8"/>
            </g>
            <g id="Grupo_110478" data-name="Grupo 110478" transform="translate(0 78.415)">
              <path id="Trazado_169243" data-name="Trazado 169243" d="M49.809,473.584v5.176h69.506v-5.194Z" transform="translate(-49.809 -473.566)" fill="#5c22c3"/>
            </g>
            <g id="Grupo_110481" data-name="Grupo 110481" transform="translate(28.082 15.169)">
              <path id="Trazado_169246" data-name="Trazado 169246" d="M216.421,98.322v27.6h25.343V98.381Z" transform="translate(-216.421 -98.322)" fill="#d3a06c"/>
            </g>
            <g id="Grupo_110484" data-name="Grupo 110484" transform="translate(38.258 15.165)">
              <path id="Trazado_169249" data-name="Trazado 169249" d="M276.8,98.3v5.069h5.051v-5.06Z" transform="translate(-276.799 -98.297)" fill="#5c22c3"/>
            </g>
            <g id="Grupo_110485" data-name="Grupo 110485" transform="translate(17.804 4.894)">
              <path id="Trazado_169250" data-name="Trazado 169250" d="M165.722,75.237V37.361h-10.28v5.1h5.234V80.282h35.4V75.237Z" transform="translate(-155.442 -37.361)" fill="#5e2667"/>
            </g>
            <g id="Grupo_110487" data-name="Grupo 110487" transform="translate(23.038 44.019)">
              <path id="Trazado_169252" data-name="Trazado 169252" d="M186.5,269.489h35.281v3.8H186.5Z" transform="translate(-186.496 -269.489)" fill="#5e2667"/>
            </g>
            <g id="Grupo_110488" data-name="Grupo 110488" transform="translate(17.933 47.875)">
              <circle id="Elipse_5816" data-name="Elipse 5816" cx="5.105" cy="5.105" r="5.105" fill="#5c22c3"/>
            </g>
            <g id="Grupo_110490" data-name="Grupo 110490" transform="translate(45.733 47.875)">
              <circle id="Elipse_5817" data-name="Elipse 5817" cx="5.105" cy="5.105" r="5.105" fill="#5c22c3"/>
            </g>
          </g>
        </g>
        <g id="Grupo_110495" data-name="Grupo 110495" transform="translate(42.201 -0.199)">
          <path id="Trazado_169256" data-name="Trazado 169256" d="M163.265,378.16h3.794v10.129h2.53V378.16h3.794v-2.53H163.265Z" transform="translate(-142.86 -312.285)"/>
          <path id="Trazado_169257" data-name="Trazado 169257" d="M312.1,388.186l2.537,0,0-2.53-2.532,0a3.8,3.8,0,0,1,0-7.61h2.534v-2.53H312.1a6.335,6.335,0,0,0,0,12.669Z" transform="translate(-261.34 -312.191)"/>
          <path id="Trazado_169258" data-name="Trazado 169258" d="M100.845,380.649h-1.29a1.244,1.244,0,0,1,0-2.489h5.057V375.63H99.556a3.774,3.774,0,0,0,0,7.548h1.29a1.275,1.275,0,0,1,0,2.548h-5.1v2.562h5.108C105.81,388.088,105.846,380.807,100.845,380.649Z" transform="translate(-86.724 -312.285)"/>
          <path id="Trazado_169259" data-name="Trazado 169259" d="M241.183,383.122v-2.546a5.059,5.059,0,0,0-10.118,0v2.546a5.059,5.059,0,0,0,10.118,0Zm-7.588,0v-2.546a2.53,2.53,0,0,1,5.059,0v2.546a2.53,2.53,0,0,1-5.059,0Z" transform="translate(-199.233 -312.191)"/>
          <path id="Trazado_169260" data-name="Trazado 169260" d="M375.911,383.321a3.8,3.8,0,0,1,2.53,3.577v1.265h2.53V386.9a6.318,6.318,0,0,0-2.541-5.064,6.318,6.318,0,0,0,2.541-5.064V375.5h-2.53v1.265a3.8,3.8,0,0,1-2.53,3.577V375.5h-2.53v12.647h2.53Z" transform="translate(-317.562 -312.18)"/>
          <path id="Trazado_169261" data-name="Trazado 169261" d="M99.408,58.785a6.354,6.354,0,0,0-.046-7.745h3.833V43.463H98.182v-20h-2.53v20H72.828V18.315h7.65v4.961h7.583V18.315h7.591v2.622h2.53V15.785H90.54V.669H70.3v4.9H60.014v5.161H42.253V33.6h7.628v-2.53h-5.1V13.258h20.4v17.81H52.41V33.6h12.84V48.7a6.368,6.368,0,0,0-3.814,10.088H42.2V86.852h72.07V58.785Zm-8.922-3.843a3.843,3.843,0,1,1,3.843,3.843A3.847,3.847,0,0,1,90.486,54.942Zm-4.954-34.2H83.008V18.315h2.524ZM79.156,3.215l2.524,0V5.807H79.156ZM72.828,3.2l3.8.007V8.336h7.583V3.224l3.8.007V15.785H72.828V3.2ZM62.544,8.1H70.3V45.992h30.366v2.519H67.78V10.668H62.544V8.1Zm3.972,43a3.843,3.843,0,1,1-3.843,3.843A3.847,3.847,0,0,1,66.515,51.1Zm5.032-.059H89.3a6.354,6.354,0,0,0-.046,7.745H71.594a6.354,6.354,0,0,0-.047-7.745Zm40.194,33.282H44.73V81.673l29.712-.009v-2.53l-29.711.009V61.315h67.011V79.126l-29.712.008v2.53l29.711-.008v2.667Z" transform="translate(-42.201 -0.523)"/>
          <path id="Trazado_169262" data-name="Trazado 169262" d="M248.5,466.212h2.53v2.529H248.5Z" transform="translate(-213.726 -387.6)"/>
          <path id="Trazado_169263" data-name="Trazado 169263" d="M238.945,224.585h7.588v2.53h-7.588Z" transform="translate(-205.784 -186.698)"/>
          <path id="Trazado_169264" data-name="Trazado 169264" d="M105.071,95.544l5.051,7.789h2.555v-12.6h-2.53v7.991l-5.192-8.006h-2.413v12.637h2.529Z" transform="translate(-92.372 -75.393)"/>
          <path id="Trazado_169265" data-name="Trazado 169265" d="M72.494,90.806h2.53v12.622h-2.53Z" transform="translate(-67.388 -75.467)"/>
          <path id="Trazado_169266" data-name="Trazado 169266" d="M0,0H7.362V2.53H0Z" transform="translate(55.566 5.367) rotate(-46.782)"/>
          <path id="Trazado_169267" data-name="Trazado 169267" d="M0,0H7.363V2.529H0Z" transform="translate(62.548 13.302) rotate(-30.747)"/>
          <path id="Trazado_169268" data-name="Trazado 169268" d="M0,0H7.362V2.53H0Z" transform="matrix(0.78, -0.626, 0.626, 0.78, 59.265, 9.051)"/>
        </g>
      </g>
    </g>
  </g>
</svg>
